{"glyphs":{"0":{"ha":1180,"x_min":56,"x_max":1125,"o":"m 590 -35 q 407 -9 492 -35 q 258 61 321 16 q 148 167 194 106 q 79 302 102 229 q 56 457 56 376 q 79 612 56 538 q 148 747 102 686 q 258 853 194 808 q 407 924 321 899 q 590 949 492 949 q 814 910 712 949 q 983 805 916 871 q 1088 648 1050 738 q 1125 457 1125 559 q 1088 266 1125 355 q 983 110 1050 176 q 814 4 916 43 q 590 -35 712 -35 m 435 293 q 465 261 435 293 q 590 229 495 229 q 745 293 685 229 q 806 457 806 357 q 745 621 806 557 q 590 685 685 685 q 435 621 495 685 q 375 457 375 557 q 435 293 375 357 z "},"1":{"ha":725,"x_min":21,"x_max":621,"o":"m 301 0 l 301 582 l 170 471 l 21 648 l 338 913 l 621 913 l 621 0 l 301 0 z "},"2":{"ha":1058,"x_min":83,"x_max":975,"o":"m 94 0 l 94 221 q 338 304 235 264 q 503 377 441 345 q 600 443 564 410 q 649 502 636 475 q 661 559 661 529 q 627 642 661 612 q 526 672 593 672 q 424 643 460 672 q 389 564 389 613 q 407 476 389 524 l 119 476 q 95 551 106 506 q 83 635 83 597 q 99 721 83 679 q 150 803 115 764 q 235 873 184 843 q 360 921 286 903 q 526 939 435 939 q 696 919 621 939 q 822 868 772 900 q 904 793 871 836 q 951 703 937 749 q 965 607 965 657 q 938 476 965 537 q 867 375 911 416 q 774 306 823 334 q 671 264 724 278 l 975 264 l 975 0 l 94 0 z "},"3":{"ha":1083,"x_min":24,"x_max":1000,"o":"m 539 -28 q 420 -21 475 -28 q 321 -3 364 -14 q 242 26 279 8 q 179 62 205 45 q 129 105 153 79 q 92 150 106 130 q 63 198 77 169 q 41 244 48 227 q 24 289 34 261 l 332 350 q 385 272 333 307 q 538 237 437 237 q 654 259 617 237 q 692 310 692 280 q 618 353 692 353 l 456 353 l 456 558 l 566 558 q 641 573 613 558 q 668 614 668 588 q 630 661 668 644 q 521 679 591 679 q 377 647 425 679 q 329 575 329 614 l 49 648 q 63 692 56 673 q 88 743 71 711 q 127 798 106 774 q 187 848 149 821 q 270 892 224 875 q 382 922 316 910 q 528 933 449 933 q 854 859 741 933 q 968 648 968 785 q 960 585 968 613 q 940 538 951 556 q 909 505 928 520 q 876 483 891 490 q 840 467 861 475 q 888 450 863 463 q 940 413 913 437 q 983 350 966 390 q 1000 260 1000 310 q 883 50 1000 128 q 539 -28 765 -28 z "},"4":{"ha":1132,"x_min":28,"x_max":1048,"o":"m 604 0 l 604 175 l 28 175 l 28 421 l 492 913 l 924 913 l 924 425 l 1048 425 l 1048 182 l 924 182 l 924 0 l 604 0 m 401 425 l 604 425 l 604 660 l 401 425 z "},"5":{"ha":1043,"x_min":56,"x_max":987,"o":"m 543 -32 q 271 -2 405 -32 q 56 65 136 28 l 139 306 q 288 253 192 277 q 488 229 383 229 q 622 248 577 229 q 667 298 667 266 q 518 359 667 359 q 417 351 460 359 q 319 322 373 342 l 115 389 l 151 913 l 960 913 l 924 648 l 427 648 l 418 536 q 654 566 531 566 q 987 293 987 566 q 879 53 987 138 q 543 -32 770 -32 z "},"6":{"ha":1090,"x_min":50,"x_max":1040,"o":"m 553 -32 q 181 68 313 -32 q 50 364 50 168 q 70 504 50 439 q 136 634 90 568 q 245 764 182 701 q 408 913 308 827 l 888 913 q 695 772 789 852 q 545 631 602 692 q 663 647 582 647 q 774 636 721 647 q 877 601 827 625 q 962 540 926 576 q 1019 449 998 504 q 1040 326 1040 394 q 1013 186 1040 250 q 928 74 985 123 q 776 -4 871 24 q 553 -32 680 -32 m 551 231 q 674 257 627 231 q 721 326 721 283 q 673 395 721 370 q 553 421 625 421 q 435 396 482 421 q 387 326 387 372 q 434 255 387 280 q 551 231 481 231 z "},"7":{"ha":964,"x_min":28,"x_max":936,"o":"m 125 0 l 536 647 l 28 647 l 28 913 l 936 913 l 936 704 l 500 0 l 125 0 z "},"8":{"ha":1103,"x_min":56,"x_max":1047,"o":"m 743 -14 q 701 -21 743 -14 q 551 -28 659 -28 q 360 -14 444 -28 q 219 26 275 1 q 125 86 162 51 q 72 163 88 122 q 56 253 56 205 q 70 333 56 297 q 104 392 84 370 q 152 431 125 414 q 199 455 178 448 q 239 467 220 463 q 190 488 214 474 q 141 524 165 501 q 102 583 117 547 q 87 663 87 618 q 211 860 87 787 q 551 933 334 933 q 892 860 768 933 q 1015 663 1015 787 q 1000 583 1015 618 q 961 524 985 547 q 913 488 937 501 q 864 467 889 474 q 904 455 883 463 q 951 431 924 448 q 998 392 978 414 q 1033 333 1019 370 q 1047 253 1047 297 q 1031 163 1047 205 q 978 86 1015 122 q 884 26 941 51 q 743 -14 827 1 m 436 573 q 461 565 436 573 q 551 557 486 557 q 666 573 617 557 q 715 621 715 589 q 666 670 715 652 q 551 688 616 688 q 437 670 487 688 q 387 621 387 652 q 436 573 387 589 m 456 225 q 476 222 456 225 q 551 218 496 218 q 647 225 607 218 q 707 244 687 233 q 735 268 726 256 q 743 292 743 279 q 692 343 743 323 q 551 363 640 363 q 411 343 463 363 q 359 292 359 323 q 368 268 359 279 q 396 244 376 256 q 456 225 416 233 z "},"9":{"ha":1090,"x_min":50,"x_max":1040,"o":"m 203 0 l 547 260 q 444 253 495 253 q 288 274 359 253 q 163 336 217 296 q 80 440 110 376 q 50 583 50 503 q 68 699 50 645 q 125 798 86 752 q 221 877 163 844 q 361 929 278 910 q 547 947 445 947 q 911 850 782 947 q 1040 557 1040 753 q 1020 412 1040 479 q 951 277 999 345 q 842 146 904 210 q 682 0 780 83 l 203 0 m 538 488 q 656 512 609 488 q 703 583 703 536 q 656 653 703 629 q 539 677 610 677 q 416 651 463 677 q 370 582 370 625 q 417 513 370 539 q 538 488 465 488 z "}," ":{"ha":416,"x_min":0,"x_max":0,"o":""},"!":{"ha":529,"x_min":104,"x_max":425,"o":"m 146 239 l 104 913 l 424 913 l 382 239 l 146 239 m 107 0 l 107 182 l 425 182 l 425 0 l 107 0 z "},"\"":{"ha":553,"x_min":69,"x_max":484,"o":"m 111 599 l 69 913 l 233 913 l 187 599 l 111 599 m 361 599 l 319 913 l 484 913 l 437 599 l 361 599 z "},"#":{"ha":957,"x_min":104,"x_max":852,"o":"m 125 97 l 154 221 l 104 221 l 104 450 l 208 450 l 222 514 l 104 514 l 104 743 l 277 743 l 306 867 l 533 867 l 504 743 l 568 743 l 597 867 l 825 867 l 796 743 l 852 743 l 852 514 l 742 514 l 728 450 l 852 450 l 852 221 l 673 221 l 644 97 l 416 97 l 446 221 l 382 221 l 353 97 l 125 97 m 428 443 l 505 443 l 522 521 l 444 521 l 428 443 z "},"$":{"ha":932,"x_min":56,"x_max":876,"o":"m 876 290 q 782 65 876 152 q 518 -32 688 -22 l 518 -143 l 431 -143 l 431 -32 q 215 12 317 -25 q 56 92 113 48 l 158 313 q 283 254 208 282 q 431 218 357 227 l 431 329 q 412 333 422 331 q 390 337 402 334 q 371 340 378 339 q 284 361 323 350 q 204 394 246 373 q 135 444 163 416 q 90 515 108 471 q 72 612 72 558 q 169 836 72 745 q 431 937 266 926 l 431 1035 l 518 1035 l 518 937 q 708 893 621 930 q 840 815 795 857 l 730 616 q 633 659 690 639 q 518 688 575 679 l 518 576 q 536 573 526 575 q 558 569 545 572 q 578 566 570 567 q 631 555 611 559 q 687 539 652 550 q 744 515 722 528 q 794 482 767 503 q 838 435 822 460 q 865 372 854 410 q 876 290 876 335 m 347 644 q 365 618 347 629 q 431 596 383 608 l 431 690 q 369 675 391 688 q 347 644 347 663 m 518 216 q 591 262 591 224 q 518 313 591 295 l 518 216 z "},"%":{"ha":1686,"x_min":56,"x_max":1630,"o":"m 519 -98 l 930 1002 l 1158 1002 l 747 -98 l 519 -98 m 376 329 q 241 353 302 329 q 140 417 180 376 q 78 513 100 458 q 56 628 56 567 q 93 777 56 710 q 205 885 131 844 q 376 926 279 926 q 548 885 474 926 q 660 777 622 844 q 697 628 697 710 q 609 415 697 502 q 376 329 520 329 m 292 537 q 308 520 292 537 q 376 503 325 503 q 461 537 428 503 q 494 628 494 572 q 461 718 494 684 q 376 753 428 753 q 292 718 325 753 q 258 628 258 684 q 292 537 258 572 m 1310 -24 q 1175 0 1236 -24 q 1073 65 1114 24 q 1011 160 1033 106 q 989 275 989 214 q 1026 425 989 357 q 1138 533 1064 492 q 1310 574 1212 574 q 1481 533 1407 574 q 1593 425 1555 492 q 1630 275 1630 357 q 1542 63 1630 149 q 1310 -24 1453 -24 m 1225 185 q 1241 167 1225 185 q 1310 150 1258 150 q 1394 185 1361 150 q 1428 275 1428 220 q 1394 366 1428 331 q 1310 400 1361 400 q 1225 366 1258 400 q 1192 275 1192 331 q 1225 185 1192 220 z "},"&":{"ha":1087,"x_min":56,"x_max":1129,"o":"m 424 -35 q 280 -19 346 -35 q 163 29 214 -3 q 84 112 113 60 q 56 232 56 164 q 107 391 56 324 q 257 494 159 458 q 193 576 220 526 q 165 696 165 627 q 262 882 165 817 q 518 947 359 947 q 779 878 684 947 q 873 686 873 809 q 832 537 873 606 q 711 428 791 469 l 777 361 l 884 461 l 1039 311 l 932 203 l 1129 0 l 806 0 l 751 61 q 622 -7 708 21 q 424 -35 536 -35 m 515 571 q 619 675 619 604 q 594 728 619 711 q 530 745 569 745 q 464 726 488 745 q 440 677 440 707 q 460 624 440 650 q 515 571 481 599 m 454 187 q 568 222 519 187 l 452 332 q 375 293 399 312 q 351 249 351 275 q 378 204 351 220 q 454 187 404 187 z "},"'":{"ha":304,"x_min":56,"x_max":248,"o":"m 56 597 l 56 911 l 248 911 l 248 751 l 146 597 l 56 597 z "},"(":{"ha":682,"x_min":56,"x_max":654,"o":"m 611 -224 q 394 -172 497 -224 q 217 -32 292 -120 q 99 177 143 56 q 56 431 56 298 q 99 685 56 564 q 217 893 143 806 q 394 1033 292 981 q 611 1084 497 1084 l 635 1004 q 418 816 481 956 q 354 431 354 676 q 654 -153 354 -5 l 611 -224 z "},")":{"ha":677,"x_min":24,"x_max":623,"o":"m 66 -224 l 24 -153 q 323 431 323 -6 q 260 816 323 676 q 43 1004 196 956 l 66 1084 q 242 1052 157 1084 q 396 958 328 1019 q 515 817 464 897 q 595 637 567 736 q 623 431 623 537 q 595 224 623 324 q 515 44 567 125 q 396 -97 464 -37 q 242 -191 328 -157 q 66 -224 157 -224 z "},"*":{"ha":591,"x_min":56,"x_max":536,"o":"m 218 443 l 201 515 l 132 497 l 57 625 l 113 677 l 56 732 l 131 860 l 201 840 l 227 913 l 366 913 l 393 840 l 463 859 l 536 733 l 482 677 l 536 621 l 464 498 l 393 515 l 372 443 l 218 443 z "},"+":{"ha":673,"x_min":69,"x_max":604,"o":"m 604 554 l 604 332 l 452 332 l 452 172 l 222 172 l 222 332 l 69 332 l 69 554 l 222 554 l 222 707 l 452 707 l 452 554 l 604 554 z "},",":{"ha":333,"x_min":56,"x_max":278,"o":"m 56 -193 l 56 222 l 278 222 l 278 77 l 132 -193 l 56 -193 z "},"-":{"ha":705,"x_min":69,"x_max":636,"o":"m 69 355 l 69 585 l 636 585 l 636 355 l 69 355 z "},".":{"ha":361,"x_min":56,"x_max":306,"o":"m 56 1 l 56 236 l 306 236 l 306 1 l 56 1 z "},"/":{"ha":667,"x_min":14,"x_max":653,"o":"m 14 -98 l 425 1002 l 653 1002 l 241 -98 l 14 -98 z "},":":{"ha":351,"x_min":56,"x_max":296,"o":"m 56 505 l 56 732 l 296 732 l 296 505 l 56 505 m 56 1 l 56 228 l 296 228 l 296 1 l 56 1 z "},";":{"ha":382,"x_min":69,"x_max":300,"o":"m 69 497 l 69 732 l 298 732 l 298 497 l 69 497 m 78 -193 l 78 222 l 300 222 l 300 77 l 154 -193 l 78 -193 z "},"<":{"ha":630,"x_min":28,"x_max":561,"o":"m 404 89 l 28 465 l 404 842 l 561 685 l 342 465 l 561 245 l 404 89 z "},"=":{"ha":672,"x_min":69,"x_max":636,"o":"m 69 514 l 69 743 l 636 743 l 636 514 l 69 514 m 69 221 l 69 450 l 636 450 l 636 221 l 69 221 z "},">":{"ha":630,"x_min":69,"x_max":603,"o":"m 227 89 l 69 245 l 289 465 l 69 685 l 227 842 l 603 465 l 227 89 z "},"?":{"ha":797,"x_min":31,"x_max":755,"o":"m 170 243 l 170 541 q 296 530 213 530 q 424 553 374 530 q 475 607 475 575 q 428 659 475 637 q 298 681 380 681 q 115 646 210 681 l 31 878 q 170 927 77 904 q 361 950 262 950 q 482 939 425 950 q 590 904 539 928 q 676 845 640 880 q 734 755 713 809 q 755 636 755 702 q 738 526 755 575 q 691 446 720 477 q 626 394 663 415 q 555 365 590 374 q 488 357 521 357 l 488 243 l 170 243 m 170 0 l 170 182 l 488 182 l 488 0 l 170 0 z "},"@":{"ha":1144,"x_min":56,"x_max":1089,"o":"m 372 912 q 419 932 372 912 q 572 951 467 951 q 773 912 677 951 q 938 805 869 872 q 1048 646 1007 739 q 1089 450 1089 553 q 986 160 1089 286 q 910 103 954 123 q 822 80 865 82 q 740 88 779 78 q 678 123 702 98 q 653 182 654 149 l 653 253 q 485 183 580 183 q 296 264 374 183 q 218 465 218 346 q 296 665 218 584 q 485 746 374 746 q 653 682 582 746 l 653 734 l 852 734 l 852 172 q 879 141 852 142 q 933 168 906 139 q 1035 450 1035 290 q 999 626 1035 543 q 900 769 962 709 q 753 865 838 829 q 572 900 667 900 q 392 865 477 900 q 244 769 307 829 q 146 626 182 709 q 110 450 110 543 q 146 275 110 358 q 245 131 183 191 q 393 36 307 71 q 572 0 478 0 q 746 33 663 0 l 771 -12 q 572 -52 675 -52 q 372 -12 467 -52 q 207 95 276 28 q 97 255 138 162 q 56 450 56 348 q 97 646 56 553 q 207 805 138 739 q 372 912 276 872 m 438 397 q 452 384 438 397 q 507 370 466 370 q 576 397 549 370 q 604 465 604 425 q 577 531 604 505 q 507 557 549 557 q 438 531 465 557 q 411 465 411 505 q 438 397 411 425 z "},"A":{"ha":1217,"x_min":14,"x_max":1203,"o":"m 14 0 l 422 913 l 794 913 l 1203 0 l 850 0 l 806 110 l 411 110 l 367 0 l 14 0 m 513 359 l 704 359 l 610 597 l 607 597 l 513 359 z "},"B":{"ha":1094,"x_min":104,"x_max":1039,"o":"m 104 0 l 104 913 l 708 913 q 928 849 849 913 q 1007 669 1007 786 q 856 467 1007 509 q 896 456 876 463 q 943 433 915 450 q 990 395 970 417 q 1024 336 1010 373 q 1039 253 1039 299 q 959 70 1039 140 q 745 0 879 0 l 104 0 m 424 554 l 604 554 q 707 624 707 554 q 604 693 707 693 l 424 693 l 424 554 m 424 224 l 659 224 q 714 242 694 224 q 734 293 734 261 q 714 344 734 326 q 659 363 694 363 l 424 363 l 424 224 z "},"C":{"ha":1043,"x_min":56,"x_max":991,"o":"m 590 -35 q 366 4 468 -35 q 197 110 264 43 q 93 266 130 177 q 56 453 56 354 q 93 645 56 555 q 197 802 130 734 q 366 909 264 870 q 590 949 467 949 q 972 807 824 949 l 781 608 q 698 660 737 642 q 602 677 659 677 q 437 617 499 677 q 375 458 375 556 q 438 298 375 361 q 604 236 502 236 q 717 259 667 236 q 798 313 767 282 l 991 115 q 817 5 921 45 q 590 -35 713 -35 z "},"D":{"ha":1129,"x_min":104,"x_max":1074,"o":"m 104 0 l 104 913 l 596 913 q 946 789 819 913 q 1074 456 1074 666 q 946 123 1074 245 q 596 0 819 0 l 104 0 m 424 264 l 554 264 q 701 314 644 264 q 758 456 758 363 q 701 598 758 547 q 554 648 643 648 l 424 648 l 424 264 z "},"E":{"ha":1048,"x_min":104,"x_max":965,"o":"m 104 0 l 104 913 l 965 913 l 965 648 l 424 648 l 424 561 l 882 561 l 882 357 l 424 357 l 424 264 l 965 264 l 965 0 l 104 0 z "},"F":{"ha":1018,"x_min":104,"x_max":949,"o":"m 104 0 l 104 913 l 949 913 l 949 648 l 424 648 l 424 542 l 879 542 l 879 278 l 424 278 l 424 0 l 104 0 z "},"G":{"ha":1176,"x_min":56,"x_max":1125,"o":"m 572 515 l 1125 515 l 1125 450 q 1088 263 1125 351 q 984 109 1051 175 q 814 4 916 43 q 590 -35 713 -35 q 366 4 467 -35 q 197 109 264 43 q 93 263 130 175 q 56 450 56 351 q 79 606 56 532 q 148 743 102 680 q 257 851 193 805 q 406 923 321 897 q 590 949 492 949 q 818 907 715 949 q 991 793 920 866 l 760 599 q 593 677 703 677 q 435 616 495 677 q 375 457 375 554 q 435 298 375 359 q 593 236 495 236 q 703 260 652 236 q 786 326 754 283 l 572 326 l 572 515 z "},"H":{"ha":1169,"x_min":104,"x_max":1065,"o":"m 104 0 l 104 913 l 424 913 l 424 602 l 746 602 l 746 913 l 1065 913 l 1065 0 l 746 0 l 746 323 l 424 323 l 424 0 l 104 0 z "},"I":{"ha":528,"x_min":104,"x_max":424,"o":"m 104 0 l 104 913 l 424 913 l 424 0 l 104 0 z "},"J":{"ha":1051,"x_min":41,"x_max":977,"o":"m 469 -33 q 218 24 330 -33 q 41 186 106 81 l 249 359 q 337 276 277 312 q 461 240 397 240 q 600 296 543 240 q 657 435 657 352 l 657 648 l 134 648 l 134 913 l 977 913 l 977 454 q 839 101 977 235 q 469 -33 701 -33 z "},"K":{"ha":1171,"x_min":104,"x_max":1157,"o":"m 882 -26 q 503 249 631 -26 l 424 170 l 424 0 l 104 0 l 104 913 l 424 913 l 424 555 l 733 913 l 1097 913 l 717 452 q 803 311 751 355 q 918 267 856 267 q 984 279 953 267 q 1032 306 1015 291 l 1157 75 q 1044 5 1118 37 q 882 -26 969 -26 z "},"L":{"ha":979,"x_min":104,"x_max":937,"o":"m 104 0 l 104 913 l 424 913 l 424 278 l 937 278 l 937 0 l 104 0 z "},"M":{"ha":1341,"x_min":104,"x_max":1238,"o":"m 671 -28 l 424 353 l 424 0 l 104 0 l 104 913 l 403 913 l 671 464 l 939 913 l 1238 913 l 1238 0 l 918 0 l 918 353 l 671 -28 z "},"N":{"ha":1156,"x_min":104,"x_max":1053,"o":"m 104 0 l 104 913 l 376 913 l 733 481 l 733 913 l 1053 913 l 1053 0 l 781 0 l 424 422 l 424 0 l 104 0 z "},"O":{"ha":1180,"x_min":56,"x_max":1125,"o":"m 590 -35 q 407 -9 492 -35 q 258 61 321 16 q 148 167 194 106 q 79 302 102 229 q 56 457 56 376 q 79 612 56 538 q 148 747 102 686 q 258 853 194 808 q 407 924 321 899 q 590 949 492 949 q 814 910 712 949 q 983 805 916 871 q 1088 648 1050 738 q 1125 457 1125 559 q 1088 266 1125 355 q 983 110 1050 176 q 814 4 916 43 q 590 -35 712 -35 m 435 293 q 465 261 435 293 q 590 229 495 229 q 745 293 685 229 q 806 457 806 357 q 745 621 806 557 q 590 685 685 685 q 435 621 495 685 q 375 457 375 557 q 435 293 375 357 z "},"P":{"ha":1093,"x_min":104,"x_max":1065,"o":"m 104 0 l 104 913 l 703 913 q 969 820 873 913 q 1065 571 1065 726 q 969 323 1065 416 q 703 231 873 231 l 424 231 l 424 0 l 104 0 m 424 481 l 653 481 q 729 504 701 481 q 757 572 757 527 q 729 640 757 618 q 653 663 702 663 l 424 663 l 424 481 z "},"Q":{"ha":1180,"x_min":56,"x_max":1169,"o":"m 1060 4 l 1169 -158 q 1063 -230 1137 -198 q 893 -262 989 -262 q 678 -207 774 -262 q 467 -24 582 -151 q 245 69 340 -1 q 103 237 151 138 q 56 450 56 335 q 79 606 56 532 q 148 743 102 680 q 257 851 193 805 q 406 923 321 897 q 590 949 492 949 q 814 909 713 949 q 984 801 916 869 q 1088 643 1051 733 q 1125 450 1125 552 q 1033 164 1125 290 q 777 -9 940 39 q 913 -60 839 -60 q 999 -40 958 -60 q 1060 4 1039 -20 m 593 677 q 435 615 495 677 q 375 456 375 553 q 435 297 375 359 q 593 236 495 236 q 746 296 687 236 q 806 456 806 357 q 746 615 806 553 q 593 677 686 677 z "},"R":{"ha":1211,"x_min":104,"x_max":1186,"o":"m 907 -26 q 670 41 778 -26 q 424 271 562 108 l 424 0 l 104 0 l 104 913 l 747 913 q 896 887 829 913 q 1004 815 962 861 q 1070 709 1047 769 q 1093 581 1093 649 q 1066 450 1093 506 q 991 363 1039 395 q 888 317 944 332 q 765 302 831 302 q 932 237 827 237 q 1019 252 981 237 q 1072 286 1056 267 l 1186 77 q 1078 5 1154 37 q 907 -26 1003 -26 m 424 494 l 685 494 q 751 518 726 494 q 775 578 775 543 q 751 637 775 613 q 685 661 726 661 l 424 661 l 424 494 z "},"S":{"ha":932,"x_min":56,"x_max":876,"o":"m 475 -33 q 234 5 349 -33 q 56 92 119 44 l 158 313 q 309 245 219 275 q 482 215 399 215 q 564 228 537 215 q 591 262 591 241 q 586 280 591 272 q 568 294 581 288 q 542 305 555 300 q 507 315 530 310 q 467 323 484 320 q 420 332 450 326 q 371 340 389 337 q 284 361 323 350 q 204 394 246 373 q 135 444 163 416 q 90 515 108 471 q 72 612 72 558 q 181 847 72 755 q 473 939 291 939 q 689 900 589 939 q 840 815 789 862 l 730 616 q 603 668 678 645 q 461 692 528 692 q 377 679 407 692 q 347 644 347 666 q 391 607 347 621 q 578 566 435 593 q 631 555 611 559 q 687 539 652 550 q 744 515 722 528 q 794 482 767 503 q 838 435 822 460 q 865 372 854 410 q 876 290 876 335 q 770 55 876 143 q 475 -33 664 -33 z "},"T":{"ha":980,"x_min":28,"x_max":953,"o":"m 338 0 l 338 635 l 28 635 l 28 913 l 953 913 l 953 635 l 643 635 l 643 0 l 338 0 z "},"U":{"ha":1111,"x_min":75,"x_max":1036,"o":"m 704 -13 q 668 -22 704 -13 q 555 -32 633 -32 q 407 -13 478 -32 q 275 46 336 7 q 170 140 215 85 q 100 273 125 196 q 75 441 75 351 l 75 913 l 395 913 l 395 428 q 439 302 395 352 q 555 253 484 253 q 672 302 627 253 q 717 428 717 352 l 717 913 l 1036 913 l 1036 441 q 1011 273 1036 351 q 941 140 985 196 q 836 46 897 85 q 704 -13 775 7 z "},"V":{"ha":1131,"x_min":14,"x_max":1117,"o":"m 380 0 l 14 913 l 367 913 l 566 314 l 764 913 l 1117 913 l 750 0 l 380 0 z "},"W":{"ha":1550,"x_min":14,"x_max":1536,"o":"m 278 0 l 14 913 l 380 913 l 504 371 l 647 913 l 903 913 l 1046 371 l 1169 913 l 1536 913 l 1272 0 l 889 0 l 775 447 l 661 0 l 278 0 z "},"X":{"ha":1171,"x_min":0,"x_max":1157,"o":"m 0 0 l 363 467 l 16 913 l 422 913 l 589 686 l 772 913 l 1157 913 l 806 469 l 1157 0 l 757 0 l 570 258 l 390 0 l 0 0 z "},"Y":{"ha":1094,"x_min":14,"x_max":1080,"o":"m 386 0 l 386 265 l 14 913 l 367 913 l 547 583 l 725 913 l 1080 913 l 705 265 l 705 0 l 386 0 z "},"Z":{"ha":1054,"x_min":28,"x_max":1026,"o":"m 28 0 l 467 648 l 57 648 l 57 913 l 1026 913 l 593 264 l 1026 264 l 1026 0 l 28 0 z "},"[":{"ha":654,"x_min":104,"x_max":627,"o":"m 104 -208 l 104 1112 l 627 1112 l 627 991 l 380 991 l 380 -87 l 627 -87 l 627 -208 l 104 -208 z "},"\\":{"ha":667,"x_min":14,"x_max":653,"o":"m 653 -98 l 425 -98 l 14 1002 l 241 1002 l 653 -98 z "},"]":{"ha":647,"x_min":21,"x_max":543,"o":"m 543 -208 l 21 -208 l 21 -87 l 267 -87 l 267 991 l 21 991 l 21 1112 l 543 1112 l 543 -208 z "},"^":{"ha":1019,"x_min":138,"x_max":850,"o":"m 850 587 l 607 587 l 494 793 l 380 587 l 138 587 l 347 914 l 640 914 l 850 587 z "},"_":{"ha":875,"x_min":0,"x_max":875,"o":"m 0 0 l 0 229 l 875 229 l 875 0 l 0 0 z "},"`":{"ha":639,"x_min":179,"x_max":590,"o":"m 330 1004 l 179 1197 l 450 1197 l 590 1004 l 330 1004 z "},"a":{"ha":1217,"x_min":14,"x_max":1203,"o":"m 14 0 l 422 913 l 794 913 l 1203 0 l 850 0 l 806 110 l 411 110 l 367 0 l 14 0 m 513 359 l 704 359 l 610 597 l 607 597 l 513 359 z "},"b":{"ha":1094,"x_min":104,"x_max":1039,"o":"m 104 0 l 104 913 l 708 913 q 928 849 849 913 q 1007 669 1007 786 q 856 467 1007 509 q 896 456 876 463 q 943 433 915 450 q 990 395 970 417 q 1024 336 1010 373 q 1039 253 1039 299 q 959 70 1039 140 q 745 0 879 0 l 104 0 m 424 554 l 604 554 q 707 624 707 554 q 604 693 707 693 l 424 693 l 424 554 m 424 224 l 659 224 q 714 242 694 224 q 734 293 734 261 q 714 344 734 326 q 659 363 694 363 l 424 363 l 424 224 z "},"c":{"ha":1043,"x_min":56,"x_max":991,"o":"m 590 -35 q 366 4 468 -35 q 197 110 264 43 q 93 266 130 177 q 56 453 56 354 q 93 645 56 555 q 197 802 130 734 q 366 909 264 870 q 590 949 467 949 q 972 807 824 949 l 781 608 q 698 660 737 642 q 602 677 659 677 q 437 617 499 677 q 375 458 375 556 q 438 298 375 361 q 604 236 502 236 q 717 259 667 236 q 798 313 767 282 l 991 115 q 817 5 921 45 q 590 -35 713 -35 z "},"d":{"ha":1129,"x_min":104,"x_max":1074,"o":"m 104 0 l 104 913 l 596 913 q 946 789 819 913 q 1074 456 1074 666 q 946 123 1074 245 q 596 0 819 0 l 104 0 m 424 264 l 554 264 q 701 314 644 264 q 758 456 758 363 q 701 598 758 547 q 554 648 643 648 l 424 648 l 424 264 z "},"e":{"ha":1048,"x_min":104,"x_max":965,"o":"m 104 0 l 104 913 l 965 913 l 965 648 l 424 648 l 424 561 l 882 561 l 882 357 l 424 357 l 424 264 l 965 264 l 965 0 l 104 0 z "},"f":{"ha":1018,"x_min":104,"x_max":949,"o":"m 104 0 l 104 913 l 949 913 l 949 648 l 424 648 l 424 542 l 879 542 l 879 278 l 424 278 l 424 0 l 104 0 z "},"g":{"ha":1176,"x_min":56,"x_max":1125,"o":"m 572 515 l 1125 515 l 1125 450 q 1088 263 1125 351 q 984 109 1051 175 q 814 4 916 43 q 590 -35 713 -35 q 366 4 467 -35 q 197 109 264 43 q 93 263 130 175 q 56 450 56 351 q 79 606 56 532 q 148 743 102 680 q 257 851 193 805 q 406 923 321 897 q 590 949 492 949 q 818 907 715 949 q 991 793 920 866 l 760 599 q 593 677 703 677 q 435 616 495 677 q 375 457 375 554 q 435 298 375 359 q 593 236 495 236 q 703 260 652 236 q 786 326 754 283 l 572 326 l 572 515 z "},"h":{"ha":1169,"x_min":104,"x_max":1065,"o":"m 104 0 l 104 913 l 424 913 l 424 602 l 746 602 l 746 913 l 1065 913 l 1065 0 l 746 0 l 746 323 l 424 323 l 424 0 l 104 0 z "},"i":{"ha":528,"x_min":104,"x_max":424,"o":"m 104 0 l 104 913 l 424 913 l 424 0 l 104 0 z "},"j":{"ha":1051,"x_min":41,"x_max":977,"o":"m 469 -33 q 218 24 330 -33 q 41 186 106 81 l 249 359 q 337 276 277 312 q 461 240 397 240 q 600 296 543 240 q 657 435 657 352 l 657 648 l 134 648 l 134 913 l 977 913 l 977 454 q 839 101 977 235 q 469 -33 701 -33 z "},"k":{"ha":1171,"x_min":104,"x_max":1157,"o":"m 882 -26 q 503 249 631 -26 l 424 170 l 424 0 l 104 0 l 104 913 l 424 913 l 424 555 l 733 913 l 1097 913 l 717 452 q 803 311 751 355 q 918 267 856 267 q 984 279 953 267 q 1032 306 1015 291 l 1157 75 q 1044 5 1118 37 q 882 -26 969 -26 z "},"l":{"ha":979,"x_min":104,"x_max":937,"o":"m 104 0 l 104 913 l 424 913 l 424 278 l 937 278 l 937 0 l 104 0 z "},"m":{"ha":1341,"x_min":104,"x_max":1238,"o":"m 671 -28 l 424 353 l 424 0 l 104 0 l 104 913 l 403 913 l 671 464 l 939 913 l 1238 913 l 1238 0 l 918 0 l 918 353 l 671 -28 z "},"n":{"ha":1156,"x_min":104,"x_max":1053,"o":"m 104 0 l 104 913 l 376 913 l 733 481 l 733 913 l 1053 913 l 1053 0 l 781 0 l 424 422 l 424 0 l 104 0 z "},"o":{"ha":1180,"x_min":56,"x_max":1125,"o":"m 590 -35 q 407 -9 492 -35 q 258 61 321 16 q 148 167 194 106 q 79 302 102 229 q 56 457 56 376 q 79 612 56 538 q 148 747 102 686 q 258 853 194 808 q 407 924 321 899 q 590 949 492 949 q 814 910 712 949 q 983 805 916 871 q 1088 648 1050 738 q 1125 457 1125 559 q 1088 266 1125 355 q 983 110 1050 176 q 814 4 916 43 q 590 -35 712 -35 m 435 293 q 465 261 435 293 q 590 229 495 229 q 745 293 685 229 q 806 457 806 357 q 745 621 806 557 q 590 685 685 685 q 435 621 495 685 q 375 457 375 557 q 435 293 375 357 z "},"p":{"ha":1093,"x_min":104,"x_max":1065,"o":"m 104 0 l 104 913 l 703 913 q 969 820 873 913 q 1065 571 1065 726 q 969 323 1065 416 q 703 231 873 231 l 424 231 l 424 0 l 104 0 m 424 481 l 653 481 q 729 504 701 481 q 757 572 757 527 q 729 640 757 618 q 653 663 702 663 l 424 663 l 424 481 z "},"q":{"ha":1180,"x_min":56,"x_max":1169,"o":"m 1060 4 l 1169 -158 q 1063 -230 1137 -198 q 893 -262 989 -262 q 678 -207 774 -262 q 467 -24 582 -151 q 245 69 340 -1 q 103 237 151 138 q 56 450 56 335 q 79 606 56 532 q 148 743 102 680 q 257 851 193 805 q 406 923 321 897 q 590 949 492 949 q 814 909 713 949 q 984 801 916 869 q 1088 643 1051 733 q 1125 450 1125 552 q 1033 164 1125 290 q 777 -9 940 39 q 913 -60 839 -60 q 999 -40 958 -60 q 1060 4 1039 -20 m 593 677 q 435 615 495 677 q 375 456 375 553 q 435 297 375 359 q 593 236 495 236 q 746 296 687 236 q 806 456 806 357 q 746 615 806 553 q 593 677 686 677 z "},"r":{"ha":1211,"x_min":104,"x_max":1186,"o":"m 907 -26 q 670 41 778 -26 q 424 271 562 108 l 424 0 l 104 0 l 104 913 l 747 913 q 896 887 829 913 q 1004 815 962 861 q 1070 709 1047 769 q 1093 581 1093 649 q 1066 450 1093 506 q 991 363 1039 395 q 888 317 944 332 q 765 302 831 302 q 932 237 827 237 q 1019 252 981 237 q 1072 286 1056 267 l 1186 77 q 1078 5 1154 37 q 907 -26 1003 -26 m 424 494 l 685 494 q 751 518 726 494 q 775 578 775 543 q 751 637 775 613 q 685 661 726 661 l 424 661 l 424 494 z "},"s":{"ha":932,"x_min":56,"x_max":876,"o":"m 475 -33 q 234 5 349 -33 q 56 92 119 44 l 158 313 q 309 245 219 275 q 482 215 399 215 q 564 228 537 215 q 591 262 591 241 q 586 280 591 272 q 568 294 581 288 q 542 305 555 300 q 507 315 530 310 q 467 323 484 320 q 420 332 450 326 q 371 340 389 337 q 284 361 323 350 q 204 394 246 373 q 135 444 163 416 q 90 515 108 471 q 72 612 72 558 q 181 847 72 755 q 473 939 291 939 q 689 900 589 939 q 840 815 789 862 l 730 616 q 603 668 678 645 q 461 692 528 692 q 377 679 407 692 q 347 644 347 666 q 391 607 347 621 q 578 566 435 593 q 631 555 611 559 q 687 539 652 550 q 744 515 722 528 q 794 482 767 503 q 838 435 822 460 q 865 372 854 410 q 876 290 876 335 q 770 55 876 143 q 475 -33 664 -33 z "},"t":{"ha":980,"x_min":28,"x_max":953,"o":"m 338 0 l 338 635 l 28 635 l 28 913 l 953 913 l 953 635 l 643 635 l 643 0 l 338 0 z "},"u":{"ha":1111,"x_min":75,"x_max":1036,"o":"m 704 -13 q 668 -22 704 -13 q 555 -32 633 -32 q 407 -13 478 -32 q 275 46 336 7 q 170 140 215 85 q 100 273 125 196 q 75 441 75 351 l 75 913 l 395 913 l 395 428 q 439 302 395 352 q 555 253 484 253 q 672 302 627 253 q 717 428 717 352 l 717 913 l 1036 913 l 1036 441 q 1011 273 1036 351 q 941 140 985 196 q 836 46 897 85 q 704 -13 775 7 z "},"v":{"ha":1131,"x_min":14,"x_max":1117,"o":"m 380 0 l 14 913 l 367 913 l 566 314 l 764 913 l 1117 913 l 750 0 l 380 0 z "},"w":{"ha":1550,"x_min":14,"x_max":1536,"o":"m 278 0 l 14 913 l 380 913 l 504 371 l 647 913 l 903 913 l 1046 371 l 1169 913 l 1536 913 l 1272 0 l 889 0 l 775 447 l 661 0 l 278 0 z "},"x":{"ha":1171,"x_min":0,"x_max":1157,"o":"m 0 0 l 363 467 l 16 913 l 422 913 l 589 686 l 772 913 l 1157 913 l 806 469 l 1157 0 l 757 0 l 570 258 l 390 0 l 0 0 z "},"y":{"ha":1094,"x_min":14,"x_max":1080,"o":"m 386 0 l 386 265 l 14 913 l 367 913 l 547 583 l 725 913 l 1080 913 l 705 265 l 705 0 l 386 0 z "},"z":{"ha":1054,"x_min":28,"x_max":1026,"o":"m 28 0 l 467 648 l 57 648 l 57 913 l 1026 913 l 593 264 l 1026 264 l 1026 0 l 28 0 z "},"{":{"ha":737,"x_min":41,"x_max":668,"o":"m 504 -208 q 423 -200 460 -208 q 359 -180 386 -192 q 310 -146 332 -168 q 274 -105 288 -125 q 249 -56 260 -86 q 233 -5 238 -26 q 223 51 227 16 q 218 104 219 85 q 215 155 216 123 q 213 199 214 183 q 207 244 212 215 q 196 291 203 273 q 177 332 190 309 q 146 368 163 355 q 102 390 129 380 q 41 399 75 399 l 41 521 q 101 530 75 521 q 146 551 128 538 q 176 586 163 564 q 196 626 189 608 q 207 673 203 644 q 213 719 212 701 q 215 764 214 736 q 218 817 216 797 q 223 870 219 838 q 233 924 227 903 q 250 973 239 945 q 275 1019 260 1001 q 311 1056 289 1037 q 359 1087 332 1076 q 423 1105 387 1098 q 504 1112 460 1112 l 668 1112 l 668 991 q 594 979 625 991 q 544 946 562 966 q 513 895 525 926 q 497 833 502 863 q 492 764 493 803 q 490 722 491 737 q 488 682 490 707 q 484 640 486 656 q 476 602 481 625 q 465 565 472 579 q 449 534 458 551 q 428 507 440 517 q 399 487 415 497 q 363 473 384 477 q 319 469 343 469 q 399 451 366 469 q 451 405 433 432 q 480 335 469 377 q 493 257 490 292 q 496 175 496 222 q 500 100 496 135 q 516 29 505 64 q 547 -31 528 -6 q 597 -72 566 -56 q 668 -87 628 -87 l 668 -208 l 504 -208 z "},"|":{"ha":374,"x_min":104,"x_max":271,"o":"m 104 -147 l 104 1025 l 271 1025 l 271 -147 l 104 -147 z "},"}":{"ha":737,"x_min":69,"x_max":696,"o":"m 233 -208 l 69 -208 l 69 -87 q 140 -72 109 -87 q 190 -31 172 -56 q 221 29 209 -6 q 237 100 233 64 q 241 175 241 135 q 244 257 241 222 q 257 335 247 292 q 286 405 268 377 q 338 451 304 432 q 418 469 372 469 q 374 473 394 469 q 338 487 353 477 q 310 507 322 497 q 288 534 297 517 q 272 565 279 551 q 261 602 265 579 q 254 640 256 625 q 249 682 251 656 q 247 722 248 707 q 245 764 246 737 q 240 833 244 803 q 224 895 235 863 q 194 946 212 926 q 143 979 175 966 q 69 991 112 991 l 69 1112 l 233 1112 q 314 1105 277 1112 q 378 1087 351 1098 q 427 1056 405 1076 q 463 1019 448 1037 q 488 973 477 1001 q 504 924 498 945 q 514 870 510 903 q 519 817 518 838 q 522 764 521 797 q 525 719 524 736 q 530 673 526 701 q 541 626 534 644 q 561 586 548 608 q 591 551 574 564 q 636 530 609 538 q 696 521 663 521 l 696 399 q 635 390 662 399 q 591 368 608 380 q 561 332 574 355 q 541 291 547 309 q 530 244 534 273 q 525 199 526 215 q 522 155 524 183 q 519 104 521 123 q 514 51 518 85 q 505 -5 510 16 q 488 -56 499 -26 q 463 -105 477 -86 q 427 -146 449 -125 q 378 -180 405 -168 q 314 -200 351 -192 q 233 -208 277 -208 z "},"~":{"ha":758,"x_min":14,"x_max":729,"o":"m 107 325 l 14 478 q 99 548 42 516 q 221 579 156 579 q 329 566 281 579 q 414 539 376 553 q 489 526 452 526 q 573 549 532 527 q 636 596 614 570 l 729 443 q 634 373 691 405 q 529 342 578 342 q 436 350 478 342 q 370 368 393 358 q 315 387 346 378 q 254 395 285 395 q 170 372 211 394 q 107 325 130 351 z "},"¡":{"ha":529,"x_min":104,"x_max":425,"o":"m 107 913 l 425 913 l 425 730 l 107 730 l 107 913 m 146 673 l 382 673 l 424 0 l 104 0 l 146 673 z "},"¢":{"ha":1043,"x_min":56,"x_max":991,"o":"m 991 115 q 679 -29 873 -3 l 679 -143 l 509 -143 l 509 -31 q 266 56 370 -14 q 109 229 161 125 q 56 453 56 332 q 109 683 56 578 q 266 858 162 787 q 509 945 370 928 l 509 1035 l 679 1035 l 679 943 q 972 807 853 919 l 781 608 q 679 667 723 653 l 679 245 q 798 313 751 267 l 991 115 m 375 458 q 411 333 375 387 q 509 253 447 278 l 509 661 q 411 585 446 638 q 375 458 375 531 z "},"£":{"ha":1120,"x_min":28,"x_max":1079,"o":"m 917 313 l 1079 104 q 1010 55 1039 74 q 937 15 982 37 q 836 -17 891 -7 q 714 -28 781 -28 q 511 0 626 -28 q 328 28 396 28 q 201 12 260 28 q 109 -22 141 -3 l 109 408 l 28 408 l 28 509 l 110 509 q 258 826 123 707 q 610 946 393 946 q 997 787 854 946 l 810 596 q 621 672 734 672 q 481 626 530 672 q 428 509 433 580 l 663 509 l 663 408 l 428 408 l 428 281 q 549 257 463 277 q 690 236 635 236 q 825 260 763 236 q 917 313 886 283 z "},"¥":{"ha":1094,"x_min":14,"x_max":1080,"o":"m 1080 913 l 799 427 l 914 427 l 914 326 l 741 326 l 710 272 l 914 272 l 914 172 l 705 172 l 705 0 l 386 0 l 386 172 l 165 172 l 165 272 l 382 272 l 351 326 l 165 326 l 165 427 l 293 427 l 14 913 l 367 913 l 547 583 l 725 913 l 1080 913 z "},"¦":{"ha":374,"x_min":104,"x_max":271,"o":"m 104 550 l 104 1025 l 271 1025 l 271 550 l 104 550 m 104 -147 l 104 407 l 271 407 l 271 -147 l 104 -147 z "},"§":{"ha":960,"x_min":69,"x_max":890,"o":"m 469 -403 q 344 -390 408 -403 q 233 -359 280 -377 q 148 -322 186 -340 q 90 -291 109 -304 l 69 -278 l 172 -57 q 191 -67 179 -61 q 239 -91 203 -74 q 312 -120 276 -107 q 396 -143 347 -133 q 488 -154 446 -154 q 577 -142 549 -154 q 606 -110 606 -130 q 588 -79 606 -92 q 524 -56 570 -67 q 385 -29 479 -45 q 159 65 232 -3 q 86 252 86 134 q 154 439 86 361 q 86 621 86 507 q 113 743 86 686 q 189 844 139 800 q 318 913 239 888 q 494 939 397 939 q 612 926 553 939 q 712 895 671 913 q 788 859 754 877 q 838 827 821 840 l 854 815 l 745 616 q 729 625 739 620 q 688 643 719 629 q 627 666 657 656 q 556 684 597 675 q 479 692 515 692 q 392 678 423 692 q 361 646 361 665 q 408 606 361 623 q 591 566 454 589 q 822 471 753 538 q 890 273 890 403 q 827 96 890 179 q 890 -96 890 28 q 780 -318 890 -233 q 469 -403 670 -403 m 633 174 q 637 197 637 184 q 610 272 637 248 q 505 315 583 295 l 346 357 q 340 325 340 335 q 347 282 340 299 q 370 253 353 266 q 409 233 387 241 q 471 215 431 225 l 633 174 z "},"¨":{"ha":761,"x_min":69,"x_max":692,"o":"m 69 991 l 69 1169 l 325 1169 l 325 991 l 69 991 m 436 991 l 436 1169 l 692 1169 l 692 991 l 436 991 z "},"©":{"ha":1144,"x_min":56,"x_max":1089,"o":"m 773 -12 q 725 -32 773 -12 q 572 -52 677 -52 q 372 -12 467 -52 q 207 95 276 28 q 97 255 138 162 q 56 450 56 348 q 97 645 56 552 q 207 805 138 738 q 372 912 276 872 q 572 951 467 951 q 773 912 677 951 q 938 805 869 872 q 1048 645 1007 738 q 1089 450 1089 552 q 1048 255 1089 348 q 938 95 1007 162 q 773 -12 869 28 m 392 36 q 435 18 392 36 q 572 0 478 0 q 752 36 667 0 q 900 132 838 71 q 998 275 962 192 q 1035 450 1035 359 q 998 625 1035 541 q 900 768 962 708 q 752 864 838 829 q 572 900 667 900 q 392 864 478 900 q 245 768 307 829 q 146 625 183 708 q 110 450 110 541 q 146 275 110 359 q 245 132 183 192 q 392 36 307 71 m 581 153 q 448 176 509 153 q 348 241 388 200 q 287 336 309 282 q 265 452 265 391 q 287 568 265 513 q 348 663 309 622 q 448 728 388 704 q 581 751 509 751 q 806 667 719 751 l 693 547 q 587 589 642 589 q 491 552 527 589 q 454 456 454 515 q 492 355 454 395 q 589 315 529 315 q 655 329 625 315 q 703 361 685 343 l 817 243 q 715 177 777 201 q 581 153 653 153 z "},"ª":{"ha":644,"x_min":14,"x_max":631,"o":"m 14 454 l 210 913 l 435 913 l 631 454 l 439 454 l 400 538 l 244 538 l 205 454 l 14 454 m 281 648 l 364 648 l 322 775 l 281 648 z "},"«":{"ha":890,"x_min":14,"x_max":856,"o":"m 311 72 l 14 446 l 310 823 l 504 823 l 319 446 l 505 72 l 311 72 m 661 72 l 364 446 l 660 823 l 854 823 l 669 446 l 856 72 l 661 72 z "},"¬":{"ha":672,"x_min":69,"x_max":603,"o":"m 380 167 l 380 332 l 69 332 l 69 554 l 603 554 l 603 167 l 380 167 z "},"­":{"ha":705,"x_min":69,"x_max":636,"o":"m 69 355 l 69 585 l 636 585 l 636 355 l 69 355 z "},"®":{"ha":1144,"x_min":56,"x_max":1089,"o":"m 773 -12 q 725 -32 773 -12 q 572 -52 677 -52 q 372 -12 467 -52 q 207 95 276 28 q 97 255 138 162 q 56 450 56 348 q 97 645 56 552 q 207 805 138 738 q 372 912 276 872 q 572 951 467 951 q 773 912 677 951 q 938 805 869 872 q 1048 645 1007 738 q 1089 450 1089 552 q 1048 255 1089 348 q 938 95 1007 162 q 773 -12 869 28 m 392 36 q 435 18 392 36 q 572 0 478 0 q 752 36 667 0 q 900 132 838 71 q 998 275 962 192 q 1035 450 1035 359 q 998 625 1035 541 q 900 768 962 708 q 752 864 838 829 q 572 900 667 900 q 392 864 478 900 q 245 768 307 829 q 146 625 183 708 q 110 450 110 541 q 146 275 110 359 q 245 132 183 192 q 392 36 307 71 m 726 216 q 504 361 564 216 l 504 237 l 317 237 l 317 675 l 682 675 q 809 629 764 675 q 854 517 854 583 q 810 409 854 451 q 682 367 766 367 l 668 367 q 747 330 695 330 q 796 340 774 330 q 825 357 818 350 q 836 370 833 364 l 867 268 q 726 216 825 216 m 504 471 l 591 471 q 665 517 665 471 q 591 562 665 562 l 504 562 l 504 471 z "},"¯":{"ha":949,"x_min":164,"x_max":794,"o":"m 164 991 l 164 1118 l 794 1118 l 794 991 l 164 991 z "},"°":{"ha":633,"x_min":56,"x_max":578,"o":"m 502 497 q 464 460 502 497 q 317 424 427 424 q 131 497 207 424 q 56 679 56 570 q 131 861 56 787 q 317 935 207 935 q 502 861 427 935 q 578 679 578 787 q 502 497 578 570 m 247 609 q 261 595 247 609 q 317 581 275 581 q 387 609 358 581 q 415 679 415 637 q 387 749 415 721 q 317 778 358 778 q 247 749 275 778 q 218 679 218 721 q 247 609 218 637 z "},"±":{"ha":673,"x_min":69,"x_max":636,"o":"m 222 292 l 222 452 l 69 452 l 69 673 l 222 673 l 222 827 l 452 827 l 452 673 l 604 673 l 604 452 l 452 452 l 452 292 l 222 292 m 69 229 l 636 229 l 636 0 l 69 0 l 69 229 z "},"²":{"ha":662,"x_min":83,"x_max":642,"o":"m 104 387 l 104 534 q 367 634 290 588 q 444 724 444 680 q 421 764 444 751 q 366 778 399 778 q 303 761 326 778 q 281 718 281 744 q 292 673 281 703 l 106 673 q 83 768 83 717 q 158 897 83 843 q 364 951 232 951 q 571 899 501 951 q 642 768 642 846 q 622 688 642 728 q 573 623 602 649 q 518 580 545 597 q 472 559 490 563 l 633 559 l 633 387 l 104 387 z "},"³":{"ha":697,"x_min":83,"x_max":676,"o":"m 399 374 q 279 387 332 374 q 195 417 227 399 q 140 464 164 435 q 105 513 115 492 q 83 564 94 534 l 268 602 q 295 559 265 578 q 387 541 324 541 q 484 575 484 541 q 471 596 484 588 q 439 604 458 604 l 342 604 l 342 725 l 408 725 q 453 734 436 725 q 469 758 469 743 q 380 791 469 791 q 311 782 339 791 q 274 761 283 773 q 267 736 264 749 l 97 781 q 105 805 102 795 q 118 834 108 814 q 140 868 128 854 q 175 898 153 881 q 224 926 197 916 q 292 944 251 937 q 380 951 332 951 q 583 907 507 951 q 659 782 659 862 q 572 671 659 700 q 603 660 587 667 q 636 640 618 653 q 665 603 654 627 q 676 549 676 579 q 606 422 676 471 q 399 374 535 374 z "},"´":{"ha":639,"x_min":138,"x_max":549,"o":"m 138 1004 l 278 1197 l 549 1197 l 408 1004 l 138 1004 z "},"µ":{"ha":1140,"x_min":104,"x_max":1065,"o":"m 106 -201 l 104 913 l 424 913 l 424 408 q 468 282 424 331 q 585 233 513 233 q 701 282 656 233 q 746 408 746 331 l 746 913 l 1065 913 l 1065 422 q 1040 257 1065 332 q 969 130 1014 182 q 864 41 924 77 q 733 -12 803 5 q 587 -29 664 -29 q 495 -15 545 -29 q 424 18 446 -1 l 424 -201 l 106 -201 z "},"¶":{"ha":1169,"x_min":49,"x_max":1065,"o":"m 397 0 l 397 231 q 265 251 328 230 q 154 314 203 273 q 77 420 106 355 q 49 566 49 485 q 71 705 49 642 q 136 814 92 768 q 249 887 179 861 q 411 913 319 913 l 1065 913 l 1065 0 l 761 0 l 761 660 l 692 660 l 692 0 l 397 0 z "},"·":{"ha":361,"x_min":56,"x_max":306,"o":"m 56 339 l 56 574 l 306 574 l 306 339 l 56 339 z "},"¸":{"ha":812,"x_min":161,"x_max":590,"o":"m 218 -372 l 192 -258 l 335 -258 q 391 -251 373 -258 q 410 -216 410 -243 q 407 -200 410 -207 q 397 -190 404 -193 q 386 -183 391 -186 q 369 -180 381 -181 q 353 -179 357 -179 q 335 -179 349 -179 l 176 -179 l 161 -125 l 267 16 l 454 16 l 396 -72 q 445 -74 425 -72 q 495 -83 466 -75 q 544 -106 525 -92 q 576 -149 562 -120 q 590 -216 590 -177 q 548 -332 590 -292 q 433 -372 505 -372 l 218 -372 z "},"¹":{"ha":448,"x_min":28,"x_max":428,"o":"m 214 387 l 214 710 l 127 637 l 28 762 l 236 936 l 428 936 l 428 387 l 214 387 z "},"º":{"ha":627,"x_min":56,"x_max":572,"o":"m 500 501 q 464 465 500 501 q 314 429 428 429 q 128 501 200 429 q 56 679 56 573 q 128 857 56 785 q 314 929 200 929 q 500 857 428 929 q 572 679 572 785 q 500 501 572 573 m 245 610 q 258 597 245 610 q 314 583 271 583 q 383 610 357 583 q 408 679 408 637 q 382 748 408 722 q 314 775 357 775 q 245 748 271 775 q 220 679 220 722 q 245 610 220 637 z "},"»":{"ha":876,"x_min":14,"x_max":856,"o":"m 208 72 l 14 72 l 200 446 l 16 823 l 210 823 l 505 446 l 208 72 m 558 72 l 364 72 l 550 446 l 366 823 l 559 823 l 856 446 l 558 72 z "},"¼":{"ha":1444,"x_min":21,"x_max":1361,"o":"m 313 -79 l 724 1021 l 918 1021 l 507 -79 l 313 -79 m 207 363 l 207 685 l 121 612 l 21 737 l 229 911 l 421 911 l 421 363 l 207 363 m 1086 1 l 1086 98 l 737 98 l 737 254 l 1010 550 l 1286 550 l 1286 257 l 1361 257 l 1361 103 l 1286 103 l 1286 1 l 1086 1 m 964 257 l 1086 257 l 1086 397 l 964 257 z "},"½":{"ha":1398,"x_min":21,"x_max":1315,"o":"m 310 -79 l 721 1021 l 916 1021 l 504 -79 l 310 -79 m 207 363 l 207 685 l 121 612 l 21 737 l 229 911 l 421 911 l 421 363 l 207 363 m 778 0 l 778 147 q 1041 247 963 201 q 1118 336 1118 292 q 1095 377 1118 363 q 1039 390 1072 390 q 977 373 1000 390 q 954 330 954 356 q 965 286 954 315 l 779 286 q 757 380 757 330 q 775 448 757 416 q 827 506 793 480 q 915 548 861 532 q 1038 564 970 564 q 1245 511 1175 564 q 1315 380 1315 458 q 1295 300 1315 340 q 1247 235 1275 261 q 1192 192 1219 209 q 1146 172 1164 176 l 1307 172 l 1307 0 l 778 0 z "},"¾":{"ha":1621,"x_min":21,"x_max":1524,"o":"m 481 -79 l 892 1021 l 1086 1021 l 675 -79 l 481 -79 m 336 350 q 217 363 269 350 q 133 394 164 376 q 77 440 102 412 q 42 490 53 469 q 21 541 32 511 l 205 578 q 232 536 203 555 q 325 517 262 517 q 421 551 421 517 q 408 572 421 564 q 376 581 395 581 l 279 581 l 279 701 l 346 701 q 390 710 374 701 q 407 734 407 720 q 318 768 407 768 q 249 759 277 768 q 212 738 221 750 q 204 713 202 726 l 35 757 q 42 781 39 772 q 56 811 45 791 q 78 844 66 831 q 112 874 90 857 q 161 902 134 892 q 229 920 189 913 q 318 928 270 928 q 520 883 444 928 q 596 758 596 838 q 510 647 596 676 q 540 636 525 644 q 573 616 555 629 q 603 579 591 603 q 614 525 614 555 q 543 399 614 448 q 336 350 473 350 m 1249 1 l 1249 98 l 895 98 l 895 254 l 1173 550 l 1449 550 l 1449 257 l 1524 257 l 1524 103 l 1449 103 l 1449 1 l 1249 1 m 1126 257 l 1249 257 l 1249 397 l 1126 257 z "},"¿":{"ha":797,"x_min":41,"x_max":766,"o":"m 628 913 l 628 730 l 310 730 l 310 913 l 628 913 m 628 669 l 628 372 q 501 382 587 382 q 373 360 423 382 q 322 306 322 338 q 369 254 322 275 q 498 232 416 232 q 682 267 589 232 l 766 35 q 628 -15 720 8 q 436 -37 536 -37 q 315 -26 372 -37 q 207 8 258 -16 q 120 68 157 33 q 63 157 84 104 q 41 277 41 211 q 60 387 41 338 q 106 467 78 436 q 171 518 134 497 q 242 547 208 539 q 310 555 277 555 l 310 669 l 628 669 z "},"À":{"ha":1217,"x_min":14,"x_max":1203,"o":"m 482 1004 l 330 1197 l 602 1197 l 742 1004 l 482 1004 m 14 0 l 422 913 l 794 913 l 1203 0 l 850 0 l 806 110 l 411 110 l 367 0 l 14 0 m 513 359 l 704 359 l 610 597 l 607 597 l 513 359 z "},"Á":{"ha":1217,"x_min":14,"x_max":1203,"o":"m 458 1260 l 599 1453 l 869 1453 l 729 1260 l 458 1260 m 14 0 l 422 913 l 794 913 l 1203 0 l 850 0 l 806 110 l 411 110 l 367 0 l 14 0 m 513 359 l 704 359 l 610 597 l 607 597 l 513 359 z "},"Â":{"ha":1217,"x_min":14,"x_max":1203,"o":"m 281 1004 l 452 1197 l 785 1197 l 937 1004 l 667 1004 l 608 1069 l 551 1004 l 281 1004 m 14 0 l 422 913 l 794 913 l 1203 0 l 850 0 l 806 110 l 411 110 l 367 0 l 14 0 m 513 359 l 704 359 l 610 597 l 607 597 l 513 359 z "},"Ã":{"ha":1217,"x_min":14,"x_max":1203,"o":"m 343 989 l 250 1128 q 335 1197 279 1166 q 457 1229 392 1229 q 545 1218 505 1229 q 609 1196 586 1208 q 664 1173 633 1183 q 725 1162 694 1162 q 809 1185 768 1163 q 872 1232 850 1206 l 965 1093 q 870 1023 927 1055 q 765 991 814 991 q 672 1002 714 991 q 606 1025 629 1013 q 551 1048 582 1038 q 490 1059 521 1059 q 406 1036 447 1058 q 343 989 366 1015 m 14 0 l 422 913 l 794 913 l 1203 0 l 850 0 l 806 110 l 411 110 l 367 0 l 14 0 m 513 359 l 704 359 l 610 597 l 607 597 l 513 359 z "},"Ä":{"ha":1217,"x_min":14,"x_max":1203,"o":"m 297 991 l 297 1169 l 553 1169 l 553 991 l 297 991 m 664 991 l 664 1169 l 920 1169 l 920 991 l 664 991 m 14 0 l 422 913 l 794 913 l 1203 0 l 850 0 l 806 110 l 411 110 l 367 0 l 14 0 m 513 359 l 704 359 l 610 597 l 607 597 l 513 359 z "},"Å":{"ha":1217,"x_min":14,"x_max":1203,"o":"m 794 913 l 1203 0 l 850 0 l 806 110 l 411 110 l 367 0 l 14 0 l 422 913 l 447 913 q 407 1034 407 962 q 464 1171 407 1120 q 608 1222 520 1222 q 754 1171 698 1222 q 810 1034 810 1120 q 770 913 810 959 l 794 913 m 659 1080 q 649 1089 659 1080 q 608 1099 640 1099 q 558 1080 577 1099 q 539 1034 539 1061 q 558 987 539 1006 q 608 968 577 968 q 659 987 640 968 q 677 1034 677 1006 q 659 1080 677 1061 m 513 359 l 704 359 l 610 597 l 607 597 l 513 359 z "},"Æ":{"ha":1564,"x_min":14,"x_max":1480,"o":"m 1480 648 l 911 648 l 947 568 l 1425 568 l 1425 350 l 1044 350 l 1083 264 l 1480 264 l 1480 0 l 847 0 l 803 110 l 411 110 l 367 0 l 14 0 l 422 913 l 1480 913 l 1480 648 m 511 359 l 703 359 l 607 597 l 511 359 z "},"Ç":{"ha":1043,"x_min":56,"x_max":991,"o":"m 652 -71 q 701 -72 680 -71 q 751 -82 722 -74 q 799 -104 781 -90 q 832 -147 818 -119 q 846 -215 846 -176 q 803 -331 846 -290 q 689 -371 761 -371 l 473 -371 l 447 -257 l 590 -257 q 647 -249 628 -257 q 665 -215 665 -241 q 660 -196 665 -204 q 649 -185 655 -189 q 631 -180 644 -182 q 612 -178 618 -178 q 590 -178 606 -178 l 432 -178 l 416 -123 l 489 -28 q 256 62 355 -8 q 106 233 157 132 q 56 453 56 334 q 93 645 56 555 q 197 802 130 734 q 366 909 264 870 q 590 949 467 949 q 972 807 824 949 l 781 608 q 698 660 737 642 q 602 677 659 677 q 437 617 499 677 q 375 458 375 556 q 438 298 375 361 q 604 236 502 236 q 717 259 667 236 q 798 313 767 282 l 991 115 q 679 -29 873 -3 l 652 -71 z "},"È":{"ha":1048,"x_min":104,"x_max":965,"o":"m 408 1004 l 257 1197 l 528 1197 l 668 1004 l 408 1004 m 104 0 l 104 913 l 965 913 l 965 648 l 424 648 l 424 561 l 882 561 l 882 357 l 424 357 l 424 264 l 965 264 l 965 0 l 104 0 z "},"É":{"ha":1048,"x_min":104,"x_max":965,"o":"m 386 1004 l 526 1197 l 798 1197 l 657 1004 l 386 1004 m 104 0 l 104 913 l 965 913 l 965 648 l 424 648 l 424 561 l 882 561 l 882 357 l 424 357 l 424 264 l 965 264 l 965 0 l 104 0 z "},"Ê":{"ha":1048,"x_min":104,"x_max":965,"o":"m 207 1004 l 378 1197 l 711 1197 l 864 1004 l 593 1004 l 534 1069 l 478 1004 l 207 1004 m 104 0 l 104 913 l 965 913 l 965 648 l 424 648 l 424 561 l 882 561 l 882 357 l 424 357 l 424 264 l 965 264 l 965 0 l 104 0 z "},"Ë":{"ha":1048,"x_min":104,"x_max":965,"o":"m 224 991 l 224 1169 l 479 1169 l 479 991 l 224 991 m 590 991 l 590 1169 l 846 1169 l 846 991 l 590 991 m 104 0 l 104 913 l 965 913 l 965 648 l 424 648 l 424 561 l 882 561 l 882 357 l 424 357 l 424 264 l 965 264 l 965 0 l 104 0 z "},"Ì":{"ha":528,"x_min":-12,"x_max":424,"o":"m 139 1004 l -12 1197 l 258 1197 l 399 1004 l 139 1004 m 104 0 l 104 913 l 424 913 l 424 0 l 104 0 z "},"Í":{"ha":528,"x_min":104,"x_max":528,"o":"m 117 1004 l 257 1197 l 528 1197 l 387 1004 l 117 1004 m 104 0 l 104 913 l 424 913 l 424 0 l 104 0 z "},"Î":{"ha":528,"x_min":-62,"x_max":595,"o":"m -62 1004 l 109 1197 l 441 1197 l 595 1004 l 323 1004 l 265 1069 l 208 1004 l -62 1004 m 104 0 l 104 913 l 424 913 l 424 0 l 104 0 z "},"Ï":{"ha":528,"x_min":-46,"x_max":576,"o":"m -46 991 l -46 1169 l 210 1169 l 210 991 l -46 991 m 321 991 l 321 1169 l 576 1169 l 576 991 l 321 991 m 104 0 l 104 913 l 424 913 l 424 0 l 104 0 z "},"Ð":{"ha":1127,"x_min":-8,"x_max":1072,"o":"m 103 0 l 103 338 l -8 338 l -8 567 l 103 567 l 103 913 l 595 913 q 850 856 742 913 q 1016 695 959 798 q 1072 456 1072 592 q 945 123 1072 245 q 595 0 818 0 l 103 0 m 422 264 l 553 264 q 701 315 644 264 q 757 471 757 366 q 700 603 757 558 q 553 648 642 648 l 422 648 l 422 567 l 525 567 l 525 338 l 422 338 l 422 264 z "},"Ñ":{"ha":1156,"x_min":104,"x_max":1053,"o":"m 314 989 l 221 1128 q 306 1197 250 1166 q 428 1229 363 1229 q 516 1218 475 1229 q 580 1196 557 1208 q 634 1173 604 1183 q 696 1162 665 1162 q 780 1185 739 1163 q 843 1232 821 1206 l 936 1093 q 841 1023 898 1055 q 736 991 785 991 q 643 1002 685 991 q 576 1025 600 1013 q 522 1048 553 1038 q 461 1059 492 1059 q 377 1036 418 1058 q 314 989 336 1015 m 104 0 l 104 913 l 376 913 l 733 481 l 733 913 l 1053 913 l 1053 0 l 781 0 l 424 422 l 424 0 l 104 0 z "},"Ò":{"ha":1180,"x_min":56,"x_max":1125,"o":"m 464 1004 l 313 1197 l 583 1197 l 724 1004 l 464 1004 m 590 -35 q 407 -9 492 -35 q 258 61 321 16 q 148 167 194 106 q 79 302 102 229 q 56 457 56 376 q 79 612 56 538 q 148 747 102 686 q 258 853 194 808 q 407 924 321 899 q 590 949 492 949 q 814 910 712 949 q 983 805 916 871 q 1088 648 1050 738 q 1125 457 1125 559 q 1088 266 1125 355 q 983 110 1050 176 q 814 4 916 43 q 590 -35 712 -35 m 435 293 q 465 261 435 293 q 590 229 495 229 q 745 293 685 229 q 806 457 806 357 q 745 621 806 557 q 590 685 685 685 q 435 621 495 685 q 375 457 375 557 q 435 293 375 357 z "},"Ó":{"ha":1180,"x_min":56,"x_max":1125,"o":"m 441 1004 l 582 1197 l 852 1197 l 713 1004 l 441 1004 m 590 -35 q 407 -9 492 -35 q 258 61 321 16 q 148 167 194 106 q 79 302 102 229 q 56 457 56 376 q 79 612 56 538 q 148 747 102 686 q 258 853 194 808 q 407 924 321 899 q 590 949 492 949 q 814 910 712 949 q 983 805 916 871 q 1088 648 1050 738 q 1125 457 1125 559 q 1088 266 1125 355 q 983 110 1050 176 q 814 4 916 43 q 590 -35 712 -35 m 435 293 q 465 261 435 293 q 590 229 495 229 q 745 293 685 229 q 806 457 806 357 q 745 621 806 557 q 590 685 685 685 q 435 621 495 685 q 375 457 375 557 q 435 293 375 357 z "},"Ô":{"ha":1180,"x_min":56,"x_max":1125,"o":"m 262 1004 l 433 1197 l 766 1197 l 920 1004 l 648 1004 l 590 1069 l 533 1004 l 262 1004 m 590 -35 q 407 -9 492 -35 q 258 61 321 16 q 148 167 194 106 q 79 302 102 229 q 56 457 56 376 q 79 612 56 538 q 148 747 102 686 q 258 853 194 808 q 407 924 321 899 q 590 949 492 949 q 814 910 712 949 q 983 805 916 871 q 1088 648 1050 738 q 1125 457 1125 559 q 1088 266 1125 355 q 983 110 1050 176 q 814 4 916 43 q 590 -35 712 -35 m 435 293 q 465 261 435 293 q 590 229 495 229 q 745 293 685 229 q 806 457 806 357 q 745 621 806 557 q 590 685 685 685 q 435 621 495 685 q 375 457 375 557 q 435 293 375 357 z "},"Õ":{"ha":1180,"x_min":56,"x_max":1125,"o":"m 325 989 l 232 1128 q 317 1197 260 1166 q 439 1229 374 1229 q 527 1218 486 1229 q 591 1196 568 1208 q 645 1173 614 1183 q 707 1162 676 1162 q 791 1185 751 1163 q 854 1232 832 1206 l 947 1093 q 853 1023 909 1055 q 747 991 796 991 q 654 1002 696 991 q 588 1025 611 1013 q 533 1048 564 1038 q 472 1059 503 1059 q 388 1036 429 1058 q 325 989 347 1015 m 590 -35 q 407 -9 492 -35 q 258 61 321 16 q 148 167 194 106 q 79 302 102 229 q 56 457 56 376 q 79 612 56 538 q 148 747 102 686 q 258 853 194 808 q 407 924 321 899 q 590 949 492 949 q 814 910 712 949 q 983 805 916 871 q 1088 648 1050 738 q 1125 457 1125 559 q 1088 266 1125 355 q 983 110 1050 176 q 814 4 916 43 q 590 -35 712 -35 m 435 293 q 465 261 435 293 q 590 229 495 229 q 745 293 685 229 q 806 457 806 357 q 745 621 806 557 q 590 685 685 685 q 435 621 495 685 q 375 457 375 557 q 435 293 375 357 z "},"Ö":{"ha":1180,"x_min":56,"x_max":1125,"o":"m 279 991 l 279 1169 l 534 1169 l 534 991 l 279 991 m 646 991 l 646 1169 l 901 1169 l 901 991 l 646 991 m 590 -35 q 407 -9 492 -35 q 258 61 321 16 q 148 167 194 106 q 79 302 102 229 q 56 457 56 376 q 79 612 56 538 q 148 747 102 686 q 258 853 194 808 q 407 924 321 899 q 590 949 492 949 q 814 910 712 949 q 983 805 916 871 q 1088 648 1050 738 q 1125 457 1125 559 q 1088 266 1125 355 q 983 110 1050 176 q 814 4 916 43 q 590 -35 712 -35 m 435 293 q 465 261 435 293 q 590 229 495 229 q 745 293 685 229 q 806 457 806 357 q 745 621 806 557 q 590 685 685 685 q 435 621 495 685 q 375 457 375 557 q 435 293 375 357 z "},"×":{"ha":594,"x_min":28,"x_max":567,"o":"m 191 200 l 28 363 l 135 469 l 28 578 l 191 741 l 297 633 l 404 741 l 567 578 l 460 469 l 567 363 l 404 200 l 297 307 l 191 200 z "},"Ø":{"ha":1180,"x_min":56,"x_max":1125,"o":"m 1010 775 q 1096 630 1066 712 q 1125 457 1125 548 q 1088 266 1125 355 q 983 110 1050 176 q 814 4 916 43 q 590 -35 712 -35 q 293 39 418 -35 l 207 -50 l 102 53 l 178 131 q 56 457 56 265 q 79 612 56 538 q 148 747 102 686 q 258 853 194 808 q 407 924 321 899 q 590 949 492 949 q 896 871 765 949 l 989 965 l 1095 863 l 1010 775 m 375 457 q 395 354 375 403 l 693 661 q 590 685 647 685 q 435 621 495 685 q 375 457 375 557 m 590 229 q 745 293 685 229 q 806 457 806 357 q 789 549 806 505 l 497 249 q 590 229 542 229 z "},"Ù":{"ha":1111,"x_min":75,"x_max":1036,"o":"m 429 1018 l 278 1211 l 549 1211 l 689 1018 l 429 1018 m 704 -13 q 668 -22 704 -13 q 555 -32 633 -32 q 407 -13 478 -32 q 275 46 336 7 q 170 140 215 85 q 100 273 125 196 q 75 441 75 351 l 75 913 l 395 913 l 395 428 q 439 302 395 352 q 555 253 484 253 q 672 302 627 253 q 717 428 717 352 l 717 913 l 1036 913 l 1036 441 q 1011 273 1036 351 q 941 140 985 196 q 836 46 897 85 q 704 -13 775 7 z "},"Ú":{"ha":1111,"x_min":75,"x_max":1036,"o":"m 407 1018 l 547 1211 l 818 1211 l 677 1018 l 407 1018 m 704 -13 q 668 -22 704 -13 q 555 -32 633 -32 q 407 -13 478 -32 q 275 46 336 7 q 170 140 215 85 q 100 273 125 196 q 75 441 75 351 l 75 913 l 395 913 l 395 428 q 439 302 395 352 q 555 253 484 253 q 672 302 627 253 q 717 428 717 352 l 717 913 l 1036 913 l 1036 441 q 1011 273 1036 351 q 941 140 985 196 q 836 46 897 85 q 704 -13 775 7 z "},"Û":{"ha":1111,"x_min":75,"x_max":1036,"o":"m 228 1018 l 399 1211 l 732 1211 l 885 1018 l 614 1018 l 555 1083 l 498 1018 l 228 1018 m 704 -13 q 668 -22 704 -13 q 555 -32 633 -32 q 407 -13 478 -32 q 275 46 336 7 q 170 140 215 85 q 100 273 125 196 q 75 441 75 351 l 75 913 l 395 913 l 395 428 q 439 302 395 352 q 555 253 484 253 q 672 302 627 253 q 717 428 717 352 l 717 913 l 1036 913 l 1036 441 q 1011 273 1036 351 q 941 140 985 196 q 836 46 897 85 q 704 -13 775 7 z "},"Ü":{"ha":1111,"x_min":75,"x_max":1036,"o":"m 244 1006 l 244 1183 l 500 1183 l 500 1006 l 244 1006 m 611 1006 l 611 1183 l 867 1183 l 867 1006 l 611 1006 m 704 -13 q 668 -22 704 -13 q 555 -32 633 -32 q 407 -13 478 -32 q 275 46 336 7 q 170 140 215 85 q 100 273 125 196 q 75 441 75 351 l 75 913 l 395 913 l 395 428 q 439 302 395 352 q 555 253 484 253 q 672 302 627 253 q 717 428 717 352 l 717 913 l 1036 913 l 1036 441 q 1011 273 1036 351 q 941 140 985 196 q 836 46 897 85 q 704 -13 775 7 z "},"Ý":{"ha":1094,"x_min":14,"x_max":1080,"o":"m 399 1004 l 539 1197 l 810 1197 l 669 1004 l 399 1004 m 386 0 l 386 265 l 14 913 l 367 913 l 547 583 l 725 913 l 1080 913 l 705 265 l 705 0 l 386 0 z "},"Þ":{"ha":1093,"x_min":104,"x_max":1065,"o":"m 104 0 l 106 913 l 421 913 l 421 802 l 703 802 q 969 707 873 802 q 1065 457 1065 612 q 970 211 1065 302 q 703 119 874 119 l 424 119 l 424 0 l 104 0 m 424 370 l 669 370 q 729 390 702 370 q 757 457 757 410 q 748 503 757 484 q 725 533 739 523 q 697 547 711 543 q 669 551 683 551 l 424 551 l 424 370 z "},"ß":{"ha":1864,"x_min":56,"x_max":1808,"o":"m 475 -33 q 234 5 349 -33 q 56 92 119 44 l 158 313 q 309 245 219 275 q 482 215 399 215 q 564 228 537 215 q 591 262 591 241 q 586 280 591 272 q 568 294 581 288 q 542 305 555 300 q 507 315 530 310 q 467 323 484 320 q 420 332 450 326 q 371 340 389 337 q 284 361 323 350 q 204 394 246 373 q 135 444 163 416 q 90 515 108 471 q 72 612 72 558 q 181 847 72 755 q 473 939 291 939 q 689 900 589 939 q 840 815 789 862 l 730 616 q 603 668 678 645 q 461 692 528 692 q 377 679 407 692 q 347 644 347 666 q 391 607 347 621 q 578 566 435 593 q 631 555 611 559 q 687 539 652 550 q 744 515 722 528 q 794 482 767 503 q 838 435 822 460 q 865 372 854 410 q 876 290 876 335 q 770 55 876 143 q 475 -33 664 -33 m 1407 -33 q 1166 5 1282 -33 q 987 92 1050 44 l 1090 313 q 1242 245 1152 275 q 1414 215 1332 215 q 1496 228 1469 215 q 1524 262 1524 241 q 1518 280 1524 272 q 1500 294 1513 288 q 1475 305 1487 300 q 1439 315 1462 310 q 1399 323 1415 320 q 1352 332 1382 326 q 1303 340 1321 337 q 1216 361 1255 350 q 1137 394 1178 373 q 1068 444 1095 416 q 1022 515 1040 471 q 1004 612 1004 558 q 1114 847 1004 755 q 1406 939 1223 939 q 1621 900 1521 939 q 1772 815 1721 862 l 1662 616 q 1535 668 1610 645 q 1393 692 1459 692 q 1309 679 1339 692 q 1279 644 1279 666 q 1323 607 1279 621 q 1510 566 1367 593 q 1563 555 1543 559 q 1618 539 1584 550 q 1676 515 1653 528 q 1726 482 1699 503 q 1770 435 1754 460 q 1797 372 1786 410 q 1808 290 1808 335 q 1702 55 1808 143 q 1407 -33 1596 -33 z "},"à":{"ha":1217,"x_min":14,"x_max":1203,"o":"m 482 1004 l 330 1197 l 602 1197 l 742 1004 l 482 1004 m 14 0 l 422 913 l 794 913 l 1203 0 l 850 0 l 806 110 l 411 110 l 367 0 l 14 0 m 513 359 l 704 359 l 610 597 l 607 597 l 513 359 z "},"á":{"ha":1217,"x_min":14,"x_max":1203,"o":"m 458 1260 l 599 1453 l 869 1453 l 729 1260 l 458 1260 m 14 0 l 422 913 l 794 913 l 1203 0 l 850 0 l 806 110 l 411 110 l 367 0 l 14 0 m 513 359 l 704 359 l 610 597 l 607 597 l 513 359 z "},"â":{"ha":1217,"x_min":14,"x_max":1203,"o":"m 281 1004 l 452 1197 l 785 1197 l 937 1004 l 667 1004 l 608 1069 l 551 1004 l 281 1004 m 14 0 l 422 913 l 794 913 l 1203 0 l 850 0 l 806 110 l 411 110 l 367 0 l 14 0 m 513 359 l 704 359 l 610 597 l 607 597 l 513 359 z "},"ã":{"ha":1217,"x_min":14,"x_max":1203,"o":"m 343 989 l 250 1128 q 335 1197 279 1166 q 457 1229 392 1229 q 545 1218 505 1229 q 609 1196 586 1208 q 664 1173 633 1183 q 725 1162 694 1162 q 809 1185 768 1163 q 872 1232 850 1206 l 965 1093 q 870 1023 927 1055 q 765 991 814 991 q 672 1002 714 991 q 606 1025 629 1013 q 551 1048 582 1038 q 490 1059 521 1059 q 406 1036 447 1058 q 343 989 366 1015 m 14 0 l 422 913 l 794 913 l 1203 0 l 850 0 l 806 110 l 411 110 l 367 0 l 14 0 m 513 359 l 704 359 l 610 597 l 607 597 l 513 359 z "},"ä":{"ha":1217,"x_min":14,"x_max":1203,"o":"m 297 991 l 297 1169 l 553 1169 l 553 991 l 297 991 m 664 991 l 664 1169 l 920 1169 l 920 991 l 664 991 m 14 0 l 422 913 l 794 913 l 1203 0 l 850 0 l 806 110 l 411 110 l 367 0 l 14 0 m 513 359 l 704 359 l 610 597 l 607 597 l 513 359 z "},"å":{"ha":1217,"x_min":14,"x_max":1203,"o":"m 794 913 l 1203 0 l 850 0 l 806 110 l 411 110 l 367 0 l 14 0 l 422 913 l 447 913 q 407 1034 407 962 q 464 1171 407 1120 q 608 1222 520 1222 q 754 1171 698 1222 q 810 1034 810 1120 q 770 913 810 959 l 794 913 m 659 1080 q 649 1089 659 1080 q 608 1099 640 1099 q 558 1080 577 1099 q 539 1034 539 1061 q 558 987 539 1006 q 608 968 577 968 q 659 987 640 968 q 677 1034 677 1006 q 659 1080 677 1061 m 513 359 l 704 359 l 610 597 l 607 597 l 513 359 z "},"æ":{"ha":1564,"x_min":14,"x_max":1480,"o":"m 1480 648 l 911 648 l 947 568 l 1425 568 l 1425 350 l 1044 350 l 1083 264 l 1480 264 l 1480 0 l 847 0 l 803 110 l 411 110 l 367 0 l 14 0 l 422 913 l 1480 913 l 1480 648 m 511 359 l 703 359 l 607 597 l 511 359 z "},"ç":{"ha":1043,"x_min":56,"x_max":991,"o":"m 652 -71 q 701 -72 680 -71 q 751 -82 722 -74 q 799 -104 781 -90 q 832 -147 818 -119 q 846 -215 846 -176 q 803 -331 846 -290 q 689 -371 761 -371 l 473 -371 l 447 -257 l 590 -257 q 647 -249 628 -257 q 665 -215 665 -241 q 660 -196 665 -204 q 649 -185 655 -189 q 631 -180 644 -182 q 612 -178 618 -178 q 590 -178 606 -178 l 432 -178 l 416 -123 l 489 -28 q 256 62 355 -8 q 106 233 157 132 q 56 453 56 334 q 93 645 56 555 q 197 802 130 734 q 366 909 264 870 q 590 949 467 949 q 972 807 824 949 l 781 608 q 698 660 737 642 q 602 677 659 677 q 437 617 499 677 q 375 458 375 556 q 438 298 375 361 q 604 236 502 236 q 717 259 667 236 q 798 313 767 282 l 991 115 q 679 -29 873 -3 l 652 -71 z "},"è":{"ha":1048,"x_min":104,"x_max":965,"o":"m 408 1004 l 257 1197 l 528 1197 l 668 1004 l 408 1004 m 104 0 l 104 913 l 965 913 l 965 648 l 424 648 l 424 561 l 882 561 l 882 357 l 424 357 l 424 264 l 965 264 l 965 0 l 104 0 z "},"é":{"ha":1048,"x_min":104,"x_max":965,"o":"m 386 1004 l 526 1197 l 798 1197 l 657 1004 l 386 1004 m 104 0 l 104 913 l 965 913 l 965 648 l 424 648 l 424 561 l 882 561 l 882 357 l 424 357 l 424 264 l 965 264 l 965 0 l 104 0 z "},"ê":{"ha":1048,"x_min":104,"x_max":965,"o":"m 207 1004 l 378 1197 l 711 1197 l 864 1004 l 593 1004 l 534 1069 l 478 1004 l 207 1004 m 104 0 l 104 913 l 965 913 l 965 648 l 424 648 l 424 561 l 882 561 l 882 357 l 424 357 l 424 264 l 965 264 l 965 0 l 104 0 z "},"ë":{"ha":1048,"x_min":104,"x_max":965,"o":"m 224 991 l 224 1169 l 479 1169 l 479 991 l 224 991 m 590 991 l 590 1169 l 846 1169 l 846 991 l 590 991 m 104 0 l 104 913 l 965 913 l 965 648 l 424 648 l 424 561 l 882 561 l 882 357 l 424 357 l 424 264 l 965 264 l 965 0 l 104 0 z "},"ì":{"ha":528,"x_min":-12,"x_max":424,"o":"m 139 1004 l -12 1197 l 258 1197 l 399 1004 l 139 1004 m 104 0 l 104 913 l 424 913 l 424 0 l 104 0 z "},"í":{"ha":528,"x_min":104,"x_max":528,"o":"m 117 1004 l 257 1197 l 528 1197 l 387 1004 l 117 1004 m 104 0 l 104 913 l 424 913 l 424 0 l 104 0 z "},"î":{"ha":528,"x_min":-62,"x_max":595,"o":"m -62 1004 l 109 1197 l 441 1197 l 595 1004 l 323 1004 l 265 1069 l 208 1004 l -62 1004 m 104 0 l 104 913 l 424 913 l 424 0 l 104 0 z "},"ï":{"ha":528,"x_min":-46,"x_max":576,"o":"m -46 991 l -46 1169 l 210 1169 l 210 991 l -46 991 m 321 991 l 321 1169 l 576 1169 l 576 991 l 321 991 m 104 0 l 104 913 l 424 913 l 424 0 l 104 0 z "},"ð":{"ha":1127,"x_min":-8,"x_max":1072,"o":"m 103 0 l 103 338 l -8 338 l -8 567 l 103 567 l 103 913 l 595 913 q 850 856 742 913 q 1016 695 959 798 q 1072 456 1072 592 q 945 123 1072 245 q 595 0 818 0 l 103 0 m 422 264 l 553 264 q 701 315 644 264 q 757 471 757 366 q 700 603 757 558 q 553 648 642 648 l 422 648 l 422 567 l 525 567 l 525 338 l 422 338 l 422 264 z "},"ñ":{"ha":1156,"x_min":104,"x_max":1053,"o":"m 314 989 l 221 1128 q 306 1197 250 1166 q 428 1229 363 1229 q 516 1218 475 1229 q 580 1196 557 1208 q 634 1173 604 1183 q 696 1162 665 1162 q 780 1185 739 1163 q 843 1232 821 1206 l 936 1093 q 841 1023 898 1055 q 736 991 785 991 q 643 1002 685 991 q 576 1025 600 1013 q 522 1048 553 1038 q 461 1059 492 1059 q 377 1036 418 1058 q 314 989 336 1015 m 104 0 l 104 913 l 376 913 l 733 481 l 733 913 l 1053 913 l 1053 0 l 781 0 l 424 422 l 424 0 l 104 0 z "},"ò":{"ha":1180,"x_min":56,"x_max":1125,"o":"m 464 1004 l 313 1197 l 583 1197 l 724 1004 l 464 1004 m 590 -35 q 407 -9 492 -35 q 258 61 321 16 q 148 167 194 106 q 79 302 102 229 q 56 457 56 376 q 79 612 56 538 q 148 747 102 686 q 258 853 194 808 q 407 924 321 899 q 590 949 492 949 q 814 910 712 949 q 983 805 916 871 q 1088 648 1050 738 q 1125 457 1125 559 q 1088 266 1125 355 q 983 110 1050 176 q 814 4 916 43 q 590 -35 712 -35 m 435 293 q 465 261 435 293 q 590 229 495 229 q 745 293 685 229 q 806 457 806 357 q 745 621 806 557 q 590 685 685 685 q 435 621 495 685 q 375 457 375 557 q 435 293 375 357 z "},"ó":{"ha":1180,"x_min":56,"x_max":1125,"o":"m 441 1004 l 582 1197 l 852 1197 l 713 1004 l 441 1004 m 590 -35 q 407 -9 492 -35 q 258 61 321 16 q 148 167 194 106 q 79 302 102 229 q 56 457 56 376 q 79 612 56 538 q 148 747 102 686 q 258 853 194 808 q 407 924 321 899 q 590 949 492 949 q 814 910 712 949 q 983 805 916 871 q 1088 648 1050 738 q 1125 457 1125 559 q 1088 266 1125 355 q 983 110 1050 176 q 814 4 916 43 q 590 -35 712 -35 m 435 293 q 465 261 435 293 q 590 229 495 229 q 745 293 685 229 q 806 457 806 357 q 745 621 806 557 q 590 685 685 685 q 435 621 495 685 q 375 457 375 557 q 435 293 375 357 z "},"ô":{"ha":1180,"x_min":56,"x_max":1125,"o":"m 262 1004 l 433 1197 l 766 1197 l 920 1004 l 648 1004 l 590 1069 l 533 1004 l 262 1004 m 590 -35 q 407 -9 492 -35 q 258 61 321 16 q 148 167 194 106 q 79 302 102 229 q 56 457 56 376 q 79 612 56 538 q 148 747 102 686 q 258 853 194 808 q 407 924 321 899 q 590 949 492 949 q 814 910 712 949 q 983 805 916 871 q 1088 648 1050 738 q 1125 457 1125 559 q 1088 266 1125 355 q 983 110 1050 176 q 814 4 916 43 q 590 -35 712 -35 m 435 293 q 465 261 435 293 q 590 229 495 229 q 745 293 685 229 q 806 457 806 357 q 745 621 806 557 q 590 685 685 685 q 435 621 495 685 q 375 457 375 557 q 435 293 375 357 z "},"õ":{"ha":1180,"x_min":56,"x_max":1125,"o":"m 325 989 l 232 1128 q 317 1197 260 1166 q 439 1229 374 1229 q 527 1218 486 1229 q 591 1196 568 1208 q 645 1173 614 1183 q 707 1162 676 1162 q 791 1185 751 1163 q 854 1232 832 1206 l 947 1093 q 853 1023 909 1055 q 747 991 796 991 q 654 1002 696 991 q 588 1025 611 1013 q 533 1048 564 1038 q 472 1059 503 1059 q 388 1036 429 1058 q 325 989 347 1015 m 590 -35 q 407 -9 492 -35 q 258 61 321 16 q 148 167 194 106 q 79 302 102 229 q 56 457 56 376 q 79 612 56 538 q 148 747 102 686 q 258 853 194 808 q 407 924 321 899 q 590 949 492 949 q 814 910 712 949 q 983 805 916 871 q 1088 648 1050 738 q 1125 457 1125 559 q 1088 266 1125 355 q 983 110 1050 176 q 814 4 916 43 q 590 -35 712 -35 m 435 293 q 465 261 435 293 q 590 229 495 229 q 745 293 685 229 q 806 457 806 357 q 745 621 806 557 q 590 685 685 685 q 435 621 495 685 q 375 457 375 557 q 435 293 375 357 z "},"ö":{"ha":1180,"x_min":56,"x_max":1125,"o":"m 279 991 l 279 1169 l 534 1169 l 534 991 l 279 991 m 646 991 l 646 1169 l 901 1169 l 901 991 l 646 991 m 590 -35 q 407 -9 492 -35 q 258 61 321 16 q 148 167 194 106 q 79 302 102 229 q 56 457 56 376 q 79 612 56 538 q 148 747 102 686 q 258 853 194 808 q 407 924 321 899 q 590 949 492 949 q 814 910 712 949 q 983 805 916 871 q 1088 648 1050 738 q 1125 457 1125 559 q 1088 266 1125 355 q 983 110 1050 176 q 814 4 916 43 q 590 -35 712 -35 m 435 293 q 465 261 435 293 q 590 229 495 229 q 745 293 685 229 q 806 457 806 357 q 745 621 806 557 q 590 685 685 685 q 435 621 495 685 q 375 457 375 557 q 435 293 375 357 z "},"÷":{"ha":705,"x_min":69,"x_max":636,"o":"m 233 559 l 233 786 l 473 786 l 473 559 l 233 559 m 69 277 l 69 505 l 636 505 l 636 277 l 69 277 m 233 0 l 233 227 l 473 227 l 473 0 l 233 0 z "},"ø":{"ha":1180,"x_min":56,"x_max":1125,"o":"m 1010 775 q 1096 630 1066 712 q 1125 457 1125 548 q 1088 266 1125 355 q 983 110 1050 176 q 814 4 916 43 q 590 -35 712 -35 q 293 39 418 -35 l 207 -50 l 102 53 l 178 131 q 56 457 56 265 q 79 612 56 538 q 148 747 102 686 q 258 853 194 808 q 407 924 321 899 q 590 949 492 949 q 896 871 765 949 l 989 965 l 1095 863 l 1010 775 m 375 457 q 395 354 375 403 l 693 661 q 590 685 647 685 q 435 621 495 685 q 375 457 375 557 m 590 229 q 745 293 685 229 q 806 457 806 357 q 789 549 806 505 l 497 249 q 590 229 542 229 z "},"ù":{"ha":1111,"x_min":75,"x_max":1036,"o":"m 429 1018 l 278 1211 l 549 1211 l 689 1018 l 429 1018 m 704 -13 q 668 -22 704 -13 q 555 -32 633 -32 q 407 -13 478 -32 q 275 46 336 7 q 170 140 215 85 q 100 273 125 196 q 75 441 75 351 l 75 913 l 395 913 l 395 428 q 439 302 395 352 q 555 253 484 253 q 672 302 627 253 q 717 428 717 352 l 717 913 l 1036 913 l 1036 441 q 1011 273 1036 351 q 941 140 985 196 q 836 46 897 85 q 704 -13 775 7 z "},"ú":{"ha":1111,"x_min":75,"x_max":1036,"o":"m 407 1018 l 547 1211 l 818 1211 l 677 1018 l 407 1018 m 704 -13 q 668 -22 704 -13 q 555 -32 633 -32 q 407 -13 478 -32 q 275 46 336 7 q 170 140 215 85 q 100 273 125 196 q 75 441 75 351 l 75 913 l 395 913 l 395 428 q 439 302 395 352 q 555 253 484 253 q 672 302 627 253 q 717 428 717 352 l 717 913 l 1036 913 l 1036 441 q 1011 273 1036 351 q 941 140 985 196 q 836 46 897 85 q 704 -13 775 7 z "},"û":{"ha":1111,"x_min":75,"x_max":1036,"o":"m 228 1018 l 399 1211 l 732 1211 l 885 1018 l 614 1018 l 555 1083 l 498 1018 l 228 1018 m 704 -13 q 668 -22 704 -13 q 555 -32 633 -32 q 407 -13 478 -32 q 275 46 336 7 q 170 140 215 85 q 100 273 125 196 q 75 441 75 351 l 75 913 l 395 913 l 395 428 q 439 302 395 352 q 555 253 484 253 q 672 302 627 253 q 717 428 717 352 l 717 913 l 1036 913 l 1036 441 q 1011 273 1036 351 q 941 140 985 196 q 836 46 897 85 q 704 -13 775 7 z "},"ü":{"ha":1111,"x_min":75,"x_max":1036,"o":"m 244 1006 l 244 1183 l 500 1183 l 500 1006 l 244 1006 m 611 1006 l 611 1183 l 867 1183 l 867 1006 l 611 1006 m 704 -13 q 668 -22 704 -13 q 555 -32 633 -32 q 407 -13 478 -32 q 275 46 336 7 q 170 140 215 85 q 100 273 125 196 q 75 441 75 351 l 75 913 l 395 913 l 395 428 q 439 302 395 352 q 555 253 484 253 q 672 302 627 253 q 717 428 717 352 l 717 913 l 1036 913 l 1036 441 q 1011 273 1036 351 q 941 140 985 196 q 836 46 897 85 q 704 -13 775 7 z "},"ý":{"ha":1094,"x_min":14,"x_max":1080,"o":"m 399 1004 l 539 1197 l 810 1197 l 669 1004 l 399 1004 m 386 0 l 386 265 l 14 913 l 367 913 l 547 583 l 725 913 l 1080 913 l 705 265 l 705 0 l 386 0 z "},"þ":{"ha":1093,"x_min":104,"x_max":1065,"o":"m 104 0 l 106 913 l 421 913 l 421 802 l 703 802 q 969 707 873 802 q 1065 457 1065 612 q 970 211 1065 302 q 703 119 874 119 l 424 119 l 424 0 l 104 0 m 424 370 l 669 370 q 729 390 702 370 q 757 457 757 410 q 748 503 757 484 q 725 533 739 523 q 697 547 711 543 q 669 551 683 551 l 424 551 l 424 370 z "},"ÿ":{"ha":1094,"x_min":14,"x_max":1080,"o":"m 236 991 l 236 1169 l 492 1169 l 492 991 l 236 991 m 603 991 l 603 1169 l 859 1169 l 859 991 l 603 991 m 386 0 l 386 265 l 14 913 l 367 913 l 547 583 l 725 913 l 1080 913 l 705 265 l 705 0 l 386 0 z "},"Ā":{"ha":1217,"x_min":14,"x_max":1203,"o":"m 293 991 l 293 1118 l 924 1118 l 924 991 l 293 991 m 14 0 l 422 913 l 794 913 l 1203 0 l 850 0 l 806 110 l 411 110 l 367 0 l 14 0 m 513 359 l 704 359 l 610 597 l 607 597 l 513 359 z "},"ā":{"ha":1217,"x_min":14,"x_max":1203,"o":"m 293 991 l 293 1118 l 924 1118 l 924 991 l 293 991 m 14 0 l 422 913 l 794 913 l 1203 0 l 850 0 l 806 110 l 411 110 l 367 0 l 14 0 m 513 359 l 704 359 l 610 597 l 607 597 l 513 359 z "},"Ă":{"ha":1217,"x_min":14,"x_max":1203,"o":"m 532 1004 q 450 1023 486 1004 q 393 1070 414 1041 q 362 1133 372 1100 q 350 1198 351 1165 l 538 1198 q 556 1154 538 1174 q 608 1133 574 1133 q 663 1154 644 1133 q 681 1198 681 1174 l 868 1198 q 854 1133 866 1165 q 821 1070 842 1100 q 765 1023 800 1041 q 686 1004 730 1004 l 532 1004 m 14 0 l 422 913 l 794 913 l 1203 0 l 850 0 l 806 110 l 411 110 l 367 0 l 14 0 m 513 359 l 704 359 l 610 597 l 607 597 l 513 359 z "},"ă":{"ha":1217,"x_min":14,"x_max":1203,"o":"m 532 1004 q 450 1023 486 1004 q 393 1070 414 1041 q 362 1133 372 1100 q 350 1198 351 1165 l 538 1198 q 556 1154 538 1174 q 608 1133 574 1133 q 663 1154 644 1133 q 681 1198 681 1174 l 868 1198 q 854 1133 866 1165 q 821 1070 842 1100 q 765 1023 800 1041 q 686 1004 730 1004 l 532 1004 m 14 0 l 422 913 l 794 913 l 1203 0 l 850 0 l 806 110 l 411 110 l 367 0 l 14 0 m 513 359 l 704 359 l 610 597 l 607 597 l 513 359 z "},"Ą":{"ha":1217,"x_min":14,"x_max":1203,"o":"m 993 -171 q 1006 -199 993 -187 q 1042 -218 1020 -212 q 1085 -228 1063 -224 q 1128 -231 1107 -231 l 1128 -354 q 1019 -350 1067 -354 q 922 -336 970 -347 q 841 -309 873 -326 q 788 -262 808 -292 q 768 -195 768 -233 q 983 0 768 -64 l 850 0 l 806 110 l 411 110 l 367 0 l 14 0 l 422 913 l 794 913 l 1203 0 q 993 -171 993 -107 m 513 359 l 704 359 l 610 597 l 607 597 l 513 359 z "},"ą":{"ha":1217,"x_min":14,"x_max":1203,"o":"m 993 -171 q 1006 -199 993 -187 q 1042 -218 1020 -212 q 1085 -228 1063 -224 q 1128 -231 1107 -231 l 1128 -354 q 1019 -350 1067 -354 q 922 -336 970 -347 q 841 -309 873 -326 q 788 -262 808 -292 q 768 -195 768 -233 q 983 0 768 -64 l 850 0 l 806 110 l 411 110 l 367 0 l 14 0 l 422 913 l 794 913 l 1203 0 q 993 -171 993 -107 m 513 359 l 704 359 l 610 597 l 607 597 l 513 359 z "},"Ć":{"ha":1043,"x_min":56,"x_max":991,"o":"m 441 1004 l 582 1197 l 852 1197 l 713 1004 l 441 1004 m 590 -35 q 366 4 468 -35 q 197 110 264 43 q 93 266 130 177 q 56 453 56 354 q 93 645 56 555 q 197 802 130 734 q 366 909 264 870 q 590 949 467 949 q 972 807 824 949 l 781 608 q 698 660 737 642 q 602 677 659 677 q 437 617 499 677 q 375 458 375 556 q 438 298 375 361 q 604 236 502 236 q 717 259 667 236 q 798 313 767 282 l 991 115 q 817 5 921 45 q 590 -35 713 -35 z "},"ć":{"ha":1043,"x_min":56,"x_max":991,"o":"m 441 1004 l 582 1197 l 852 1197 l 713 1004 l 441 1004 m 590 -35 q 366 4 468 -35 q 197 110 264 43 q 93 266 130 177 q 56 453 56 354 q 93 645 56 555 q 197 802 130 734 q 366 909 264 870 q 590 949 467 949 q 972 807 824 949 l 781 608 q 698 660 737 642 q 602 677 659 677 q 437 617 499 677 q 375 458 375 556 q 438 298 375 361 q 604 236 502 236 q 717 259 667 236 q 798 313 767 282 l 991 115 q 817 5 921 45 q 590 -35 713 -35 z "},"Ĉ":{"ha":1043,"x_min":56,"x_max":991,"o":"m 262 1004 l 433 1197 l 766 1197 l 920 1004 l 648 1004 l 590 1069 l 533 1004 l 262 1004 m 590 -35 q 366 4 468 -35 q 197 110 264 43 q 93 266 130 177 q 56 453 56 354 q 93 645 56 555 q 197 802 130 734 q 366 909 264 870 q 590 949 467 949 q 972 807 824 949 l 781 608 q 698 660 737 642 q 602 677 659 677 q 437 617 499 677 q 375 458 375 556 q 438 298 375 361 q 604 236 502 236 q 717 259 667 236 q 798 313 767 282 l 991 115 q 817 5 921 45 q 590 -35 713 -35 z "},"ĉ":{"ha":1043,"x_min":56,"x_max":991,"o":"m 262 1004 l 433 1197 l 766 1197 l 920 1004 l 648 1004 l 590 1069 l 533 1004 l 262 1004 m 590 -35 q 366 4 468 -35 q 197 110 264 43 q 93 266 130 177 q 56 453 56 354 q 93 645 56 555 q 197 802 130 734 q 366 909 264 870 q 590 949 467 949 q 972 807 824 949 l 781 608 q 698 660 737 642 q 602 677 659 677 q 437 617 499 677 q 375 458 375 556 q 438 298 375 361 q 604 236 502 236 q 717 259 667 236 q 798 313 767 282 l 991 115 q 817 5 921 45 q 590 -35 713 -35 z "},"Ċ":{"ha":1043,"x_min":56,"x_max":991,"o":"m 479 991 l 479 1185 l 701 1185 l 701 991 l 479 991 m 590 -35 q 366 4 468 -35 q 197 110 264 43 q 93 266 130 177 q 56 453 56 354 q 93 645 56 555 q 197 802 130 734 q 366 909 264 870 q 590 949 467 949 q 972 807 824 949 l 781 608 q 698 660 737 642 q 602 677 659 677 q 437 617 499 677 q 375 458 375 556 q 438 298 375 361 q 604 236 502 236 q 717 259 667 236 q 798 313 767 282 l 991 115 q 817 5 921 45 q 590 -35 713 -35 z "},"ċ":{"ha":1043,"x_min":56,"x_max":991,"o":"m 479 991 l 479 1185 l 701 1185 l 701 991 l 479 991 m 590 -35 q 366 4 468 -35 q 197 110 264 43 q 93 266 130 177 q 56 453 56 354 q 93 645 56 555 q 197 802 130 734 q 366 909 264 870 q 590 949 467 949 q 972 807 824 949 l 781 608 q 698 660 737 642 q 602 677 659 677 q 437 617 499 677 q 375 458 375 556 q 438 298 375 361 q 604 236 502 236 q 717 259 667 236 q 798 313 767 282 l 991 115 q 817 5 921 45 q 590 -35 713 -35 z "},"Č":{"ha":1043,"x_min":56,"x_max":991,"o":"m 433 1004 l 262 1197 l 533 1197 l 590 1132 l 648 1197 l 920 1197 l 766 1004 l 433 1004 m 590 -35 q 366 4 468 -35 q 197 110 264 43 q 93 266 130 177 q 56 453 56 354 q 93 645 56 555 q 197 802 130 734 q 366 909 264 870 q 590 949 467 949 q 972 807 824 949 l 781 608 q 698 660 737 642 q 602 677 659 677 q 437 617 499 677 q 375 458 375 556 q 438 298 375 361 q 604 236 502 236 q 717 259 667 236 q 798 313 767 282 l 991 115 q 817 5 921 45 q 590 -35 713 -35 z "},"č":{"ha":1043,"x_min":56,"x_max":991,"o":"m 433 1004 l 262 1197 l 533 1197 l 590 1132 l 648 1197 l 920 1197 l 766 1004 l 433 1004 m 590 -35 q 366 4 468 -35 q 197 110 264 43 q 93 266 130 177 q 56 453 56 354 q 93 645 56 555 q 197 802 130 734 q 366 909 264 870 q 590 949 467 949 q 972 807 824 949 l 781 608 q 698 660 737 642 q 602 677 659 677 q 437 617 499 677 q 375 458 375 556 q 438 298 375 361 q 604 236 502 236 q 717 259 667 236 q 798 313 767 282 l 991 115 q 817 5 921 45 q 590 -35 713 -35 z "},"Ď":{"ha":1129,"x_min":104,"x_max":1074,"o":"m 355 1004 l 184 1197 l 456 1197 l 513 1132 l 571 1197 l 842 1197 l 689 1004 l 355 1004 m 104 0 l 104 913 l 596 913 q 946 789 819 913 q 1074 456 1074 666 q 946 123 1074 245 q 596 0 819 0 l 104 0 m 424 264 l 554 264 q 701 314 644 264 q 758 456 758 363 q 701 598 758 547 q 554 648 643 648 l 424 648 l 424 264 z "},"ď":{"ha":1129,"x_min":104,"x_max":1074,"o":"m 355 1004 l 184 1197 l 456 1197 l 513 1132 l 571 1197 l 842 1197 l 689 1004 l 355 1004 m 104 0 l 104 913 l 596 913 q 946 789 819 913 q 1074 456 1074 666 q 946 123 1074 245 q 596 0 819 0 l 104 0 m 424 264 l 554 264 q 701 314 644 264 q 758 456 758 363 q 701 598 758 547 q 554 648 643 648 l 424 648 l 424 264 z "},"Đ":{"ha":1127,"x_min":-8,"x_max":1072,"o":"m 103 0 l 103 338 l -8 338 l -8 567 l 103 567 l 103 913 l 595 913 q 850 856 742 913 q 1016 695 959 798 q 1072 456 1072 592 q 945 123 1072 245 q 595 0 818 0 l 103 0 m 422 264 l 553 264 q 701 315 644 264 q 757 471 757 366 q 700 603 757 558 q 553 648 642 648 l 422 648 l 422 567 l 525 567 l 525 338 l 422 338 l 422 264 z "},"đ":{"ha":1127,"x_min":-8,"x_max":1072,"o":"m 103 0 l 103 338 l -8 338 l -8 567 l 103 567 l 103 913 l 595 913 q 850 856 742 913 q 1016 695 959 798 q 1072 456 1072 592 q 945 123 1072 245 q 595 0 818 0 l 103 0 m 422 264 l 553 264 q 701 315 644 264 q 757 471 757 366 q 700 603 757 558 q 553 648 642 648 l 422 648 l 422 567 l 525 567 l 525 338 l 422 338 l 422 264 z "},"Ē":{"ha":1048,"x_min":104,"x_max":965,"o":"m 220 991 l 220 1118 l 850 1118 l 850 991 l 220 991 m 104 0 l 104 913 l 965 913 l 965 648 l 424 648 l 424 561 l 882 561 l 882 357 l 424 357 l 424 264 l 965 264 l 965 0 l 104 0 z "},"ē":{"ha":1048,"x_min":104,"x_max":965,"o":"m 220 991 l 220 1118 l 850 1118 l 850 991 l 220 991 m 104 0 l 104 913 l 965 913 l 965 648 l 424 648 l 424 561 l 882 561 l 882 357 l 424 357 l 424 264 l 965 264 l 965 0 l 104 0 z "},"Ĕ":{"ha":1048,"x_min":104,"x_max":965,"o":"m 458 1004 q 376 1023 412 1004 q 320 1070 340 1041 q 289 1133 299 1100 q 277 1198 278 1165 l 464 1198 q 482 1154 464 1174 q 534 1133 500 1133 q 589 1154 570 1133 q 607 1198 607 1174 l 794 1198 q 780 1133 792 1165 q 747 1070 768 1100 q 691 1023 726 1041 q 612 1004 656 1004 l 458 1004 m 104 0 l 104 913 l 965 913 l 965 648 l 424 648 l 424 561 l 882 561 l 882 357 l 424 357 l 424 264 l 965 264 l 965 0 l 104 0 z "},"ĕ":{"ha":1048,"x_min":104,"x_max":965,"o":"m 458 1004 q 376 1023 412 1004 q 320 1070 340 1041 q 289 1133 299 1100 q 277 1198 278 1165 l 464 1198 q 482 1154 464 1174 q 534 1133 500 1133 q 589 1154 570 1133 q 607 1198 607 1174 l 794 1198 q 780 1133 792 1165 q 747 1070 768 1100 q 691 1023 726 1041 q 612 1004 656 1004 l 458 1004 m 104 0 l 104 913 l 965 913 l 965 648 l 424 648 l 424 561 l 882 561 l 882 357 l 424 357 l 424 264 l 965 264 l 965 0 l 104 0 z "},"Ė":{"ha":1048,"x_min":104,"x_max":965,"o":"m 424 991 l 424 1185 l 646 1185 l 646 991 l 424 991 m 104 0 l 104 913 l 965 913 l 965 648 l 424 648 l 424 561 l 882 561 l 882 357 l 424 357 l 424 264 l 965 264 l 965 0 l 104 0 z "},"ė":{"ha":1048,"x_min":104,"x_max":965,"o":"m 424 991 l 424 1185 l 646 1185 l 646 991 l 424 991 m 104 0 l 104 913 l 965 913 l 965 648 l 424 648 l 424 561 l 882 561 l 882 357 l 424 357 l 424 264 l 965 264 l 965 0 l 104 0 z "},"Ę":{"ha":1048,"x_min":104,"x_max":965,"o":"m 965 648 l 424 648 l 424 561 l 882 561 l 882 357 l 424 357 l 424 264 l 965 264 l 965 0 q 755 -171 755 -107 q 769 -199 755 -187 q 804 -218 783 -212 q 848 -228 826 -224 q 890 -231 869 -231 l 890 -354 q 781 -350 830 -354 q 684 -336 732 -347 q 603 -309 635 -326 q 550 -262 570 -292 q 530 -195 530 -233 q 746 0 530 -64 l 104 0 l 104 913 l 965 913 l 965 648 z "},"ę":{"ha":1048,"x_min":104,"x_max":965,"o":"m 965 648 l 424 648 l 424 561 l 882 561 l 882 357 l 424 357 l 424 264 l 965 264 l 965 0 q 755 -171 755 -107 q 769 -199 755 -187 q 804 -218 783 -212 q 848 -228 826 -224 q 890 -231 869 -231 l 890 -354 q 781 -350 830 -354 q 684 -336 732 -347 q 603 -309 635 -326 q 550 -262 570 -292 q 530 -195 530 -233 q 746 0 530 -64 l 104 0 l 104 913 l 965 913 l 965 648 z "},"Ě":{"ha":1048,"x_min":104,"x_max":965,"o":"m 378 1004 l 207 1197 l 478 1197 l 534 1132 l 593 1197 l 864 1197 l 711 1004 l 378 1004 m 104 0 l 104 913 l 965 913 l 965 648 l 424 648 l 424 561 l 882 561 l 882 357 l 424 357 l 424 264 l 965 264 l 965 0 l 104 0 z "},"ě":{"ha":1048,"x_min":104,"x_max":965,"o":"m 378 1004 l 207 1197 l 478 1197 l 534 1132 l 593 1197 l 864 1197 l 711 1004 l 378 1004 m 104 0 l 104 913 l 965 913 l 965 648 l 424 648 l 424 561 l 882 561 l 882 357 l 424 357 l 424 264 l 965 264 l 965 0 l 104 0 z "},"Ĝ":{"ha":1176,"x_min":56,"x_max":1125,"o":"m 590 1069 l 533 1004 l 262 1004 l 433 1197 l 766 1197 l 920 1004 l 648 1004 l 590 1069 m 572 515 l 1125 515 l 1125 450 q 1088 263 1125 351 q 984 109 1051 175 q 814 4 916 43 q 590 -35 713 -35 q 366 4 467 -35 q 197 109 264 43 q 93 263 130 175 q 56 450 56 351 q 79 606 56 532 q 148 743 102 680 q 257 851 193 805 q 406 923 321 897 q 590 949 492 949 q 818 907 715 949 q 991 793 920 866 l 760 599 q 593 677 703 677 q 435 616 495 677 q 375 457 375 554 q 435 298 375 359 q 593 236 495 236 q 703 260 652 236 q 786 326 754 283 l 572 326 l 572 515 z "},"ĝ":{"ha":1176,"x_min":56,"x_max":1125,"o":"m 590 1069 l 533 1004 l 262 1004 l 433 1197 l 766 1197 l 920 1004 l 648 1004 l 590 1069 m 572 515 l 1125 515 l 1125 450 q 1088 263 1125 351 q 984 109 1051 175 q 814 4 916 43 q 590 -35 713 -35 q 366 4 467 -35 q 197 109 264 43 q 93 263 130 175 q 56 450 56 351 q 79 606 56 532 q 148 743 102 680 q 257 851 193 805 q 406 923 321 897 q 590 949 492 949 q 818 907 715 949 q 991 793 920 866 l 760 599 q 593 677 703 677 q 435 616 495 677 q 375 457 375 554 q 435 298 375 359 q 593 236 495 236 q 703 260 652 236 q 786 326 754 283 l 572 326 l 572 515 z "},"Ğ":{"ha":1176,"x_min":56,"x_max":1125,"o":"m 514 1004 q 432 1023 468 1004 q 375 1070 396 1041 q 344 1133 355 1100 q 332 1198 333 1165 l 519 1198 q 537 1154 519 1174 q 590 1133 555 1133 q 644 1154 626 1133 q 663 1198 663 1174 l 850 1198 q 836 1133 848 1165 q 803 1070 824 1100 q 747 1023 782 1041 q 668 1004 711 1004 l 514 1004 m 572 515 l 1125 515 l 1125 450 q 1088 263 1125 351 q 984 109 1051 175 q 814 4 916 43 q 590 -35 713 -35 q 366 4 467 -35 q 197 109 264 43 q 93 263 130 175 q 56 450 56 351 q 79 606 56 532 q 148 743 102 680 q 257 851 193 805 q 406 923 321 897 q 590 949 492 949 q 818 907 715 949 q 991 793 920 866 l 760 599 q 593 677 703 677 q 435 616 495 677 q 375 457 375 554 q 435 298 375 359 q 593 236 495 236 q 703 260 652 236 q 786 326 754 283 l 572 326 l 572 515 z "},"ğ":{"ha":1176,"x_min":56,"x_max":1125,"o":"m 514 1004 q 432 1023 468 1004 q 375 1070 396 1041 q 344 1133 355 1100 q 332 1198 333 1165 l 519 1198 q 537 1154 519 1174 q 590 1133 555 1133 q 644 1154 626 1133 q 663 1198 663 1174 l 850 1198 q 836 1133 848 1165 q 803 1070 824 1100 q 747 1023 782 1041 q 668 1004 711 1004 l 514 1004 m 572 515 l 1125 515 l 1125 450 q 1088 263 1125 351 q 984 109 1051 175 q 814 4 916 43 q 590 -35 713 -35 q 366 4 467 -35 q 197 109 264 43 q 93 263 130 175 q 56 450 56 351 q 79 606 56 532 q 148 743 102 680 q 257 851 193 805 q 406 923 321 897 q 590 949 492 949 q 818 907 715 949 q 991 793 920 866 l 760 599 q 593 677 703 677 q 435 616 495 677 q 375 457 375 554 q 435 298 375 359 q 593 236 495 236 q 703 260 652 236 q 786 326 754 283 l 572 326 l 572 515 z "},"Ġ":{"ha":1176,"x_min":56,"x_max":1125,"o":"m 701 1185 l 701 991 l 479 991 l 479 1185 l 701 1185 m 572 515 l 1125 515 l 1125 450 q 1088 263 1125 351 q 984 109 1051 175 q 814 4 916 43 q 590 -35 713 -35 q 366 4 467 -35 q 197 109 264 43 q 93 263 130 175 q 56 450 56 351 q 79 606 56 532 q 148 743 102 680 q 257 851 193 805 q 406 923 321 897 q 590 949 492 949 q 818 907 715 949 q 991 793 920 866 l 760 599 q 593 677 703 677 q 435 616 495 677 q 375 457 375 554 q 435 298 375 359 q 593 236 495 236 q 703 260 652 236 q 786 326 754 283 l 572 326 l 572 515 z "},"ġ":{"ha":1176,"x_min":56,"x_max":1125,"o":"m 701 1185 l 701 991 l 479 991 l 479 1185 l 701 1185 m 572 515 l 1125 515 l 1125 450 q 1088 263 1125 351 q 984 109 1051 175 q 814 4 916 43 q 590 -35 713 -35 q 366 4 467 -35 q 197 109 264 43 q 93 263 130 175 q 56 450 56 351 q 79 606 56 532 q 148 743 102 680 q 257 851 193 805 q 406 923 321 897 q 590 949 492 949 q 818 907 715 949 q 991 793 920 866 l 760 599 q 593 677 703 677 q 435 616 495 677 q 375 457 375 554 q 435 298 375 359 q 593 236 495 236 q 703 260 652 236 q 786 326 754 283 l 572 326 l 572 515 z "},"Ģ":{"ha":1176,"x_min":56,"x_max":1125,"o":"m 572 515 l 1125 515 l 1125 450 q 1088 263 1125 351 q 984 109 1051 175 q 814 4 916 43 q 590 -35 713 -35 q 366 4 467 -35 q 197 109 264 43 q 93 263 130 175 q 56 450 56 351 q 79 606 56 532 q 148 743 102 680 q 257 851 193 805 q 406 923 321 897 q 590 949 492 949 q 818 907 715 949 q 991 793 920 866 l 760 599 q 593 677 703 677 q 435 616 495 677 q 375 457 375 554 q 435 298 375 359 q 593 236 495 236 q 703 260 652 236 q 786 326 754 283 l 572 326 l 572 515 m 457 -421 l 457 -89 l 665 -89 l 665 -249 l 549 -421 l 457 -421 z "},"ģ":{"ha":1172,"x_min":56,"x_max":1125,"o":"m 572 515 l 1125 515 l 1125 450 q 1088 263 1125 351 q 984 109 1051 175 q 814 4 916 43 q 590 -35 713 -35 q 366 4 467 -35 q 197 109 264 43 q 93 263 130 175 q 56 450 56 351 q 79 606 56 532 q 148 743 102 680 q 257 851 193 805 q 406 923 321 897 q 590 949 492 949 q 818 907 715 949 q 991 793 920 866 l 760 599 q 593 677 703 677 q 435 616 495 677 q 375 457 375 554 q 435 298 375 359 q 593 236 495 236 q 703 260 652 236 q 786 326 754 283 l 572 326 l 572 515 m 457 -421 l 457 -89 l 665 -89 l 665 -249 l 549 -421 l 457 -421 z "},"Ĥ":{"ha":1169,"x_min":104,"x_max":1065,"o":"m 257 1004 l 428 1197 l 761 1197 l 914 1004 l 643 1004 l 585 1069 l 528 1004 l 257 1004 m 104 0 l 104 913 l 424 913 l 424 602 l 746 602 l 746 913 l 1065 913 l 1065 0 l 746 0 l 746 323 l 424 323 l 424 0 l 104 0 z "},"ĥ":{"ha":1169,"x_min":104,"x_max":1065,"o":"m 257 1004 l 428 1197 l 761 1197 l 914 1004 l 643 1004 l 585 1069 l 528 1004 l 257 1004 m 104 0 l 104 913 l 424 913 l 424 602 l 746 602 l 746 913 l 1065 913 l 1065 0 l 746 0 l 746 323 l 424 323 l 424 0 l 104 0 z "},"Ħ":{"ha":1169,"x_min":32,"x_max":1146,"o":"m 1146 827 l 1146 724 l 1065 724 l 1065 0 l 746 0 l 746 323 l 424 323 l 424 0 l 104 0 l 104 724 l 32 724 l 32 827 l 104 827 l 104 913 l 424 913 l 424 827 l 746 827 l 746 913 l 1065 913 l 1065 827 l 1146 827 m 746 602 l 746 724 l 424 724 l 424 602 l 746 602 z "},"ħ":{"ha":1169,"x_min":32,"x_max":1146,"o":"m 1146 827 l 1146 724 l 1065 724 l 1065 0 l 746 0 l 746 323 l 424 323 l 424 0 l 104 0 l 104 724 l 32 724 l 32 827 l 104 827 l 104 913 l 424 913 l 424 827 l 746 827 l 746 913 l 1065 913 l 1065 827 l 1146 827 m 746 602 l 746 724 l 424 724 l 424 602 l 746 602 z "},"Ĩ":{"ha":528,"x_min":-93,"x_max":623,"o":"m 0 989 l -93 1128 q -8 1197 -64 1166 q 114 1229 49 1229 q 202 1218 161 1229 q 266 1196 243 1208 q 320 1173 290 1183 q 382 1162 351 1162 q 466 1185 425 1163 q 529 1232 507 1206 l 623 1093 q 528 1023 585 1055 q 422 991 471 991 q 329 1002 372 991 q 263 1025 286 1013 q 209 1048 239 1038 q 147 1059 178 1059 q 63 1036 104 1058 q 0 989 22 1015 m 104 0 l 104 913 l 424 913 l 424 0 l 104 0 z "},"ĩ":{"ha":528,"x_min":-93,"x_max":623,"o":"m 0 989 l -93 1128 q -8 1197 -64 1166 q 114 1229 49 1229 q 202 1218 161 1229 q 266 1196 243 1208 q 320 1173 290 1183 q 382 1162 351 1162 q 466 1185 425 1163 q 529 1232 507 1206 l 623 1093 q 528 1023 585 1055 q 422 991 471 991 q 329 1002 372 991 q 263 1025 286 1013 q 209 1048 239 1038 q 147 1059 178 1059 q 63 1036 104 1058 q 0 989 22 1015 m 104 0 l 104 913 l 424 913 l 424 0 l 104 0 z "},"Ī":{"ha":528,"x_min":-50,"x_max":581,"o":"m -50 991 l -50 1118 l 581 1118 l 581 991 l -50 991 m 104 0 l 104 913 l 424 913 l 424 0 l 104 0 z "},"ī":{"ha":528,"x_min":-50,"x_max":581,"o":"m -50 991 l -50 1118 l 581 1118 l 581 991 l -50 991 m 104 0 l 104 913 l 424 913 l 424 0 l 104 0 z "},"Ĭ":{"ha":528,"x_min":7,"x_max":525,"o":"m 189 1004 q 107 1023 143 1004 q 51 1070 71 1041 q 19 1133 30 1100 q 7 1198 8 1165 l 195 1198 q 213 1154 195 1174 q 265 1133 231 1133 q 319 1154 301 1133 q 338 1198 338 1174 l 525 1198 q 511 1133 523 1165 q 478 1070 499 1100 q 422 1023 457 1041 q 343 1004 387 1004 l 189 1004 m 104 0 l 104 913 l 424 913 l 424 0 l 104 0 z "},"ĭ":{"ha":528,"x_min":7,"x_max":525,"o":"m 189 1004 q 107 1023 143 1004 q 51 1070 71 1041 q 19 1133 30 1100 q 7 1198 8 1165 l 195 1198 q 213 1154 195 1174 q 265 1133 231 1133 q 319 1154 301 1133 q 338 1198 338 1174 l 525 1198 q 511 1133 523 1165 q 478 1070 499 1100 q 422 1023 457 1041 q 343 1004 387 1004 l 189 1004 m 104 0 l 104 913 l 424 913 l 424 0 l 104 0 z "},"Į":{"ha":528,"x_min":-11,"x_max":424,"o":"m 424 0 q 214 -171 214 -107 q 227 -199 214 -187 q 262 -218 241 -212 q 306 -228 284 -224 q 349 -231 328 -231 l 349 -354 q 239 -350 288 -354 q 142 -336 191 -347 q 62 -309 94 -326 q 9 -262 29 -292 q -11 -195 -11 -233 q 204 0 -11 -64 l 104 0 l 104 913 l 424 913 l 424 0 z "},"į":{"ha":528,"x_min":-11,"x_max":424,"o":"m 424 0 q 214 -171 214 -107 q 227 -199 214 -187 q 262 -218 241 -212 q 306 -228 284 -224 q 349 -231 328 -231 l 349 -354 q 239 -350 288 -354 q 142 -336 191 -347 q 62 -309 94 -326 q 9 -262 29 -292 q -11 -195 -11 -233 q 204 0 -11 -64 l 104 0 l 104 913 l 424 913 l 424 0 z "},"İ":{"ha":528,"x_min":104,"x_max":424,"o":"m 111 996 l 111 1211 l 419 1211 l 419 996 l 111 996 m 104 0 l 104 913 l 424 913 l 424 0 l 104 0 z "},"ı":{"ha":472,"x_min":97,"x_max":375,"o":"m 97 0 l 97 913 l 375 913 l 375 0 l 97 0 z "},"Ĳ":{"ha":1175,"x_min":83,"x_max":1092,"o":"m 83 383 l 83 913 l 403 913 l 403 383 l 83 383 m 585 -33 q 332 26 445 -33 q 150 196 219 85 l 403 313 q 485 260 439 281 q 576 240 530 240 q 715 296 658 240 q 772 435 772 352 l 772 648 l 494 648 l 494 913 l 1092 913 l 1092 454 q 954 101 1092 235 q 585 -33 816 -33 z "},"ĳ":{"ha":1158,"x_min":75,"x_max":1083,"o":"m 75 383 l 75 913 l 395 913 l 395 383 l 75 383 m 575 -46 q 395 -20 482 -46 q 234 59 307 5 q 123 187 161 113 l 401 315 q 465 249 428 269 q 562 228 502 228 q 706 283 648 228 q 764 422 764 339 l 764 648 l 486 648 l 486 913 l 1083 913 l 1083 441 q 1022 186 1083 296 q 845 15 961 76 q 575 -46 730 -46 z "},"Ĵ":{"ha":1051,"x_min":41,"x_max":977,"o":"m 220 1004 l 390 1197 l 724 1197 l 876 1004 l 606 1004 l 547 1069 l 490 1004 l 220 1004 m 469 -33 q 218 24 330 -33 q 41 186 106 81 l 249 359 q 337 276 277 312 q 461 240 397 240 q 600 296 543 240 q 657 435 657 352 l 657 648 l 134 648 l 134 913 l 977 913 l 977 454 q 839 101 977 235 q 469 -33 701 -33 z "},"ĵ":{"ha":1051,"x_min":41,"x_max":977,"o":"m 220 1004 l 390 1197 l 724 1197 l 876 1004 l 606 1004 l 547 1069 l 490 1004 l 220 1004 m 469 -33 q 218 24 330 -33 q 41 186 106 81 l 249 359 q 337 276 277 312 q 461 240 397 240 q 600 296 543 240 q 657 435 657 352 l 657 648 l 134 648 l 134 913 l 977 913 l 977 454 q 839 101 977 235 q 469 -33 701 -33 z "},"Ķ":{"ha":1171,"x_min":104,"x_max":1157,"o":"m 882 -26 q 503 249 631 -26 l 424 170 l 424 0 l 104 0 l 104 913 l 424 913 l 424 555 l 733 913 l 1097 913 l 717 452 q 803 311 751 355 q 918 267 856 267 q 984 279 953 267 q 1032 306 1015 291 l 1157 75 q 1044 5 1118 37 q 882 -26 969 -26 m 482 -418 l 482 -86 l 690 -86 l 690 -245 l 574 -418 l 482 -418 z "},"ķ":{"ha":1171,"x_min":104,"x_max":1157,"o":"m 882 -26 q 503 249 631 -26 l 424 170 l 424 0 l 104 0 l 104 913 l 424 913 l 424 555 l 733 913 l 1097 913 l 717 452 q 803 311 751 355 q 918 267 856 267 q 984 279 953 267 q 1032 306 1015 291 l 1157 75 q 1044 5 1118 37 q 882 -26 969 -26 m 482 -418 l 482 -86 l 690 -86 l 690 -245 l 574 -418 l 482 -418 z "},"Ĺ":{"ha":979,"x_min":104,"x_max":937,"o":"m 115 1004 l 256 1197 l 526 1197 l 386 1004 l 115 1004 m 104 0 l 104 913 l 424 913 l 424 278 l 937 278 l 937 0 l 104 0 z "},"ĺ":{"ha":979,"x_min":104,"x_max":937,"o":"m 115 1004 l 256 1197 l 526 1197 l 386 1004 l 115 1004 m 104 0 l 104 913 l 424 913 l 424 278 l 937 278 l 937 0 l 104 0 z "},"Ļ":{"ha":979,"x_min":104,"x_max":937,"o":"m 104 0 l 104 913 l 424 913 l 424 278 l 937 278 l 937 0 l 104 0 m 418 -418 l 418 -86 l 627 -86 l 627 -245 l 510 -418 l 418 -418 z "},"ļ":{"ha":979,"x_min":104,"x_max":937,"o":"m 104 0 l 104 913 l 424 913 l 424 278 l 937 278 l 937 0 l 104 0 m 418 -418 l 418 -86 l 627 -86 l 627 -245 l 510 -418 l 418 -418 z "},"Ľ":{"ha":979,"x_min":104,"x_max":937,"o":"m 104 0 l 104 913 l 424 913 l 424 278 l 937 278 l 937 0 l 104 0 m 578 599 l 578 913 l 770 913 l 770 753 l 668 599 l 578 599 z "},"ľ":{"ha":979,"x_min":104,"x_max":937,"o":"m 104 0 l 104 913 l 424 913 l 424 278 l 937 278 l 937 0 l 104 0 m 578 599 l 578 913 l 770 913 l 770 753 l 668 599 l 578 599 z "},"Ŀ":{"ha":979,"x_min":104,"x_max":937,"o":"m 104 0 l 104 913 l 424 913 l 424 278 l 937 278 l 937 0 l 104 0 m 504 444 l 504 679 l 754 679 l 754 444 l 504 444 z "},"ŀ":{"ha":979,"x_min":104,"x_max":937,"o":"m 104 0 l 104 913 l 424 913 l 424 278 l 937 278 l 937 0 l 104 0 m 504 444 l 504 679 l 754 679 l 754 444 l 504 444 z "},"Ł":{"ha":980,"x_min":-74,"x_max":939,"o":"m 425 278 l 939 278 l 939 0 l 106 0 l 106 387 l -32 336 l -74 456 l 106 522 l 106 913 l 425 913 l 425 629 l 549 675 l 590 555 l 425 494 l 425 278 z "},"ł":{"ha":980,"x_min":-74,"x_max":939,"o":"m 425 278 l 939 278 l 939 0 l 106 0 l 106 387 l -32 336 l -74 456 l 106 522 l 106 913 l 425 913 l 425 629 l 549 675 l 590 555 l 425 494 l 425 278 z "},"Ń":{"ha":1156,"x_min":104,"x_max":1053,"o":"m 431 1004 l 571 1197 l 842 1197 l 701 1004 l 431 1004 m 104 0 l 104 913 l 376 913 l 733 481 l 733 913 l 1053 913 l 1053 0 l 781 0 l 424 422 l 424 0 l 104 0 z "},"ń":{"ha":1156,"x_min":104,"x_max":1053,"o":"m 431 1004 l 571 1197 l 842 1197 l 701 1004 l 431 1004 m 104 0 l 104 913 l 376 913 l 733 481 l 733 913 l 1053 913 l 1053 0 l 781 0 l 424 422 l 424 0 l 104 0 z "},"Ņ":{"ha":1156,"x_min":104,"x_max":1053,"o":"m 104 0 l 104 913 l 376 913 l 733 481 l 733 913 l 1053 913 l 1053 0 l 781 0 l 424 422 l 424 0 l 104 0 m 475 -418 l 475 -86 l 684 -86 l 684 -245 l 567 -418 l 475 -418 z "},"ņ":{"ha":1156,"x_min":104,"x_max":1053,"o":"m 104 0 l 104 913 l 376 913 l 733 481 l 733 913 l 1053 913 l 1053 0 l 781 0 l 424 422 l 424 0 l 104 0 m 475 -418 l 475 -86 l 684 -86 l 684 -245 l 567 -418 l 475 -418 z "},"Ň":{"ha":1156,"x_min":104,"x_max":1053,"o":"m 422 1004 l 252 1197 l 522 1197 l 579 1132 l 637 1197 l 908 1197 l 755 1004 l 422 1004 m 104 0 l 104 913 l 376 913 l 733 481 l 733 913 l 1053 913 l 1053 0 l 781 0 l 424 422 l 424 0 l 104 0 z "},"ň":{"ha":1156,"x_min":104,"x_max":1053,"o":"m 422 1004 l 252 1197 l 522 1197 l 579 1132 l 637 1197 l 908 1197 l 755 1004 l 422 1004 m 104 0 l 104 913 l 376 913 l 733 481 l 733 913 l 1053 913 l 1053 0 l 781 0 l 424 422 l 424 0 l 104 0 z "},"Ŋ":{"ha":1155,"x_min":104,"x_max":1051,"o":"m 844 -408 l 657 -174 q 712 -107 693 -148 q 732 -20 732 -67 l 732 57 l 424 422 l 424 0 l 104 0 l 104 913 l 371 913 l 733 481 l 733 913 l 1051 913 l 1051 0 q 998 -240 1051 -135 q 844 -408 944 -345 z "},"ŋ":{"ha":1155,"x_min":104,"x_max":1051,"o":"m 844 -408 l 657 -174 q 712 -107 693 -148 q 732 -20 732 -67 l 732 57 l 424 422 l 424 0 l 104 0 l 104 913 l 371 913 l 733 481 l 733 913 l 1051 913 l 1051 0 q 998 -240 1051 -135 q 844 -408 944 -345 z "},"Ō":{"ha":1180,"x_min":56,"x_max":1125,"o":"m 590 949 q 814 910 712 949 q 983 805 916 871 q 1088 648 1050 738 q 1125 457 1125 559 q 1088 266 1125 355 q 983 110 1050 176 q 814 4 916 43 q 590 -35 712 -35 q 407 -9 492 -35 q 258 61 321 16 q 148 167 194 106 q 79 302 102 229 q 56 457 56 376 q 79 612 56 538 q 148 747 102 686 q 258 853 194 808 q 407 924 321 899 q 590 949 492 949 m 724 640 q 696 662 724 640 q 590 685 668 685 q 456 640 512 685 q 382 521 400 595 l 799 521 q 724 640 781 595 m 455 274 q 483 252 455 274 q 590 229 511 229 q 725 274 669 229 q 799 395 781 319 l 382 395 q 455 274 400 319 z "},"ō":{"ha":1180,"x_min":56,"x_max":1125,"o":"m 590 949 q 814 910 712 949 q 983 805 916 871 q 1088 648 1050 738 q 1125 457 1125 559 q 1088 266 1125 355 q 983 110 1050 176 q 814 4 916 43 q 590 -35 712 -35 q 407 -9 492 -35 q 258 61 321 16 q 148 167 194 106 q 79 302 102 229 q 56 457 56 376 q 79 612 56 538 q 148 747 102 686 q 258 853 194 808 q 407 924 321 899 q 590 949 492 949 m 724 640 q 696 662 724 640 q 590 685 668 685 q 456 640 512 685 q 382 521 400 595 l 799 521 q 724 640 781 595 m 455 274 q 483 252 455 274 q 590 229 511 229 q 725 274 669 229 q 799 395 781 319 l 382 395 q 455 274 400 319 z "},"Ŏ":{"ha":1180,"x_min":56,"x_max":1125,"o":"m 514 1004 q 432 1023 468 1004 q 375 1070 396 1041 q 344 1133 355 1100 q 332 1198 333 1165 l 519 1198 q 537 1154 519 1174 q 590 1133 555 1133 q 644 1154 626 1133 q 663 1198 663 1174 l 850 1198 q 836 1133 848 1165 q 803 1070 824 1100 q 747 1023 782 1041 q 668 1004 711 1004 l 514 1004 m 590 -35 q 407 -9 492 -35 q 258 61 321 16 q 148 167 194 106 q 79 302 102 229 q 56 457 56 376 q 79 612 56 538 q 148 747 102 686 q 258 853 194 808 q 407 924 321 899 q 590 949 492 949 q 814 910 712 949 q 983 805 916 871 q 1088 648 1050 738 q 1125 457 1125 559 q 1088 266 1125 355 q 983 110 1050 176 q 814 4 916 43 q 590 -35 712 -35 m 435 293 q 465 261 435 293 q 590 229 495 229 q 745 293 685 229 q 806 457 806 357 q 745 621 806 557 q 590 685 685 685 q 435 621 495 685 q 375 457 375 557 q 435 293 375 357 z "},"ŏ":{"ha":1180,"x_min":56,"x_max":1125,"o":"m 514 1004 q 432 1023 468 1004 q 375 1070 396 1041 q 344 1133 355 1100 q 332 1198 333 1165 l 519 1198 q 537 1154 519 1174 q 590 1133 555 1133 q 644 1154 626 1133 q 663 1198 663 1174 l 850 1198 q 836 1133 848 1165 q 803 1070 824 1100 q 747 1023 782 1041 q 668 1004 711 1004 l 514 1004 m 590 -35 q 407 -9 492 -35 q 258 61 321 16 q 148 167 194 106 q 79 302 102 229 q 56 457 56 376 q 79 612 56 538 q 148 747 102 686 q 258 853 194 808 q 407 924 321 899 q 590 949 492 949 q 814 910 712 949 q 983 805 916 871 q 1088 648 1050 738 q 1125 457 1125 559 q 1088 266 1125 355 q 983 110 1050 176 q 814 4 916 43 q 590 -35 712 -35 m 435 293 q 465 261 435 293 q 590 229 495 229 q 745 293 685 229 q 806 457 806 357 q 745 621 806 557 q 590 685 685 685 q 435 621 495 685 q 375 457 375 557 q 435 293 375 357 z "},"Ő":{"ha":1180,"x_min":56,"x_max":1125,"o":"m 314 1004 l 454 1185 l 697 1185 l 557 1004 l 314 1004 m 633 1004 l 774 1185 l 1017 1185 l 876 1004 l 633 1004 m 590 -35 q 407 -9 492 -35 q 258 61 321 16 q 148 167 194 106 q 79 302 102 229 q 56 457 56 376 q 79 612 56 538 q 148 747 102 686 q 258 853 194 808 q 407 924 321 899 q 590 949 492 949 q 814 910 712 949 q 983 805 916 871 q 1088 648 1050 738 q 1125 457 1125 559 q 1088 266 1125 355 q 983 110 1050 176 q 814 4 916 43 q 590 -35 712 -35 m 435 293 q 465 261 435 293 q 590 229 495 229 q 745 293 685 229 q 806 457 806 357 q 745 621 806 557 q 590 685 685 685 q 435 621 495 685 q 375 457 375 557 q 435 293 375 357 z "},"ő":{"ha":1180,"x_min":56,"x_max":1125,"o":"m 314 1004 l 454 1185 l 697 1185 l 557 1004 l 314 1004 m 633 1004 l 774 1185 l 1017 1185 l 876 1004 l 633 1004 m 590 -35 q 407 -9 492 -35 q 258 61 321 16 q 148 167 194 106 q 79 302 102 229 q 56 457 56 376 q 79 612 56 538 q 148 747 102 686 q 258 853 194 808 q 407 924 321 899 q 590 949 492 949 q 814 910 712 949 q 983 805 916 871 q 1088 648 1050 738 q 1125 457 1125 559 q 1088 266 1125 355 q 983 110 1050 176 q 814 4 916 43 q 590 -35 712 -35 m 435 293 q 465 261 435 293 q 590 229 495 229 q 745 293 685 229 q 806 457 806 357 q 745 621 806 557 q 590 685 685 685 q 435 621 495 685 q 375 457 375 557 q 435 293 375 357 z "},"Œ":{"ha":1731,"x_min":52,"x_max":1662,"o":"m 586 -35 q 361 3 463 -35 q 193 106 260 41 q 89 260 125 172 q 52 450 52 349 q 75 606 52 532 q 143 743 98 680 q 253 851 189 805 q 402 923 317 897 q 586 949 488 949 q 802 913 705 949 l 1662 913 l 1662 648 l 1121 648 l 1121 568 l 1579 568 l 1579 350 l 1121 350 l 1121 264 l 1662 264 l 1662 0 l 802 0 q 586 -35 703 -35 m 589 236 q 742 296 683 236 q 802 456 802 357 q 742 615 802 553 q 589 677 682 677 q 431 615 491 677 q 371 456 371 553 q 431 297 371 359 q 589 236 491 236 z "},"œ":{"ha":1731,"x_min":52,"x_max":1662,"o":"m 586 -35 q 361 3 463 -35 q 193 106 260 41 q 89 260 125 172 q 52 450 52 349 q 75 606 52 532 q 143 743 98 680 q 253 851 189 805 q 402 923 317 897 q 586 949 488 949 q 802 913 705 949 l 1662 913 l 1662 648 l 1121 648 l 1121 568 l 1579 568 l 1579 350 l 1121 350 l 1121 264 l 1662 264 l 1662 0 l 802 0 q 586 -35 703 -35 m 589 236 q 742 296 683 236 q 802 456 802 357 q 742 615 802 553 q 589 677 682 677 q 431 615 491 677 q 371 456 371 553 q 431 297 371 359 q 589 236 491 236 z "},"Ŕ":{"ha":1211,"x_min":104,"x_max":1186,"o":"m 397 1004 l 538 1197 l 808 1197 l 668 1004 l 397 1004 m 907 -26 q 670 41 778 -26 q 424 271 562 108 l 424 0 l 104 0 l 104 913 l 747 913 q 896 887 829 913 q 1004 815 962 861 q 1070 709 1047 769 q 1093 581 1093 649 q 1066 450 1093 506 q 991 363 1039 395 q 888 317 944 332 q 765 302 831 302 q 932 237 827 237 q 1019 252 981 237 q 1072 286 1056 267 l 1186 77 q 1078 5 1154 37 q 907 -26 1003 -26 m 424 494 l 685 494 q 751 518 726 494 q 775 578 775 543 q 751 637 775 613 q 685 661 726 661 l 424 661 l 424 494 z "},"ŕ":{"ha":1211,"x_min":104,"x_max":1186,"o":"m 397 1004 l 538 1197 l 808 1197 l 668 1004 l 397 1004 m 907 -26 q 670 41 778 -26 q 424 271 562 108 l 424 0 l 104 0 l 104 913 l 747 913 q 896 887 829 913 q 1004 815 962 861 q 1070 709 1047 769 q 1093 581 1093 649 q 1066 450 1093 506 q 991 363 1039 395 q 888 317 944 332 q 765 302 831 302 q 932 237 827 237 q 1019 252 981 237 q 1072 286 1056 267 l 1186 77 q 1078 5 1154 37 q 907 -26 1003 -26 m 424 494 l 685 494 q 751 518 726 494 q 775 578 775 543 q 751 637 775 613 q 685 661 726 661 l 424 661 l 424 494 z "},"Ŗ":{"ha":1211,"x_min":104,"x_max":1186,"o":"m 907 -26 q 670 41 778 -26 q 424 271 562 108 l 424 0 l 104 0 l 104 913 l 747 913 q 896 887 829 913 q 1004 815 962 861 q 1070 709 1047 769 q 1093 581 1093 649 q 1066 450 1093 506 q 991 363 1039 395 q 888 317 944 332 q 765 302 831 302 q 932 237 827 237 q 1019 252 981 237 q 1072 286 1056 267 l 1186 77 q 1078 5 1154 37 q 907 -26 1003 -26 m 424 494 l 685 494 q 751 518 726 494 q 775 578 775 543 q 751 637 775 613 q 685 661 726 661 l 424 661 l 424 494 m 501 -418 l 501 -86 l 710 -86 l 710 -245 l 593 -418 l 501 -418 z "},"ŗ":{"ha":1211,"x_min":104,"x_max":1186,"o":"m 389 1004 l 218 1197 l 489 1197 l 546 1132 l 604 1197 l 875 1197 l 722 1004 l 389 1004 m 907 -26 q 670 41 778 -26 q 424 271 562 108 l 424 0 l 104 0 l 104 913 l 747 913 q 896 887 829 913 q 1004 815 962 861 q 1070 709 1047 769 q 1093 581 1093 649 q 1066 450 1093 506 q 991 363 1039 395 q 888 317 944 332 q 765 302 831 302 q 932 237 827 237 q 1019 252 981 237 q 1072 286 1056 267 l 1186 77 q 1078 5 1154 37 q 907 -26 1003 -26 m 424 494 l 685 494 q 751 518 726 494 q 775 578 775 543 q 751 637 775 613 q 685 661 726 661 l 424 661 l 424 494 z "},"Ř":{"ha":1211,"x_min":104,"x_max":1186,"o":"m 389 1004 l 218 1197 l 489 1197 l 546 1132 l 604 1197 l 875 1197 l 722 1004 l 389 1004 m 907 -26 q 670 41 778 -26 q 424 271 562 108 l 424 0 l 104 0 l 104 913 l 747 913 q 896 887 829 913 q 1004 815 962 861 q 1070 709 1047 769 q 1093 581 1093 649 q 1066 450 1093 506 q 991 363 1039 395 q 888 317 944 332 q 765 302 831 302 q 932 237 827 237 q 1019 252 981 237 q 1072 286 1056 267 l 1186 77 q 1078 5 1154 37 q 907 -26 1003 -26 m 424 494 l 685 494 q 751 518 726 494 q 775 578 775 543 q 751 637 775 613 q 685 661 726 661 l 424 661 l 424 494 z "},"ř":{"ha":1211,"x_min":104,"x_max":1186,"o":"m 907 -26 q 670 41 778 -26 q 424 271 562 108 l 424 0 l 104 0 l 104 913 l 747 913 q 896 887 829 913 q 1004 815 962 861 q 1070 709 1047 769 q 1093 581 1093 649 q 1066 450 1093 506 q 991 363 1039 395 q 888 317 944 332 q 765 302 831 302 q 932 237 827 237 q 1019 252 981 237 q 1072 286 1056 267 l 1186 77 q 1078 5 1154 37 q 907 -26 1003 -26 m 424 494 l 685 494 q 751 518 726 494 q 775 578 775 543 q 751 637 775 613 q 685 661 726 661 l 424 661 l 424 494 m 501 -418 l 501 -86 l 710 -86 l 710 -245 l 593 -418 l 501 -418 z "},"Ś":{"ha":932,"x_min":56,"x_max":876,"o":"m 325 1004 l 465 1197 l 736 1197 l 596 1004 l 325 1004 m 475 -33 q 234 5 349 -33 q 56 92 119 44 l 158 313 q 309 245 219 275 q 482 215 399 215 q 564 228 537 215 q 591 262 591 241 q 586 280 591 272 q 568 294 581 288 q 542 305 555 300 q 507 315 530 310 q 467 323 484 320 q 420 332 450 326 q 371 340 389 337 q 284 361 323 350 q 204 394 246 373 q 135 444 163 416 q 90 515 108 471 q 72 612 72 558 q 181 847 72 755 q 473 939 291 939 q 689 900 589 939 q 840 815 789 862 l 730 616 q 603 668 678 645 q 461 692 528 692 q 377 679 407 692 q 347 644 347 666 q 391 607 347 621 q 578 566 435 593 q 631 555 611 559 q 687 539 652 550 q 744 515 722 528 q 794 482 767 503 q 838 435 822 460 q 865 372 854 410 q 876 290 876 335 q 770 55 876 143 q 475 -33 664 -33 z "},"ś":{"ha":932,"x_min":56,"x_max":876,"o":"m 325 1004 l 465 1197 l 736 1197 l 596 1004 l 325 1004 m 475 -33 q 234 5 349 -33 q 56 92 119 44 l 158 313 q 309 245 219 275 q 482 215 399 215 q 564 228 537 215 q 591 262 591 241 q 586 280 591 272 q 568 294 581 288 q 542 305 555 300 q 507 315 530 310 q 467 323 484 320 q 420 332 450 326 q 371 340 389 337 q 284 361 323 350 q 204 394 246 373 q 135 444 163 416 q 90 515 108 471 q 72 612 72 558 q 181 847 72 755 q 473 939 291 939 q 689 900 589 939 q 840 815 789 862 l 730 616 q 603 668 678 645 q 461 692 528 692 q 377 679 407 692 q 347 644 347 666 q 391 607 347 621 q 578 566 435 593 q 631 555 611 559 q 687 539 652 550 q 744 515 722 528 q 794 482 767 503 q 838 435 822 460 q 865 372 854 410 q 876 290 876 335 q 770 55 876 143 q 475 -33 664 -33 z "},"Ŝ":{"ha":932,"x_min":56,"x_max":876,"o":"m 146 1004 l 317 1197 l 650 1197 l 803 1004 l 532 1004 l 473 1069 l 416 1004 l 146 1004 m 475 -33 q 234 5 349 -33 q 56 92 119 44 l 158 313 q 309 245 219 275 q 482 215 399 215 q 564 228 537 215 q 591 262 591 241 q 586 280 591 272 q 568 294 581 288 q 542 305 555 300 q 507 315 530 310 q 467 323 484 320 q 420 332 450 326 q 371 340 389 337 q 284 361 323 350 q 204 394 246 373 q 135 444 163 416 q 90 515 108 471 q 72 612 72 558 q 181 847 72 755 q 473 939 291 939 q 689 900 589 939 q 840 815 789 862 l 730 616 q 603 668 678 645 q 461 692 528 692 q 377 679 407 692 q 347 644 347 666 q 391 607 347 621 q 578 566 435 593 q 631 555 611 559 q 687 539 652 550 q 744 515 722 528 q 794 482 767 503 q 838 435 822 460 q 865 372 854 410 q 876 290 876 335 q 770 55 876 143 q 475 -33 664 -33 z "},"ŝ":{"ha":932,"x_min":56,"x_max":876,"o":"m 146 1004 l 317 1197 l 650 1197 l 803 1004 l 532 1004 l 473 1069 l 416 1004 l 146 1004 m 475 -33 q 234 5 349 -33 q 56 92 119 44 l 158 313 q 309 245 219 275 q 482 215 399 215 q 564 228 537 215 q 591 262 591 241 q 586 280 591 272 q 568 294 581 288 q 542 305 555 300 q 507 315 530 310 q 467 323 484 320 q 420 332 450 326 q 371 340 389 337 q 284 361 323 350 q 204 394 246 373 q 135 444 163 416 q 90 515 108 471 q 72 612 72 558 q 181 847 72 755 q 473 939 291 939 q 689 900 589 939 q 840 815 789 862 l 730 616 q 603 668 678 645 q 461 692 528 692 q 377 679 407 692 q 347 644 347 666 q 391 607 347 621 q 578 566 435 593 q 631 555 611 559 q 687 539 652 550 q 744 515 722 528 q 794 482 767 503 q 838 435 822 460 q 865 372 854 410 q 876 290 876 335 q 770 55 876 143 q 475 -33 664 -33 z "},"Ş":{"ha":932,"x_min":56,"x_max":876,"o":"m 876 290 q 793 76 876 161 q 561 -28 711 -8 l 528 -78 q 562 -79 547 -78 q 598 -83 577 -79 q 636 -92 620 -86 q 669 -108 652 -97 q 697 -134 686 -119 q 715 -171 708 -149 q 722 -222 722 -194 q 680 -338 722 -298 q 566 -378 637 -378 l 350 -378 l 323 -264 l 467 -264 q 524 -256 505 -264 q 542 -222 542 -249 q 536 -200 542 -209 q 516 -189 530 -192 q 494 -185 503 -186 q 467 -184 485 -184 l 309 -184 l 293 -131 l 372 -26 q 191 21 275 -13 q 56 92 106 55 l 158 313 q 309 245 219 275 q 482 215 399 215 q 564 228 537 215 q 591 262 591 241 q 586 280 591 272 q 568 294 581 288 q 542 305 555 300 q 507 315 530 310 q 467 323 484 320 q 420 332 450 326 q 371 340 389 337 q 284 361 323 350 q 204 394 246 373 q 135 444 163 416 q 90 515 108 471 q 72 612 72 558 q 181 847 72 755 q 473 939 291 939 q 689 900 589 939 q 840 815 789 862 l 730 616 q 603 668 678 645 q 461 692 528 692 q 377 679 407 692 q 347 644 347 666 q 391 607 347 621 q 578 566 435 593 q 631 555 611 559 q 687 539 652 550 q 744 515 722 528 q 794 482 767 503 q 838 435 822 460 q 865 372 854 410 q 876 290 876 335 z "},"ş":{"ha":932,"x_min":56,"x_max":876,"o":"m 876 290 q 793 76 876 161 q 561 -28 711 -8 l 528 -78 q 562 -79 547 -78 q 598 -83 577 -79 q 636 -92 620 -86 q 669 -108 652 -97 q 697 -134 686 -119 q 715 -171 708 -149 q 722 -222 722 -194 q 680 -338 722 -298 q 566 -378 637 -378 l 350 -378 l 323 -264 l 467 -264 q 524 -256 505 -264 q 542 -222 542 -249 q 536 -200 542 -209 q 516 -189 530 -192 q 494 -185 503 -186 q 467 -184 485 -184 l 309 -184 l 293 -131 l 372 -26 q 191 21 275 -13 q 56 92 106 55 l 158 313 q 309 245 219 275 q 482 215 399 215 q 564 228 537 215 q 591 262 591 241 q 586 280 591 272 q 568 294 581 288 q 542 305 555 300 q 507 315 530 310 q 467 323 484 320 q 420 332 450 326 q 371 340 389 337 q 284 361 323 350 q 204 394 246 373 q 135 444 163 416 q 90 515 108 471 q 72 612 72 558 q 181 847 72 755 q 473 939 291 939 q 689 900 589 939 q 840 815 789 862 l 730 616 q 603 668 678 645 q 461 692 528 692 q 377 679 407 692 q 347 644 347 666 q 391 607 347 621 q 578 566 435 593 q 631 555 611 559 q 687 539 652 550 q 744 515 722 528 q 794 482 767 503 q 838 435 822 460 q 865 372 854 410 q 876 290 876 335 z "},"Š":{"ha":932,"x_min":56,"x_max":876,"o":"m 317 1004 l 146 1197 l 416 1197 l 473 1132 l 532 1197 l 803 1197 l 650 1004 l 317 1004 m 475 -33 q 234 5 349 -33 q 56 92 119 44 l 158 313 q 309 245 219 275 q 482 215 399 215 q 564 228 537 215 q 591 262 591 241 q 586 280 591 272 q 568 294 581 288 q 542 305 555 300 q 507 315 530 310 q 467 323 484 320 q 420 332 450 326 q 371 340 389 337 q 284 361 323 350 q 204 394 246 373 q 135 444 163 416 q 90 515 108 471 q 72 612 72 558 q 181 847 72 755 q 473 939 291 939 q 689 900 589 939 q 840 815 789 862 l 730 616 q 603 668 678 645 q 461 692 528 692 q 377 679 407 692 q 347 644 347 666 q 391 607 347 621 q 578 566 435 593 q 631 555 611 559 q 687 539 652 550 q 744 515 722 528 q 794 482 767 503 q 838 435 822 460 q 865 372 854 410 q 876 290 876 335 q 770 55 876 143 q 475 -33 664 -33 z "},"š":{"ha":932,"x_min":56,"x_max":876,"o":"m 317 1004 l 146 1197 l 416 1197 l 473 1132 l 532 1197 l 803 1197 l 650 1004 l 317 1004 m 475 -33 q 234 5 349 -33 q 56 92 119 44 l 158 313 q 309 245 219 275 q 482 215 399 215 q 564 228 537 215 q 591 262 591 241 q 586 280 591 272 q 568 294 581 288 q 542 305 555 300 q 507 315 530 310 q 467 323 484 320 q 420 332 450 326 q 371 340 389 337 q 284 361 323 350 q 204 394 246 373 q 135 444 163 416 q 90 515 108 471 q 72 612 72 558 q 181 847 72 755 q 473 939 291 939 q 689 900 589 939 q 840 815 789 862 l 730 616 q 603 668 678 645 q 461 692 528 692 q 377 679 407 692 q 347 644 347 666 q 391 607 347 621 q 578 566 435 593 q 631 555 611 559 q 687 539 652 550 q 744 515 722 528 q 794 482 767 503 q 838 435 822 460 q 865 372 854 410 q 876 290 876 335 q 770 55 876 143 q 475 -33 664 -33 z "},"Ţ":{"ha":980,"x_min":28,"x_max":953,"o":"m 643 0 l 575 0 l 551 -36 q 586 -37 571 -36 q 622 -41 601 -37 q 660 -50 644 -44 q 692 -66 675 -55 q 721 -92 709 -77 q 739 -129 732 -106 q 746 -180 746 -152 q 703 -296 746 -256 q 589 -336 661 -336 l 374 -336 l 347 -222 l 490 -222 q 547 -215 528 -222 q 566 -180 566 -207 q 561 -162 566 -170 q 550 -151 555 -154 q 531 -145 544 -147 q 512 -143 518 -143 q 490 -143 506 -143 l 332 -143 l 317 -89 l 383 0 l 338 0 l 338 635 l 28 635 l 28 913 l 953 913 l 953 635 l 643 635 l 643 0 z "},"ţ":{"ha":980,"x_min":28,"x_max":953,"o":"m 643 0 l 575 0 l 551 -36 q 586 -37 571 -36 q 622 -41 601 -37 q 660 -50 644 -44 q 692 -66 675 -55 q 721 -92 709 -77 q 739 -129 732 -106 q 746 -180 746 -152 q 703 -296 746 -256 q 589 -336 661 -336 l 374 -336 l 347 -222 l 490 -222 q 547 -215 528 -222 q 566 -180 566 -207 q 561 -162 566 -170 q 550 -151 555 -154 q 531 -145 544 -147 q 512 -143 518 -143 q 490 -143 506 -143 l 332 -143 l 317 -89 l 383 0 l 338 0 l 338 635 l 28 635 l 28 913 l 953 913 l 953 635 l 643 635 l 643 0 z "},"Ť":{"ha":980,"x_min":28,"x_max":953,"o":"m 334 1004 l 163 1197 l 433 1197 l 490 1132 l 549 1197 l 819 1197 l 667 1004 l 334 1004 m 338 0 l 338 635 l 28 635 l 28 913 l 953 913 l 953 635 l 643 635 l 643 0 l 338 0 z "},"ť":{"ha":980,"x_min":28,"x_max":953,"o":"m 334 1004 l 163 1197 l 433 1197 l 490 1132 l 549 1197 l 819 1197 l 667 1004 l 334 1004 m 338 0 l 338 635 l 28 635 l 28 913 l 953 913 l 953 635 l 643 635 l 643 0 l 338 0 z "},"Ŧ":{"ha":980,"x_min":28,"x_max":953,"o":"m 953 635 l 643 635 l 643 469 l 808 469 l 808 343 l 643 343 l 643 0 l 338 0 l 338 343 l 178 343 l 178 469 l 338 469 l 338 635 l 28 635 l 28 913 l 953 913 l 953 635 z "},"ŧ":{"ha":980,"x_min":28,"x_max":953,"o":"m 953 635 l 643 635 l 643 469 l 808 469 l 808 343 l 643 343 l 643 0 l 338 0 l 338 343 l 178 343 l 178 469 l 338 469 l 338 635 l 28 635 l 28 913 l 953 913 l 953 635 z "},"Ũ":{"ha":1111,"x_min":75,"x_max":1036,"o":"m 290 1003 l 197 1141 q 282 1211 226 1179 q 404 1243 339 1243 q 492 1233 452 1243 q 556 1210 533 1222 q 611 1187 580 1198 q 672 1177 642 1177 q 757 1199 716 1177 q 819 1246 798 1220 l 913 1107 q 818 1037 875 1069 q 713 1006 762 1006 q 619 1016 662 1006 q 553 1039 576 1027 q 499 1062 530 1051 q 437 1072 468 1072 q 353 1050 393 1072 q 290 1003 312 1029 m 704 -13 q 668 -22 704 -13 q 555 -32 633 -32 q 407 -13 478 -32 q 275 46 336 7 q 170 140 215 85 q 100 273 125 196 q 75 441 75 351 l 75 913 l 395 913 l 395 428 q 439 302 395 352 q 555 253 484 253 q 672 302 627 253 q 717 428 717 352 l 717 913 l 1036 913 l 1036 441 q 1011 273 1036 351 q 941 140 985 196 q 836 46 897 85 q 704 -13 775 7 z "},"ũ":{"ha":1111,"x_min":75,"x_max":1036,"o":"m 290 1003 l 197 1141 q 282 1211 226 1179 q 404 1243 339 1243 q 492 1233 452 1243 q 556 1210 533 1222 q 611 1187 580 1198 q 672 1177 642 1177 q 757 1199 716 1177 q 819 1246 798 1220 l 913 1107 q 818 1037 875 1069 q 713 1006 762 1006 q 619 1016 662 1006 q 553 1039 576 1027 q 499 1062 530 1051 q 437 1072 468 1072 q 353 1050 393 1072 q 290 1003 312 1029 m 704 -13 q 668 -22 704 -13 q 555 -32 633 -32 q 407 -13 478 -32 q 275 46 336 7 q 170 140 215 85 q 100 273 125 196 q 75 441 75 351 l 75 913 l 395 913 l 395 428 q 439 302 395 352 q 555 253 484 253 q 672 302 627 253 q 717 428 717 352 l 717 913 l 1036 913 l 1036 441 q 1011 273 1036 351 q 941 140 985 196 q 836 46 897 85 q 704 -13 775 7 z "},"Ū":{"ha":1111,"x_min":75,"x_max":1036,"o":"m 240 1006 l 240 1132 l 871 1132 l 871 1006 l 240 1006 m 704 -13 q 668 -22 704 -13 q 555 -32 633 -32 q 407 -13 478 -32 q 275 46 336 7 q 170 140 215 85 q 100 273 125 196 q 75 441 75 351 l 75 913 l 395 913 l 395 428 q 439 302 395 352 q 555 253 484 253 q 672 302 627 253 q 717 428 717 352 l 717 913 l 1036 913 l 1036 441 q 1011 273 1036 351 q 941 140 985 196 q 836 46 897 85 q 704 -13 775 7 z "},"ū":{"ha":1111,"x_min":75,"x_max":1036,"o":"m 240 1006 l 240 1132 l 871 1132 l 871 1006 l 240 1006 m 704 -13 q 668 -22 704 -13 q 555 -32 633 -32 q 407 -13 478 -32 q 275 46 336 7 q 170 140 215 85 q 100 273 125 196 q 75 441 75 351 l 75 913 l 395 913 l 395 428 q 439 302 395 352 q 555 253 484 253 q 672 302 627 253 q 717 428 717 352 l 717 913 l 1036 913 l 1036 441 q 1011 273 1036 351 q 941 140 985 196 q 836 46 897 85 q 704 -13 775 7 z "},"Ŭ":{"ha":1111,"x_min":75,"x_max":1036,"o":"m 479 1018 q 397 1036 433 1018 q 341 1084 361 1055 q 309 1147 320 1114 q 297 1213 298 1179 l 485 1213 q 503 1168 485 1188 q 555 1147 521 1147 q 610 1168 591 1147 q 628 1213 628 1188 l 815 1213 q 801 1146 813 1179 q 768 1084 789 1114 q 712 1036 747 1055 q 633 1018 677 1018 l 479 1018 m 704 -13 q 668 -22 704 -13 q 555 -32 633 -32 q 407 -13 478 -32 q 275 46 336 7 q 170 140 215 85 q 100 273 125 196 q 75 441 75 351 l 75 913 l 395 913 l 395 428 q 439 302 395 352 q 555 253 484 253 q 672 302 627 253 q 717 428 717 352 l 717 913 l 1036 913 l 1036 441 q 1011 273 1036 351 q 941 140 985 196 q 836 46 897 85 q 704 -13 775 7 z "},"ŭ":{"ha":1111,"x_min":75,"x_max":1036,"o":"m 479 1018 q 397 1036 433 1018 q 341 1084 361 1055 q 309 1147 320 1114 q 297 1213 298 1179 l 485 1213 q 503 1168 485 1188 q 555 1147 521 1147 q 610 1168 591 1147 q 628 1213 628 1188 l 815 1213 q 801 1146 813 1179 q 768 1084 789 1114 q 712 1036 747 1055 q 633 1018 677 1018 l 479 1018 m 704 -13 q 668 -22 704 -13 q 555 -32 633 -32 q 407 -13 478 -32 q 275 46 336 7 q 170 140 215 85 q 100 273 125 196 q 75 441 75 351 l 75 913 l 395 913 l 395 428 q 439 302 395 352 q 555 253 484 253 q 672 302 627 253 q 717 428 717 352 l 717 913 l 1036 913 l 1036 441 q 1011 273 1036 351 q 941 140 985 196 q 836 46 897 85 q 704 -13 775 7 z "},"Ů":{"ha":1111,"x_min":75,"x_max":1036,"o":"m 717 913 l 1036 913 l 1036 441 q 1011 273 1036 351 q 941 140 985 196 q 836 46 897 85 q 704 -13 775 7 q 555 -32 633 -32 q 407 -13 478 -32 q 275 46 336 7 q 170 140 215 85 q 100 273 125 196 q 75 441 75 351 l 75 913 l 395 913 l 395 428 q 439 302 395 352 q 555 253 484 253 q 672 302 627 253 q 717 428 717 352 l 717 913 q 555 844 662 844 q 411 896 467 844 q 354 1034 354 947 q 411 1171 354 1120 q 555 1222 467 1222 q 701 1171 645 1222 q 757 1034 757 1120 q 717 913 757 959 m 505 987 q 515 977 505 987 q 555 968 524 968 q 606 987 587 968 q 625 1034 625 1006 q 606 1080 625 1061 q 555 1099 587 1099 q 505 1080 524 1099 q 486 1034 486 1061 q 505 987 486 1006 z "},"ů":{"ha":1111,"x_min":75,"x_max":1036,"o":"m 555 859 q 411 910 467 859 q 354 1047 354 961 q 411 1185 354 1133 q 555 1236 467 1236 q 701 1185 644 1236 q 757 1047 757 1134 q 701 909 757 960 q 555 859 645 859 m 505 1001 q 515 991 505 1001 q 555 982 524 982 q 606 1001 587 982 q 625 1047 625 1019 q 606 1094 625 1075 q 555 1112 587 1112 q 505 1094 524 1112 q 486 1047 486 1075 q 505 1001 486 1019 m 704 -13 q 668 -22 704 -13 q 555 -32 633 -32 q 407 -13 478 -32 q 275 46 336 7 q 170 140 215 85 q 100 273 125 196 q 75 441 75 351 l 75 913 l 395 913 l 395 428 q 439 302 395 352 q 555 253 484 253 q 672 302 627 253 q 717 428 717 352 l 717 913 l 1036 913 l 1036 441 q 1011 273 1036 351 q 941 140 985 196 q 836 46 897 85 q 704 -13 775 7 z "},"Ű":{"ha":1111,"x_min":75,"x_max":1036,"o":"m 279 1018 l 419 1198 l 663 1198 l 522 1018 l 279 1018 m 599 1018 l 739 1198 l 982 1198 l 842 1018 l 599 1018 m 704 -13 q 668 -22 704 -13 q 555 -32 633 -32 q 407 -13 478 -32 q 275 46 336 7 q 170 140 215 85 q 100 273 125 196 q 75 441 75 351 l 75 913 l 395 913 l 395 428 q 439 302 395 352 q 555 253 484 253 q 672 302 627 253 q 717 428 717 352 l 717 913 l 1036 913 l 1036 441 q 1011 273 1036 351 q 941 140 985 196 q 836 46 897 85 q 704 -13 775 7 z "},"ű":{"ha":1111,"x_min":75,"x_max":1036,"o":"m 279 1018 l 419 1198 l 663 1198 l 522 1018 l 279 1018 m 599 1018 l 739 1198 l 982 1198 l 842 1018 l 599 1018 m 704 -13 q 668 -22 704 -13 q 555 -32 633 -32 q 407 -13 478 -32 q 275 46 336 7 q 170 140 215 85 q 100 273 125 196 q 75 441 75 351 l 75 913 l 395 913 l 395 428 q 439 302 395 352 q 555 253 484 253 q 672 302 627 253 q 717 428 717 352 l 717 913 l 1036 913 l 1036 441 q 1011 273 1036 351 q 941 140 985 196 q 836 46 897 85 q 704 -13 775 7 z "},"Ų":{"ha":1111,"x_min":75,"x_max":1036,"o":"m 717 913 l 1036 913 l 1036 441 q 952 157 1036 271 q 729 -4 868 42 q 555 -157 555 -98 q 569 -185 555 -173 q 604 -204 583 -197 q 648 -213 626 -210 q 690 -216 669 -216 l 690 -340 q 581 -337 630 -340 q 484 -322 532 -333 q 403 -295 435 -312 q 350 -248 370 -277 q 330 -180 330 -219 q 452 -22 330 -84 q 304 30 372 -7 q 184 124 236 66 q 104 262 133 181 q 75 441 75 344 l 75 913 l 395 913 l 395 428 q 439 302 395 352 q 555 253 484 253 q 672 302 627 253 q 717 428 717 352 l 717 913 z "},"ų":{"ha":1111,"x_min":75,"x_max":1036,"o":"m 717 913 l 1036 913 l 1036 441 q 952 157 1036 271 q 729 -4 868 42 q 555 -157 555 -98 q 569 -185 555 -173 q 604 -204 583 -197 q 648 -213 626 -210 q 690 -216 669 -216 l 690 -340 q 581 -337 630 -340 q 484 -322 532 -333 q 403 -295 435 -312 q 350 -248 370 -277 q 330 -180 330 -219 q 452 -22 330 -84 q 304 30 372 -7 q 184 124 236 66 q 104 262 133 181 q 75 441 75 344 l 75 913 l 395 913 l 395 428 q 439 302 395 352 q 555 253 484 253 q 672 302 627 253 q 717 428 717 352 l 717 913 z "},"Ŵ":{"ha":1550,"x_min":14,"x_max":1536,"o":"m 447 1004 l 618 1197 l 951 1197 l 1104 1004 l 833 1004 l 775 1069 l 718 1004 l 447 1004 m 278 0 l 14 913 l 380 913 l 504 371 l 647 913 l 903 913 l 1046 371 l 1169 913 l 1536 913 l 1272 0 l 889 0 l 775 447 l 661 0 l 278 0 z "},"ŵ":{"ha":1550,"x_min":14,"x_max":1536,"o":"m 447 1004 l 618 1197 l 951 1197 l 1104 1004 l 833 1004 l 775 1069 l 718 1004 l 447 1004 m 278 0 l 14 913 l 380 913 l 504 371 l 647 913 l 903 913 l 1046 371 l 1169 913 l 1536 913 l 1272 0 l 889 0 l 775 447 l 661 0 l 278 0 z "},"Ŷ":{"ha":1094,"x_min":14,"x_max":1080,"o":"m 220 1004 l 390 1197 l 724 1197 l 876 1004 l 606 1004 l 547 1069 l 490 1004 l 220 1004 m 386 0 l 386 265 l 14 913 l 367 913 l 547 583 l 725 913 l 1080 913 l 705 265 l 705 0 l 386 0 z "},"ŷ":{"ha":1094,"x_min":14,"x_max":1080,"o":"m 220 1004 l 390 1197 l 724 1197 l 876 1004 l 606 1004 l 547 1069 l 490 1004 l 220 1004 m 386 0 l 386 265 l 14 913 l 367 913 l 547 583 l 725 913 l 1080 913 l 705 265 l 705 0 l 386 0 z "},"Ÿ":{"ha":1094,"x_min":14,"x_max":1080,"o":"m 236 991 l 236 1169 l 492 1169 l 492 991 l 236 991 m 603 991 l 603 1169 l 859 1169 l 859 991 l 603 991 m 386 0 l 386 265 l 14 913 l 367 913 l 547 583 l 725 913 l 1080 913 l 705 265 l 705 0 l 386 0 z "},"Ź":{"ha":1054,"x_min":28,"x_max":1026,"o":"m 379 1004 l 519 1197 l 790 1197 l 650 1004 l 379 1004 m 28 0 l 467 648 l 57 648 l 57 913 l 1026 913 l 593 264 l 1026 264 l 1026 0 l 28 0 z "},"ź":{"ha":1054,"x_min":28,"x_max":1026,"o":"m 379 1004 l 519 1197 l 790 1197 l 650 1004 l 379 1004 m 28 0 l 467 648 l 57 648 l 57 913 l 1026 913 l 593 264 l 1026 264 l 1026 0 l 28 0 z "},"Ż":{"ha":1054,"x_min":28,"x_max":1026,"o":"m 416 991 l 416 1185 l 639 1185 l 639 991 l 416 991 m 28 0 l 467 648 l 57 648 l 57 913 l 1026 913 l 593 264 l 1026 264 l 1026 0 l 28 0 z "},"ż":{"ha":1054,"x_min":28,"x_max":1026,"o":"m 416 991 l 416 1185 l 639 1185 l 639 991 l 416 991 m 28 0 l 467 648 l 57 648 l 57 913 l 1026 913 l 593 264 l 1026 264 l 1026 0 l 28 0 z "},"Ž":{"ha":1054,"x_min":28,"x_max":1026,"o":"m 371 1004 l 200 1197 l 471 1197 l 528 1132 l 586 1197 l 857 1197 l 704 1004 l 371 1004 m 28 0 l 467 648 l 57 648 l 57 913 l 1026 913 l 593 264 l 1026 264 l 1026 0 l 28 0 z "},"ž":{"ha":1054,"x_min":28,"x_max":1026,"o":"m 371 1004 l 200 1197 l 471 1197 l 528 1132 l 586 1197 l 857 1197 l 704 1004 l 371 1004 m 28 0 l 467 648 l 57 648 l 57 913 l 1026 913 l 593 264 l 1026 264 l 1026 0 l 28 0 z "},"Ǎ":{"ha":1217,"x_min":14,"x_max":1203,"o":"m 452 1004 l 281 1197 l 551 1197 l 608 1132 l 667 1197 l 937 1197 l 785 1004 l 452 1004 m 14 0 l 422 913 l 794 913 l 1203 0 l 850 0 l 806 110 l 411 110 l 367 0 l 14 0 m 513 359 l 704 359 l 610 597 l 607 597 l 513 359 z "},"ǎ":{"ha":1217,"x_min":14,"x_max":1203,"o":"m 452 1004 l 281 1197 l 551 1197 l 608 1132 l 667 1197 l 937 1197 l 785 1004 l 452 1004 m 14 0 l 422 913 l 794 913 l 1203 0 l 850 0 l 806 110 l 411 110 l 367 0 l 14 0 m 513 359 l 704 359 l 610 597 l 607 597 l 513 359 z "},"Ǐ":{"ha":528,"x_min":-62,"x_max":595,"o":"m 109 1004 l -62 1197 l 208 1197 l 265 1132 l 323 1197 l 595 1197 l 441 1004 l 109 1004 m 104 0 l 104 913 l 424 913 l 424 0 l 104 0 z "},"ǐ":{"ha":528,"x_min":-62,"x_max":595,"o":"m 109 1004 l -62 1197 l 208 1197 l 265 1132 l 323 1197 l 595 1197 l 441 1004 l 109 1004 m 104 0 l 104 913 l 424 913 l 424 0 l 104 0 z "},"Ǒ":{"ha":1180,"x_min":56,"x_max":1125,"o":"m 433 1004 l 262 1197 l 533 1197 l 590 1132 l 648 1197 l 920 1197 l 766 1004 l 433 1004 m 590 -35 q 407 -9 492 -35 q 258 61 321 16 q 148 167 194 106 q 79 302 102 229 q 56 457 56 376 q 79 612 56 538 q 148 747 102 686 q 258 853 194 808 q 407 924 321 899 q 590 949 492 949 q 814 910 712 949 q 983 805 916 871 q 1088 648 1050 738 q 1125 457 1125 559 q 1088 266 1125 355 q 983 110 1050 176 q 814 4 916 43 q 590 -35 712 -35 m 435 293 q 465 261 435 293 q 590 229 495 229 q 745 293 685 229 q 806 457 806 357 q 745 621 806 557 q 590 685 685 685 q 435 621 495 685 q 375 457 375 557 q 435 293 375 357 z "},"ǒ":{"ha":1180,"x_min":56,"x_max":1125,"o":"m 433 1004 l 262 1197 l 533 1197 l 590 1132 l 648 1197 l 920 1197 l 766 1004 l 433 1004 m 590 -35 q 407 -9 492 -35 q 258 61 321 16 q 148 167 194 106 q 79 302 102 229 q 56 457 56 376 q 79 612 56 538 q 148 747 102 686 q 258 853 194 808 q 407 924 321 899 q 590 949 492 949 q 814 910 712 949 q 983 805 916 871 q 1088 648 1050 738 q 1125 457 1125 559 q 1088 266 1125 355 q 983 110 1050 176 q 814 4 916 43 q 590 -35 712 -35 m 435 293 q 465 261 435 293 q 590 229 495 229 q 745 293 685 229 q 806 457 806 357 q 745 621 806 557 q 590 685 685 685 q 435 621 495 685 q 375 457 375 557 q 435 293 375 357 z "},"Ǔ":{"ha":1111,"x_min":75,"x_max":1036,"o":"m 399 1018 l 228 1211 l 498 1211 l 555 1146 l 614 1211 l 885 1211 l 732 1018 l 399 1018 m 704 -13 q 668 -22 704 -13 q 555 -32 633 -32 q 407 -13 478 -32 q 275 46 336 7 q 170 140 215 85 q 100 273 125 196 q 75 441 75 351 l 75 913 l 395 913 l 395 428 q 439 302 395 352 q 555 253 484 253 q 672 302 627 253 q 717 428 717 352 l 717 913 l 1036 913 l 1036 441 q 1011 273 1036 351 q 941 140 985 196 q 836 46 897 85 q 704 -13 775 7 z "},"ǔ":{"ha":1111,"x_min":75,"x_max":1036,"o":"m 399 1018 l 228 1211 l 498 1211 l 555 1146 l 614 1211 l 885 1211 l 732 1018 l 399 1018 m 704 -13 q 668 -22 704 -13 q 555 -32 633 -32 q 407 -13 478 -32 q 275 46 336 7 q 170 140 215 85 q 100 273 125 196 q 75 441 75 351 l 75 913 l 395 913 l 395 428 q 439 302 395 352 q 555 253 484 253 q 672 302 627 253 q 717 428 717 352 l 717 913 l 1036 913 l 1036 441 q 1011 273 1036 351 q 941 140 985 196 q 836 46 897 85 q 704 -13 775 7 z "},"Ǖ":{"ha":1111,"x_min":75,"x_max":1036,"o":"m 240 1276 l 240 1402 l 871 1402 l 871 1276 l 240 1276 m 244 1006 l 244 1183 l 500 1183 l 500 1006 l 244 1006 m 611 1006 l 611 1183 l 867 1183 l 867 1006 l 611 1006 m 704 -13 q 668 -22 704 -13 q 555 -32 633 -32 q 407 -13 478 -32 q 275 46 336 7 q 170 140 215 85 q 100 273 125 196 q 75 441 75 351 l 75 913 l 395 913 l 395 428 q 439 302 395 352 q 555 253 484 253 q 672 302 627 253 q 717 428 717 352 l 717 913 l 1036 913 l 1036 441 q 1011 273 1036 351 q 941 140 985 196 q 836 46 897 85 q 704 -13 775 7 z "},"ǖ":{"ha":1111,"x_min":75,"x_max":1036,"o":"m 240 1276 l 240 1402 l 871 1402 l 871 1276 l 240 1276 m 244 1006 l 244 1183 l 500 1183 l 500 1006 l 244 1006 m 611 1006 l 611 1183 l 867 1183 l 867 1006 l 611 1006 m 704 -13 q 668 -22 704 -13 q 555 -32 633 -32 q 407 -13 478 -32 q 275 46 336 7 q 170 140 215 85 q 100 273 125 196 q 75 441 75 351 l 75 913 l 395 913 l 395 428 q 439 302 395 352 q 555 253 484 253 q 672 302 627 253 q 717 428 717 352 l 717 913 l 1036 913 l 1036 441 q 1011 273 1036 351 q 941 140 985 196 q 836 46 897 85 q 704 -13 775 7 z "},"Ǘ":{"ha":1111,"x_min":75,"x_max":1036,"o":"m 407 1289 l 547 1482 l 818 1482 l 677 1289 l 407 1289 m 244 1006 l 244 1183 l 500 1183 l 500 1006 l 244 1006 m 611 1006 l 611 1183 l 867 1183 l 867 1006 l 611 1006 m 704 -13 q 668 -22 704 -13 q 555 -32 633 -32 q 407 -13 478 -32 q 275 46 336 7 q 170 140 215 85 q 100 273 125 196 q 75 441 75 351 l 75 913 l 395 913 l 395 428 q 439 302 395 352 q 555 253 484 253 q 672 302 627 253 q 717 428 717 352 l 717 913 l 1036 913 l 1036 441 q 1011 273 1036 351 q 941 140 985 196 q 836 46 897 85 q 704 -13 775 7 z "},"ǘ":{"ha":1111,"x_min":75,"x_max":1036,"o":"m 407 1289 l 547 1482 l 818 1482 l 677 1289 l 407 1289 m 244 1006 l 244 1183 l 500 1183 l 500 1006 l 244 1006 m 611 1006 l 611 1183 l 867 1183 l 867 1006 l 611 1006 m 704 -13 q 668 -22 704 -13 q 555 -32 633 -32 q 407 -13 478 -32 q 275 46 336 7 q 170 140 215 85 q 100 273 125 196 q 75 441 75 351 l 75 913 l 395 913 l 395 428 q 439 302 395 352 q 555 253 484 253 q 672 302 627 253 q 717 428 717 352 l 717 913 l 1036 913 l 1036 441 q 1011 273 1036 351 q 941 140 985 196 q 836 46 897 85 q 704 -13 775 7 z "},"Ǚ":{"ha":1111,"x_min":75,"x_max":1036,"o":"m 399 1289 l 228 1482 l 498 1482 l 555 1417 l 614 1482 l 885 1482 l 732 1289 l 399 1289 m 244 1006 l 244 1183 l 500 1183 l 500 1006 l 244 1006 m 611 1006 l 611 1183 l 867 1183 l 867 1006 l 611 1006 m 704 -13 q 668 -22 704 -13 q 555 -32 633 -32 q 407 -13 478 -32 q 275 46 336 7 q 170 140 215 85 q 100 273 125 196 q 75 441 75 351 l 75 913 l 395 913 l 395 428 q 439 302 395 352 q 555 253 484 253 q 672 302 627 253 q 717 428 717 352 l 717 913 l 1036 913 l 1036 441 q 1011 273 1036 351 q 941 140 985 196 q 836 46 897 85 q 704 -13 775 7 z "},"ǚ":{"ha":1111,"x_min":75,"x_max":1036,"o":"m 399 1289 l 228 1482 l 498 1482 l 555 1417 l 614 1482 l 885 1482 l 732 1289 l 399 1289 m 244 1006 l 244 1183 l 500 1183 l 500 1006 l 244 1006 m 611 1006 l 611 1183 l 867 1183 l 867 1006 l 611 1006 m 704 -13 q 668 -22 704 -13 q 555 -32 633 -32 q 407 -13 478 -32 q 275 46 336 7 q 170 140 215 85 q 100 273 125 196 q 75 441 75 351 l 75 913 l 395 913 l 395 428 q 439 302 395 352 q 555 253 484 253 q 672 302 627 253 q 717 428 717 352 l 717 913 l 1036 913 l 1036 441 q 1011 273 1036 351 q 941 140 985 196 q 836 46 897 85 q 704 -13 775 7 z "},"Ǜ":{"ha":1111,"x_min":75,"x_max":1036,"o":"m 429 1289 l 278 1482 l 549 1482 l 689 1289 l 429 1289 m 244 1006 l 244 1183 l 500 1183 l 500 1006 l 244 1006 m 611 1006 l 611 1183 l 867 1183 l 867 1006 l 611 1006 m 704 -13 q 668 -22 704 -13 q 555 -32 633 -32 q 407 -13 478 -32 q 275 46 336 7 q 170 140 215 85 q 100 273 125 196 q 75 441 75 351 l 75 913 l 395 913 l 395 428 q 439 302 395 352 q 555 253 484 253 q 672 302 627 253 q 717 428 717 352 l 717 913 l 1036 913 l 1036 441 q 1011 273 1036 351 q 941 140 985 196 q 836 46 897 85 q 704 -13 775 7 z "},"ǜ":{"ha":1111,"x_min":75,"x_max":1036,"o":"m 429 1289 l 278 1482 l 549 1482 l 689 1289 l 429 1289 m 244 1006 l 244 1183 l 500 1183 l 500 1006 l 244 1006 m 611 1006 l 611 1183 l 867 1183 l 867 1006 l 611 1006 m 704 -13 q 668 -22 704 -13 q 555 -32 633 -32 q 407 -13 478 -32 q 275 46 336 7 q 170 140 215 85 q 100 273 125 196 q 75 441 75 351 l 75 913 l 395 913 l 395 428 q 439 302 395 352 q 555 253 484 253 q 672 302 627 253 q 717 428 717 352 l 717 913 l 1036 913 l 1036 441 q 1011 273 1036 351 q 941 140 985 196 q 836 46 897 85 q 704 -13 775 7 z "},"Ǻ":{"ha":1217,"x_min":14,"x_max":1203,"o":"m 869 1453 l 729 1260 l 458 1260 l 599 1453 l 869 1453 m 794 913 l 1203 0 l 850 0 l 806 110 l 411 110 l 367 0 l 14 0 l 422 913 l 447 913 q 407 1034 407 962 q 464 1171 407 1120 q 608 1222 520 1222 q 754 1171 698 1222 q 810 1034 810 1120 q 770 913 810 959 l 794 913 m 659 1080 q 649 1089 659 1080 q 608 1099 640 1099 q 558 1080 577 1099 q 539 1034 539 1061 q 558 987 539 1006 q 608 968 577 968 q 659 987 640 968 q 677 1034 677 1006 q 659 1080 677 1061 m 513 359 l 704 359 l 610 597 l 607 597 l 513 359 z "},"ǻ":{"ha":1217,"x_min":14,"x_max":1203,"o":"m 869 1453 l 729 1260 l 458 1260 l 599 1453 l 869 1453 m 794 913 l 1203 0 l 850 0 l 806 110 l 411 110 l 367 0 l 14 0 l 422 913 l 447 913 q 407 1034 407 962 q 464 1171 407 1120 q 608 1222 520 1222 q 754 1171 698 1222 q 810 1034 810 1120 q 770 913 810 959 l 794 913 m 659 1080 q 649 1089 659 1080 q 608 1099 640 1099 q 558 1080 577 1099 q 539 1034 539 1061 q 558 987 539 1006 q 608 968 577 968 q 659 987 640 968 q 677 1034 677 1006 q 659 1080 677 1061 m 513 359 l 704 359 l 610 597 l 607 597 l 513 359 z "},"Ǽ":{"ha":1564,"x_min":14,"x_max":1480,"o":"m 1169 1202 l 1029 1008 l 758 1008 l 899 1202 l 1169 1202 m 1480 648 l 911 648 l 947 568 l 1425 568 l 1425 350 l 1044 350 l 1083 264 l 1480 264 l 1480 0 l 847 0 l 803 110 l 411 110 l 367 0 l 14 0 l 422 913 l 1480 913 l 1480 648 m 511 359 l 703 359 l 607 597 l 511 359 z "},"ǽ":{"ha":1564,"x_min":14,"x_max":1480,"o":"m 1169 1202 l 1029 1008 l 758 1008 l 899 1202 l 1169 1202 m 1480 648 l 911 648 l 947 568 l 1425 568 l 1425 350 l 1044 350 l 1083 264 l 1480 264 l 1480 0 l 847 0 l 803 110 l 411 110 l 367 0 l 14 0 l 422 913 l 1480 913 l 1480 648 m 511 359 l 703 359 l 607 597 l 511 359 z "},"Ǿ":{"ha":1180,"x_min":56,"x_max":1125,"o":"m 852 1194 l 713 1002 l 441 1002 l 582 1194 l 852 1194 m 1010 775 q 1096 630 1066 712 q 1125 457 1125 548 q 1088 266 1125 355 q 983 110 1050 176 q 814 4 916 43 q 590 -35 712 -35 q 293 39 418 -35 l 207 -50 l 102 53 l 178 131 q 56 457 56 265 q 79 612 56 538 q 148 747 102 686 q 258 853 194 808 q 407 924 321 899 q 590 949 492 949 q 896 871 765 949 l 989 965 l 1095 863 l 1010 775 m 375 457 q 395 354 375 403 l 693 661 q 590 685 647 685 q 435 621 495 685 q 375 457 375 557 m 590 229 q 745 293 685 229 q 806 457 806 357 q 789 549 806 505 l 497 249 q 590 229 542 229 z "},"ǿ":{"ha":1180,"x_min":56,"x_max":1125,"o":"m 852 1194 l 713 1002 l 441 1002 l 582 1194 l 852 1194 m 1010 775 q 1096 630 1066 712 q 1125 457 1125 548 q 1088 266 1125 355 q 983 110 1050 176 q 814 4 916 43 q 590 -35 712 -35 q 293 39 418 -35 l 207 -50 l 102 53 l 178 131 q 56 457 56 265 q 79 612 56 538 q 148 747 102 686 q 258 853 194 808 q 407 924 321 899 q 590 949 492 949 q 896 871 765 949 l 989 965 l 1095 863 l 1010 775 m 375 457 q 395 354 375 403 l 693 661 q 590 685 647 685 q 435 621 495 685 q 375 457 375 557 m 590 229 q 745 293 685 229 q 806 457 806 357 q 789 549 806 505 l 497 249 q 590 229 542 229 z "},"Ș":{"ha":932,"x_min":56,"x_max":876,"o":"m 475 -33 q 234 5 349 -33 q 56 92 119 44 l 158 313 q 309 245 219 275 q 482 215 399 215 q 564 228 537 215 q 591 262 591 241 q 586 280 591 272 q 568 294 581 288 q 542 305 555 300 q 507 315 530 310 q 467 323 484 320 q 420 332 450 326 q 371 340 389 337 q 284 361 323 350 q 204 394 246 373 q 135 444 163 416 q 90 515 108 471 q 72 612 72 558 q 181 847 72 755 q 473 939 291 939 q 689 900 589 939 q 840 815 789 862 l 730 616 q 603 668 678 645 q 461 692 528 692 q 377 679 407 692 q 347 644 347 666 q 391 607 347 621 q 578 566 435 593 q 631 555 611 559 q 687 539 652 550 q 744 515 722 528 q 794 482 767 503 q 838 435 822 460 q 865 372 854 410 q 876 290 876 335 q 770 55 876 143 q 475 -33 664 -33 m 363 -460 l 363 -127 l 571 -127 l 571 -288 l 454 -460 l 363 -460 z "},"ș":{"ha":932,"x_min":56,"x_max":876,"o":"m 475 -33 q 234 5 349 -33 q 56 92 119 44 l 158 313 q 309 245 219 275 q 482 215 399 215 q 564 228 537 215 q 591 262 591 241 q 586 280 591 272 q 568 294 581 288 q 542 305 555 300 q 507 315 530 310 q 467 323 484 320 q 420 332 450 326 q 371 340 389 337 q 284 361 323 350 q 204 394 246 373 q 135 444 163 416 q 90 515 108 471 q 72 612 72 558 q 181 847 72 755 q 473 939 291 939 q 689 900 589 939 q 840 815 789 862 l 730 616 q 603 668 678 645 q 461 692 528 692 q 377 679 407 692 q 347 644 347 666 q 391 607 347 621 q 578 566 435 593 q 631 555 611 559 q 687 539 652 550 q 744 515 722 528 q 794 482 767 503 q 838 435 822 460 q 865 372 854 410 q 876 290 876 335 q 770 55 876 143 q 475 -33 664 -33 m 363 -460 l 363 -127 l 571 -127 l 571 -288 l 454 -460 l 363 -460 z "},"Ț":{"ha":980,"x_min":28,"x_max":953,"o":"m 338 0 l 338 635 l 28 635 l 28 913 l 953 913 l 953 635 l 643 635 l 643 0 l 338 0 m 386 -418 l 386 -86 l 595 -86 l 595 -245 l 478 -418 l 386 -418 z "},"ț":{"ha":980,"x_min":28,"x_max":953,"o":"m 338 0 l 338 635 l 28 635 l 28 913 l 953 913 l 953 635 l 643 635 l 643 0 l 338 0 m 386 -418 l 386 -86 l 595 -86 l 595 -245 l 478 -418 l 386 -418 z "},"ȷ":{"ha":1059,"x_min":28,"x_max":962,"o":"m 454 -46 q 205 12 317 -46 q 28 174 92 70 l 235 347 q 322 264 262 300 q 441 228 382 228 q 585 283 528 228 q 643 422 643 339 l 643 648 l 119 648 l 119 913 l 962 913 l 962 441 q 901 186 962 296 q 725 15 840 76 q 454 -46 609 -46 z "},"ˆ":{"ha":1019,"x_min":165,"x_max":822,"o":"m 165 1004 l 336 1197 l 669 1197 l 822 1004 l 551 1004 l 493 1069 l 436 1004 l 165 1004 z "},"ˇ":{"ha":1019,"x_min":165,"x_max":822,"o":"m 336 1004 l 165 1197 l 436 1197 l 493 1132 l 551 1197 l 822 1197 l 669 1004 l 336 1004 z "},"˘":{"ha":1019,"x_min":235,"x_max":753,"o":"m 416 1004 q 334 1023 370 1004 q 278 1070 298 1041 q 247 1133 257 1100 q 235 1198 236 1165 l 422 1198 q 440 1154 422 1174 q 493 1133 458 1133 q 547 1154 529 1133 q 566 1198 566 1174 l 753 1198 q 739 1133 751 1165 q 706 1070 727 1100 q 650 1023 685 1041 q 571 1004 614 1004 l 416 1004 z "},"˙":{"ha":431,"x_min":109,"x_max":330,"o":"m 109 991 l 109 1185 l 330 1185 l 330 991 l 109 991 z "},"˚":{"ha":630,"x_min":135,"x_max":538,"o":"m 336 844 q 192 896 248 844 q 135 1034 135 947 q 192 1171 135 1120 q 336 1222 248 1222 q 482 1171 426 1222 q 538 1034 538 1120 q 481 896 538 947 q 336 844 425 844 m 286 987 q 296 977 286 987 q 336 968 305 968 q 387 987 368 968 q 406 1034 406 1006 q 387 1080 406 1061 q 336 1099 368 1099 q 286 1080 305 1099 q 267 1034 267 1061 q 286 987 267 1006 z "},"˛":{"ha":786,"x_min":204,"x_max":639,"o":"m 564 -339 q 454 -335 503 -339 q 357 -321 406 -332 q 277 -293 309 -311 q 224 -247 244 -276 q 204 -179 204 -218 q 419 16 204 -48 l 421 17 l 637 17 l 639 16 q 429 -155 429 -92 q 443 -184 429 -172 q 478 -202 456 -196 q 521 -212 499 -209 q 564 -215 543 -215 l 564 -339 z "},"˜":{"ha":1019,"x_min":151,"x_max":867,"o":"m 244 989 l 151 1128 q 236 1197 180 1166 q 358 1229 293 1229 q 447 1218 406 1229 q 511 1196 488 1208 q 565 1173 534 1183 q 627 1162 596 1162 q 711 1185 670 1163 q 774 1232 751 1206 l 867 1093 q 772 1023 829 1055 q 667 991 715 991 q 573 1002 616 991 q 507 1025 531 1013 q 453 1048 484 1038 q 392 1059 422 1059 q 307 1036 348 1058 q 244 989 267 1015 z "},"˝":{"ha":765,"x_min":54,"x_max":757,"o":"m 54 1004 l 195 1185 l 437 1185 l 297 1004 l 54 1004 m 374 1004 l 514 1185 l 757 1185 l 616 1004 l 374 1004 z "},"̦":{"ha":0,"x_min":-315,"x_max":-107,"o":"m -315 -418 l -315 -86 l -107 -86 l -107 -245 l -224 -418 l -315 -418 z "},"̵":{"ha":0,"x_min":0,"x_max":0,"o":""},"̶":{"ha":0,"x_min":0,"x_max":0,"o":""},"Δ":{"ha":897,"x_min":14,"x_max":884,"o":"m 14 0 l 449 953 l 884 0 l 14 0 m 339 200 l 558 200 l 449 458 l 339 200 z "},"Ω":{"ha":1103,"x_min":58,"x_max":1044,"o":"m 90 0 l 90 187 l 208 187 q 58 511 58 311 q 97 694 58 613 q 204 826 136 775 q 360 904 272 877 q 551 930 449 930 q 742 904 654 930 q 899 826 831 877 q 1005 694 966 775 q 1044 511 1044 613 q 895 187 1044 311 l 1013 187 l 1013 0 l 610 0 l 610 189 q 732 290 684 221 q 779 444 779 359 q 712 605 779 546 q 551 664 645 664 q 391 605 458 664 q 323 444 323 546 q 371 290 323 359 q 493 189 418 221 l 493 0 l 90 0 z "},"μ":{"ha":1140,"x_min":104,"x_max":1065,"o":"m 106 -201 l 104 913 l 424 913 l 424 408 q 468 282 424 331 q 585 233 513 233 q 701 282 656 233 q 746 408 746 331 l 746 913 l 1065 913 l 1065 422 q 1040 257 1065 332 q 969 130 1014 182 q 864 41 924 77 q 733 -12 803 5 q 587 -29 664 -29 q 495 -15 545 -29 q 424 18 446 -1 l 424 -201 l 106 -201 z "},"π":{"ha":1143,"x_min":41,"x_max":1116,"o":"m 41 -31 l 41 250 q 157 266 111 250 q 227 314 203 281 q 261 387 252 347 q 271 488 271 428 l 271 648 l 41 648 l 41 913 l 1116 913 l 1116 648 l 1032 648 l 1032 0 l 713 0 l 713 648 l 590 648 l 590 471 q 457 91 590 212 q 41 -31 323 -31 z "},"Ẁ":{"ha":1550,"x_min":14,"x_max":1536,"o":"m 648 1004 l 497 1197 l 768 1197 l 908 1004 l 648 1004 m 278 0 l 14 913 l 380 913 l 504 371 l 647 913 l 903 913 l 1046 371 l 1169 913 l 1536 913 l 1272 0 l 889 0 l 775 447 l 661 0 l 278 0 z "},"ẁ":{"ha":1550,"x_min":14,"x_max":1536,"o":"m 648 1004 l 497 1197 l 768 1197 l 908 1004 l 648 1004 m 278 0 l 14 913 l 380 913 l 504 371 l 647 913 l 903 913 l 1046 371 l 1169 913 l 1536 913 l 1272 0 l 889 0 l 775 447 l 661 0 l 278 0 z "},"Ẃ":{"ha":1550,"x_min":14,"x_max":1536,"o":"m 627 1004 l 766 1197 l 1038 1197 l 897 1004 l 627 1004 m 278 0 l 14 913 l 380 913 l 504 371 l 647 913 l 903 913 l 1046 371 l 1169 913 l 1536 913 l 1272 0 l 889 0 l 775 447 l 661 0 l 278 0 z "},"ẃ":{"ha":1550,"x_min":14,"x_max":1536,"o":"m 627 1004 l 766 1197 l 1038 1197 l 897 1004 l 627 1004 m 278 0 l 14 913 l 380 913 l 504 371 l 647 913 l 903 913 l 1046 371 l 1169 913 l 1536 913 l 1272 0 l 889 0 l 775 447 l 661 0 l 278 0 z "},"Ẅ":{"ha":1550,"x_min":14,"x_max":1536,"o":"m 464 991 l 464 1169 l 720 1169 l 720 991 l 464 991 m 831 991 l 831 1169 l 1086 1169 l 1086 991 l 831 991 m 278 0 l 14 913 l 380 913 l 504 371 l 647 913 l 903 913 l 1046 371 l 1169 913 l 1536 913 l 1272 0 l 889 0 l 775 447 l 661 0 l 278 0 z "},"ẅ":{"ha":1550,"x_min":14,"x_max":1536,"o":"m 464 991 l 464 1169 l 720 1169 l 720 991 l 464 991 m 831 991 l 831 1169 l 1086 1169 l 1086 991 l 831 991 m 278 0 l 14 913 l 380 913 l 504 371 l 647 913 l 903 913 l 1046 371 l 1169 913 l 1536 913 l 1272 0 l 889 0 l 775 447 l 661 0 l 278 0 z "},"ẞ":{"ha":1864,"x_min":56,"x_max":1808,"o":"m 475 -33 q 234 5 349 -33 q 56 92 119 44 l 158 313 q 309 245 219 275 q 482 215 399 215 q 564 228 537 215 q 591 262 591 241 q 586 280 591 272 q 568 294 581 288 q 542 305 555 300 q 507 315 530 310 q 467 323 484 320 q 420 332 450 326 q 371 340 389 337 q 284 361 323 350 q 204 394 246 373 q 135 444 163 416 q 90 515 108 471 q 72 612 72 558 q 181 847 72 755 q 473 939 291 939 q 689 900 589 939 q 840 815 789 862 l 730 616 q 603 668 678 645 q 461 692 528 692 q 377 679 407 692 q 347 644 347 666 q 391 607 347 621 q 578 566 435 593 q 631 555 611 559 q 687 539 652 550 q 744 515 722 528 q 794 482 767 503 q 838 435 822 460 q 865 372 854 410 q 876 290 876 335 q 770 55 876 143 q 475 -33 664 -33 m 1407 -33 q 1166 5 1282 -33 q 987 92 1050 44 l 1090 313 q 1242 245 1152 275 q 1414 215 1332 215 q 1496 228 1469 215 q 1524 262 1524 241 q 1518 280 1524 272 q 1500 294 1513 288 q 1475 305 1487 300 q 1439 315 1462 310 q 1399 323 1415 320 q 1352 332 1382 326 q 1303 340 1321 337 q 1216 361 1255 350 q 1137 394 1178 373 q 1068 444 1095 416 q 1022 515 1040 471 q 1004 612 1004 558 q 1114 847 1004 755 q 1406 939 1223 939 q 1621 900 1521 939 q 1772 815 1721 862 l 1662 616 q 1535 668 1610 645 q 1393 692 1459 692 q 1309 679 1339 692 q 1279 644 1279 666 q 1323 607 1279 621 q 1510 566 1367 593 q 1563 555 1543 559 q 1618 539 1584 550 q 1676 515 1653 528 q 1726 482 1699 503 q 1770 435 1754 460 q 1797 372 1786 410 q 1808 290 1808 335 q 1702 55 1808 143 q 1407 -33 1596 -33 z "},"Ỳ":{"ha":1094,"x_min":14,"x_max":1080,"o":"m 421 1004 l 269 1197 l 541 1197 l 681 1004 l 421 1004 m 386 0 l 386 265 l 14 913 l 367 913 l 547 583 l 725 913 l 1080 913 l 705 265 l 705 0 l 386 0 z "},"ỳ":{"ha":1094,"x_min":14,"x_max":1080,"o":"m 421 1004 l 269 1197 l 541 1197 l 681 1004 l 421 1004 m 386 0 l 386 265 l 14 913 l 367 913 l 547 583 l 725 913 l 1080 913 l 705 265 l 705 0 l 386 0 z "},"–":{"ha":836,"x_min":69,"x_max":766,"o":"m 69 357 l 69 586 l 766 586 l 766 357 l 69 357 z "},"—":{"ha":1079,"x_min":69,"x_max":1010,"o":"m 69 355 l 69 585 l 1010 585 l 1010 355 l 69 355 z "},"‘":{"ha":302,"x_min":56,"x_max":248,"o":"m 248 913 l 248 599 l 56 599 l 56 758 l 157 913 l 248 913 z "},"’":{"ha":302,"x_min":56,"x_max":248,"o":"m 56 599 l 56 913 l 248 913 l 248 753 l 146 599 l 56 599 z "},"‚":{"ha":304,"x_min":56,"x_max":248,"o":"m 56 -146 l 56 168 l 248 168 l 248 8 l 146 -146 l 56 -146 z "},"“":{"ha":553,"x_min":56,"x_max":497,"o":"m 248 913 l 248 599 l 56 599 l 56 758 l 157 913 l 248 913 m 497 913 l 497 599 l 306 599 l 306 758 l 407 913 l 497 913 z "},"”":{"ha":553,"x_min":56,"x_max":497,"o":"m 56 599 l 56 913 l 248 913 l 248 753 l 146 599 l 56 599 m 306 599 l 306 913 l 497 913 l 497 753 l 396 599 l 306 599 z "},"„":{"ha":553,"x_min":56,"x_max":497,"o":"m 56 -146 l 56 168 l 248 168 l 248 8 l 146 -146 l 56 -146 m 306 -146 l 306 168 l 497 168 l 497 8 l 396 -146 l 306 -146 z "},"†":{"ha":477,"x_min":14,"x_max":464,"o":"m 136 297 l 136 597 l 14 597 l 14 790 l 136 790 l 136 913 l 345 913 l 345 790 l 464 790 l 464 597 l 345 597 l 345 297 l 136 297 z "},"‡":{"ha":491,"x_min":14,"x_max":478,"o":"m 136 1 l 136 313 l 14 313 l 14 505 l 136 505 l 136 597 l 14 597 l 14 790 l 136 790 l 136 913 l 358 913 l 358 790 l 478 790 l 478 597 l 358 597 l 358 505 l 478 505 l 478 313 l 358 313 l 358 1 l 136 1 z "},"•":{"ha":623,"x_min":56,"x_max":568,"o":"m 494 313 q 457 276 494 313 q 313 239 420 239 q 131 313 205 239 q 56 494 56 387 q 131 676 56 602 q 313 751 205 751 q 494 676 420 751 q 568 494 568 602 q 494 313 568 387 z "},"…":{"ha":1139,"x_min":56,"x_max":1083,"o":"m 56 1 l 56 236 l 306 236 l 306 1 l 56 1 m 444 1 l 444 236 l 694 236 l 694 1 l 444 1 m 833 1 l 833 236 l 1083 236 l 1083 1 l 833 1 z "},"‰":{"ha":2389,"x_min":56,"x_max":2334,"o":"m 519 -98 l 930 1002 l 1158 1002 l 747 -98 l 519 -98 m 376 329 q 241 353 302 329 q 140 417 180 376 q 78 513 100 458 q 56 628 56 567 q 93 777 56 710 q 205 885 131 844 q 376 926 279 926 q 548 885 474 926 q 660 777 622 844 q 697 628 697 710 q 609 415 697 502 q 376 329 520 329 m 292 537 q 308 520 292 537 q 376 503 325 503 q 461 537 428 503 q 494 628 494 572 q 461 718 494 684 q 376 753 428 753 q 292 718 325 753 q 258 628 258 684 q 292 537 258 572 m 1310 -24 q 1175 0 1236 -24 q 1073 65 1114 24 q 1011 160 1033 106 q 989 275 989 214 q 1026 425 989 357 q 1138 533 1064 492 q 1310 574 1212 574 q 1481 533 1407 574 q 1593 425 1555 492 q 1630 275 1630 357 q 1542 63 1630 149 q 1310 -24 1453 -24 m 2013 -24 q 1878 0 1939 -24 q 1776 65 1817 24 q 1714 160 1736 106 q 1691 275 1691 214 q 1779 488 1691 401 q 2013 574 1866 574 q 2184 533 2110 574 q 2296 425 2258 492 q 2334 275 2334 357 q 2245 63 2334 149 q 2013 -24 2157 -24 m 1225 185 q 1241 167 1225 185 q 1310 150 1258 150 q 1394 185 1361 150 q 1428 275 1428 220 q 1394 366 1428 331 q 1310 400 1361 400 q 1225 366 1258 400 q 1192 275 1192 331 q 1225 185 1192 220 m 1928 185 q 1944 167 1928 185 q 2013 150 1961 150 q 2098 185 2064 150 q 2131 275 2131 220 q 2098 366 2131 331 q 2013 400 2064 400 q 1928 366 1961 400 q 1894 275 1894 331 q 1928 185 1894 220 z "},"‹":{"ha":533,"x_min":21,"x_max":513,"o":"m 318 72 l 21 446 l 317 823 l 511 823 l 326 446 l 513 72 l 318 72 z "},"›":{"ha":533,"x_min":21,"x_max":513,"o":"m 215 72 l 21 72 l 207 446 l 22 823 l 216 823 l 513 446 l 215 72 z "},"⁄":{"ha":707,"x_min":50,"x_max":656,"o":"m 50 -79 l 461 1021 l 656 1021 l 244 -79 l 50 -79 z "},"₨":{"ha":962,"x_min":56,"x_max":918,"o":"m 367 0 l 62 278 l 117 443 l 319 443 q 429 509 397 443 l 56 509 l 98 672 l 433 672 q 326 749 401 749 l 56 749 l 97 913 l 918 913 l 876 749 l 726 749 q 755 672 745 712 l 918 672 l 876 509 l 760 509 q 693 384 743 435 q 574 310 642 332 q 422 288 505 288 l 751 0 l 367 0 z "},"€":{"ha":1072,"x_min":28,"x_max":1021,"o":"m 848 285 l 1021 69 q 673 -35 879 -35 q 334 65 471 -35 q 155 323 197 165 l 28 323 l 53 424 l 139 424 l 139 450 q 140 478 139 469 l 64 478 l 89 578 l 154 578 q 332 845 195 742 q 673 949 469 949 q 991 859 859 949 l 840 627 q 686 677 773 677 q 570 651 621 677 q 490 578 519 625 l 726 578 l 701 478 l 460 478 q 458 456 458 471 q 460 424 458 433 l 690 424 l 665 323 l 498 323 q 576 259 528 282 q 686 236 625 236 q 848 285 779 236 z "},"₽":{"ha":1122,"x_min":41,"x_max":1095,"o":"m 134 0 l 134 79 l 41 79 l 41 281 l 134 281 l 134 343 l 41 343 l 41 558 l 134 558 l 135 914 l 732 913 q 999 835 903 913 q 1095 628 1095 758 q 999 421 1095 498 q 732 343 903 343 l 453 343 l 453 281 l 729 281 l 729 79 l 453 79 l 453 0 l 134 0 m 453 558 l 704 558 q 763 578 741 558 q 786 628 786 597 q 763 678 786 659 q 704 697 741 697 l 453 697 l 453 558 z "},"№":{"ha":1885,"x_min":97,"x_max":1815,"o":"m 1475 329 q 1332 353 1397 329 q 1224 418 1267 377 q 1158 513 1181 459 q 1135 628 1135 568 q 1158 743 1135 689 q 1224 839 1181 798 q 1332 904 1267 880 q 1475 928 1397 928 q 1617 904 1552 928 q 1725 839 1683 880 q 1792 744 1768 798 q 1815 628 1815 689 q 1792 513 1815 568 q 1725 418 1768 459 q 1617 353 1683 377 q 1475 329 1552 329 m 97 0 l 97 913 l 364 913 l 726 481 l 726 913 l 1044 913 l 1044 0 l 774 0 l 416 422 l 416 0 l 97 0 m 1476 509 q 1555 542 1525 509 q 1585 632 1585 576 q 1554 715 1585 682 q 1476 749 1524 749 q 1395 716 1426 749 q 1364 632 1364 683 q 1395 543 1364 576 q 1476 509 1426 509 m 1200 0 l 1200 222 l 1763 222 l 1763 0 l 1200 0 z "},"℗":{"ha":1144,"x_min":56,"x_max":1089,"o":"m 773 -12 q 725 -32 773 -12 q 572 -52 677 -52 q 372 -12 467 -52 q 207 95 276 28 q 97 255 138 162 q 56 450 56 348 q 97 645 56 552 q 207 805 138 738 q 372 912 276 872 q 572 951 467 951 q 773 912 677 951 q 938 805 869 872 q 1048 645 1007 738 q 1089 450 1089 552 q 1048 255 1089 348 q 938 95 1007 162 q 773 -12 869 28 m 392 36 q 435 18 392 36 q 572 0 478 0 q 752 36 667 0 q 900 132 838 71 q 998 275 962 192 q 1035 450 1035 359 q 998 625 1035 541 q 900 768 962 708 q 752 864 838 829 q 572 900 667 900 q 392 864 478 900 q 245 768 307 829 q 146 625 183 708 q 110 450 110 541 q 146 275 110 359 q 245 132 183 192 q 392 36 307 71 m 300 204 l 300 707 l 693 707 q 861 659 804 707 q 917 525 917 611 q 693 353 917 353 l 514 353 l 514 204 l 300 204 m 514 484 l 637 484 q 695 493 677 484 q 713 525 713 503 q 695 558 713 548 q 637 568 677 568 l 514 568 l 514 484 z "},"™":{"ha":1160,"x_min":102,"x_max":1084,"o":"m 232 501 l 232 786 l 102 786 l 102 913 l 498 913 l 498 786 l 376 786 l 376 501 l 232 501 m 810 498 l 673 697 l 673 501 l 533 501 l 533 913 l 715 913 l 814 734 l 908 913 l 1084 913 l 1084 501 l 945 501 l 945 699 l 810 498 z "},"Ω":{"ha":1103,"x_min":58,"x_max":1044,"o":"m 90 0 l 90 187 l 208 187 q 58 511 58 311 q 97 694 58 613 q 204 826 136 775 q 360 904 272 877 q 551 930 449 930 q 742 904 654 930 q 899 826 831 877 q 1005 694 966 775 q 1044 511 1044 613 q 895 187 1044 311 l 1013 187 l 1013 0 l 610 0 l 610 189 q 732 290 684 221 q 779 444 779 359 q 712 605 779 546 q 551 664 645 664 q 391 605 458 664 q 323 444 323 546 q 371 290 323 359 q 493 189 418 221 l 493 0 l 90 0 z "},"℮":{"ha":1051,"x_min":56,"x_max":996,"o":"m 533 -28 q 340 9 430 -28 q 189 109 251 46 q 91 259 127 172 q 56 441 56 345 q 117 678 56 570 q 286 849 178 786 q 524 913 393 913 q 709 875 622 913 q 859 771 796 837 q 959 613 922 706 q 996 414 996 519 q 994 370 996 383 l 275 370 l 275 258 q 386 168 311 197 q 532 139 461 139 q 703 167 633 139 q 828 256 773 195 l 929 126 q 754 16 861 59 q 533 -28 648 -28 m 278 490 l 774 490 l 774 618 q 522 746 692 746 q 379 717 437 746 q 278 629 320 688 l 278 490 z "},"←":{"ha":1046,"x_min":69,"x_max":977,"o":"m 977 542 l 977 260 l 529 260 l 629 160 l 471 3 l 69 406 l 472 808 l 629 653 l 518 542 l 977 542 z "},"↑":{"ha":945,"x_min":69,"x_max":876,"o":"m 876 504 l 721 347 l 610 458 l 610 0 l 328 0 l 328 447 l 228 347 l 69 505 l 473 907 l 876 504 z "},"→":{"ha":969,"x_min":-7,"x_max":900,"o":"m 497 808 l 900 406 l 498 3 l 340 160 l 440 260 l -7 260 l -7 542 l 452 542 l 340 653 l 497 808 z "},"↓":{"ha":945,"x_min":69,"x_max":876,"o":"m 721 558 l 876 401 l 473 -1 l 69 400 l 228 558 l 328 458 l 328 905 l 610 905 l 610 447 l 721 558 z "},"↖":{"ha":883,"x_min":69,"x_max":814,"o":"m 814 236 l 615 36 l 292 359 l 292 203 l 69 204 l 69 774 l 639 774 l 639 551 l 498 551 l 814 236 z "},"↗":{"ha":883,"x_min":69,"x_max":814,"o":"m 244 774 l 814 774 l 814 204 l 591 203 l 591 359 l 268 36 l 69 236 l 385 551 l 244 551 l 244 774 z "},"↘":{"ha":883,"x_min":69,"x_max":814,"o":"m 591 607 l 814 606 l 814 36 l 244 36 l 244 258 l 385 258 l 69 574 l 268 774 l 591 450 l 591 607 z "},"↙":{"ha":883,"x_min":69,"x_max":814,"o":"m 814 574 l 498 258 l 639 258 l 639 36 l 69 36 l 69 606 l 292 607 l 292 450 l 615 774 l 814 574 z "},"∆":{"ha":897,"x_min":14,"x_max":884,"o":"m 14 0 l 449 953 l 884 0 l 14 0 m 339 200 l 558 200 l 449 458 l 339 200 z "},"∏":{"ha":1131,"x_min":97,"x_max":1034,"o":"m 97 0 l 97 913 l 1034 913 l 1034 0 l 714 0 l 714 648 l 416 648 l 416 0 l 97 0 z "},"∑":{"ha":1062,"x_min":41,"x_max":993,"o":"m 41 0 l 41 146 l 301 473 l 41 766 l 41 913 l 993 913 l 993 648 l 525 648 l 650 471 l 525 254 l 993 254 l 993 0 l 41 0 z "},"−":{"ha":672,"x_min":69,"x_max":636,"o":"m 69 326 l 69 555 l 636 555 l 636 326 l 69 326 z "},"√":{"ha":1155,"x_min":113,"x_max":1141,"o":"m 375 0 l 113 585 l 439 585 l 570 301 l 838 913 l 1141 913 l 750 0 l 375 0 z "},"∞":{"ha":1547,"x_min":41,"x_max":1506,"o":"m 463 37 q 300 70 378 37 q 166 157 222 102 q 75 287 109 212 q 41 446 41 363 q 98 650 41 556 q 253 800 155 745 q 463 854 350 854 q 634 818 554 854 q 774 718 715 782 q 913 819 833 783 q 1084 854 993 854 q 1294 800 1197 854 q 1449 650 1392 745 q 1506 446 1506 556 q 1472 287 1506 363 q 1381 157 1438 212 q 1247 70 1324 102 q 1084 37 1169 37 q 913 73 993 37 q 774 174 833 109 q 634 74 715 110 q 463 37 554 37 m 368 353 q 387 333 368 353 q 460 314 406 314 q 553 353 513 314 q 593 446 593 393 q 553 539 593 500 q 460 579 513 579 q 368 539 406 579 q 330 446 330 500 q 368 353 330 392 m 1084 314 q 1178 353 1139 314 q 1217 446 1217 392 q 1178 540 1217 500 q 1084 579 1139 579 q 992 540 1030 579 q 954 446 954 501 q 992 353 954 391 q 1084 314 1031 314 z "},"∫":{"ha":734,"x_min":53,"x_max":689,"o":"m 53 -125 l 53 52 l 204 52 l 204 1038 l 689 1038 l 689 861 l 538 861 l 538 -125 l 53 -125 z "},"≈":{"ha":833,"x_min":20,"x_max":799,"o":"m 113 467 l 20 606 q 105 675 48 644 q 227 707 161 707 q 315 696 274 707 q 379 673 355 686 q 433 651 402 661 q 494 640 464 640 q 578 663 538 641 q 642 710 619 684 l 734 571 q 640 501 696 533 q 534 469 583 469 q 441 480 484 469 q 375 503 399 490 q 321 526 351 515 q 260 536 290 536 q 176 514 216 536 q 113 467 135 492 m 176 231 l 83 370 q 169 439 112 408 q 290 471 225 471 q 378 460 338 471 q 443 437 419 450 q 497 415 466 425 q 558 404 528 404 q 643 426 602 405 q 705 473 684 448 l 799 335 q 704 265 761 297 q 599 233 648 233 q 505 244 548 233 q 439 267 463 254 q 385 289 416 279 q 323 300 354 300 q 239 278 279 299 q 176 231 198 256 z "},"≠":{"ha":672,"x_min":69,"x_max":636,"o":"m 636 514 l 432 514 l 403 450 l 636 450 l 636 221 l 301 221 l 260 125 l 106 125 l 147 221 l 69 221 l 69 450 l 249 450 l 278 514 l 69 514 l 69 743 l 378 743 l 419 836 l 574 836 l 532 743 l 636 743 l 636 514 z "},"≤":{"ha":634,"x_min":28,"x_max":566,"o":"m 408 172 l 32 549 l 408 925 l 566 768 l 346 549 l 566 329 l 408 172 m 28 0 l 28 96 l 561 96 l 561 0 l 28 0 z "},"≥":{"ha":634,"x_min":69,"x_max":607,"o":"m 227 172 l 69 329 l 289 549 l 69 768 l 227 925 l 603 549 l 227 172 m 607 0 l 74 0 l 74 96 l 607 96 l 607 0 z "},"⌀":{"ha":1144,"x_min":56,"x_max":1089,"o":"m 572 -52 q 258 52 397 -52 l 204 -3 l 115 86 l 167 138 q 56 450 56 276 q 97 645 56 552 q 207 805 138 738 q 372 912 276 872 q 572 951 467 951 q 880 851 742 951 l 953 924 l 1042 835 l 972 765 q 1089 450 1089 625 q 1048 255 1089 348 q 938 95 1007 162 q 773 -12 869 28 q 572 -52 677 -52 m 400 359 l 663 623 q 576 643 623 643 q 438 586 495 643 q 380 447 380 528 q 400 359 380 402 m 576 252 q 715 309 658 252 q 772 447 772 366 q 750 536 772 493 l 486 272 q 576 252 528 252 z "},"◊":{"ha":1126,"x_min":69,"x_max":1057,"o":"m 562 -62 l 69 431 l 562 925 l 1057 431 l 562 -62 m 562 273 l 718 431 l 562 586 l 406 431 l 562 273 z "},"":{"ha":1054,"x_min":74,"x_max":981,"o":"m 526 79 l 182 200 q 105 254 136 216 q 74 336 74 291 l 74 693 q 105 776 74 738 q 182 831 136 814 l 526 950 l 873 831 q 950 776 920 814 q 981 693 981 738 l 981 336 q 950 253 981 291 q 873 200 920 215 l 526 79 m 358 546 q 390 549 374 546 q 414 555 406 552 q 436 564 422 558 q 452 570 450 569 l 503 590 q 499 598 502 591 q 496 608 496 605 l 444 587 q 433 583 444 587 q 417 577 422 578 q 401 572 412 575 q 379 568 390 570 q 357 567 368 567 l 343 567 l 410 751 q 439 754 429 754 q 485 734 476 754 l 498 745 q 439 771 487 771 q 354 744 387 771 q 301 661 321 716 q 289 604 289 625 q 358 546 289 546 m 211 267 q 314 310 256 267 q 450 440 372 354 l 490 484 l 675 484 l 636 383 q 632 363 632 372 q 646 331 632 344 q 682 318 661 318 q 734 332 699 318 l 921 404 l 914 421 l 720 345 q 711 357 711 345 q 714 368 711 364 l 814 639 q 818 664 818 653 q 800 706 818 690 q 751 722 781 722 l 682 722 q 485 501 587 622 q 249 468 340 501 q 163 413 191 448 q 135 343 135 378 q 156 288 135 309 q 211 267 178 267 m 509 501 l 689 705 l 745 705 q 747 690 747 700 q 745 676 747 684 l 681 501 l 509 501 m 211 282 q 169 299 184 282 q 153 342 153 315 q 177 403 153 373 q 253 452 201 433 q 469 484 342 484 l 437 452 q 299 322 349 361 q 211 282 250 282 z "}}}
